<svg width="90" height="24" viewBox="0 0 90 24" fill="none" xmlns="http://www.w3.org/2000/svg">
<path fill-rule="evenodd" clip-rule="evenodd" d="M3.29289 2.79289C4.54657 1.53921 6.34586 1 8.5 1H16.5C18.6541 1 20.4534 1.53921 21.7071 2.79289C22.9608 4.04657 23.5 5.84586 23.5 8V16C23.5 18.1541 22.9608 19.9534 21.7071 21.2071C20.4534 22.4608 18.6541 23 16.5 23H3.5C2.39772 23 1.5 22.1023 1.5 21V8C1.5 5.84586 2.03921 4.04657 3.29289 2.79289ZM4.70711 4.20711C3.96079 4.95343 3.5 6.15414 3.5 8V21H16.5C18.3459 21 19.5466 20.5392 20.2929 19.7929C21.0392 19.0466 21.5 17.8459 21.5 16V8C21.5 6.15414 21.0392 4.95343 20.2929 4.20711C19.5466 3.46079 18.3459 3 16.5 3H8.5C6.65414 3 5.45343 3.46079 4.70711 4.20711ZM14.7884 6.01326C15.7255 5.92391 16.5931 6.35259 17.3793 7.14428C18.1676 7.93317 18.5882 8.80198 18.4945 9.73598C18.4062 10.617 17.8793 11.3057 17.3779 11.8071L12.1879 16.9971C11.9858 17.1992 11.7361 17.3546 11.5173 17.4623C11.2972 17.5705 11.0267 17.6707 10.7522 17.7099L10.7508 17.7101L8.77079 17.9901L8.76834 17.9905C8.1461 18.0769 7.51253 17.911 7.05617 17.4546C6.5998 16.9982 6.43386 16.3647 6.52028 15.7424L6.52063 15.74L6.80063 13.76L6.80083 13.7586C6.84004 13.484 6.94025 13.2135 7.04851 12.9935C7.15619 12.7747 7.31155 12.525 7.51366 12.3229L11.9362 7.90031C11.9539 7.88122 11.9723 7.86279 11.9915 7.84506L12.7037 7.13289C13.2102 6.62639 13.9032 6.09767 14.7884 6.01326ZM12.3509 10.314L8.9296 13.7354L8.92959 13.7354L8.92915 13.7359C8.9271 13.7383 8.91814 13.749 8.90399 13.77C8.88501 13.7981 8.86363 13.8346 8.84303 13.8765C8.82247 13.9183 8.80608 13.9585 8.79465 13.9925C8.78474 14.022 8.78137 14.0385 8.78076 14.0414C8.78068 14.0418 8.78065 14.042 8.78066 14.0419L8.5026 16.0082L10.4689 15.7301C10.4688 15.7301 10.4689 15.7301 10.4693 15.73L10.4693 15.73L10.4693 15.73C10.4723 15.7294 10.4887 15.726 10.5182 15.7161C10.5523 15.7047 10.5925 15.6883 10.6343 15.6677C10.6761 15.6471 10.7127 15.6258 10.7408 15.6068C10.7618 15.5926 10.7725 15.5836 10.7749 15.5816L10.7754 15.5812L14.1986 12.158C13.4475 11.6945 12.815 11.0619 12.3509 10.314ZM15.6751 10.6815C14.8548 10.3142 14.1966 9.6562 13.8257 8.83924L14.1179 8.54711C14.5114 8.15361 14.7884 8.02233 14.9782 8.00423C15.1156 7.99113 15.4276 8.01695 15.961 8.55443L15.9637 8.55711C16.4944 9.08784 16.5183 9.39856 16.5045 9.53651C16.4853 9.72799 16.3523 10.0043 15.9637 10.3929L15.6751 10.6815Z" fill="#35A835"/>
<path d="M41.1935 17H37.5842V6.81818H41.2234C42.2475 6.81818 43.1291 7.02202 43.8683 7.42969C44.6074 7.83404 45.1758 8.41572 45.5735 9.17472C45.9746 9.93371 46.1751 10.8419 46.1751 11.8991C46.1751 12.9598 45.9746 13.8712 45.5735 14.6335C45.1758 15.3958 44.604 15.9808 43.8583 16.3885C43.1159 16.7962 42.2276 17 41.1935 17ZM39.7369 15.1555H41.104C41.7404 15.1555 42.2757 15.0429 42.7099 14.8175C43.1474 14.5888 43.4755 14.2358 43.6942 13.7585C43.9163 13.2779 44.0273 12.6581 44.0273 11.8991C44.0273 11.1468 43.9163 10.532 43.6942 10.0547C43.4755 9.57741 43.149 9.22609 42.7148 9.00071C42.2807 8.77533 41.7454 8.66264 41.109 8.66264H39.7369V15.1555ZM47.7697 17V6.81818H54.6305V8.59304H49.9224V11.0192H54.2775V12.794H49.9224V15.2251H54.6504V17H47.7697ZM61.8654 9.74645C61.8256 9.34541 61.6549 9.03385 61.3533 8.81179C61.0517 8.58972 60.6424 8.47869 60.1254 8.47869C59.774 8.47869 59.4774 8.52841 59.2354 8.62784C58.9935 8.72396 58.8079 8.85819 58.6786 9.03054C58.5527 9.20289 58.4897 9.39844 58.4897 9.61719C58.4831 9.79948 58.5212 9.95857 58.604 10.0945C58.6902 10.2304 58.8079 10.348 58.957 10.4474C59.1062 10.5436 59.2785 10.6281 59.4741 10.701C59.6696 10.7706 59.8784 10.8303 60.1005 10.88L61.0153 11.0987C61.4594 11.1982 61.8671 11.3307 62.2383 11.4964C62.6095 11.6622 62.931 11.866 63.2028 12.108C63.4746 12.3499 63.685 12.6349 63.8342 12.9631C63.9866 13.2912 64.0645 13.6674 64.0678 14.0916C64.0645 14.7147 63.9054 15.255 63.5906 15.7124C63.279 16.1664 62.8282 16.5194 62.2383 16.7713C61.6516 17.0199 60.944 17.1442 60.1154 17.1442C59.2934 17.1442 58.5775 17.0182 57.9677 16.7663C57.3612 16.5144 56.8872 16.1416 56.5458 15.6477C56.2077 15.1506 56.0304 14.5357 56.0138 13.8033H58.0969C58.1201 14.1446 58.2179 14.4297 58.3903 14.6584C58.5659 14.8838 58.7996 15.0545 59.0913 15.1705C59.3862 15.2831 59.7193 15.3395 60.0906 15.3395C60.4551 15.3395 60.7717 15.2865 61.0401 15.1804C61.3119 15.0743 61.5224 14.9268 61.6715 14.7379C61.8207 14.549 61.8952 14.3319 61.8952 14.0866C61.8952 13.858 61.8273 13.6657 61.6914 13.5099C61.5588 13.3542 61.3633 13.2216 61.1048 13.1122C60.8496 13.0028 60.5363 12.9034 60.1651 12.8139L59.0565 12.5355C58.198 12.3267 57.5202 12.0002 57.0231 11.5561C56.5259 11.112 56.279 10.5137 56.2823 9.76136C56.279 9.14489 56.4431 8.6063 56.7745 8.1456C57.1093 7.6849 57.5683 7.32528 58.1516 7.06676C58.735 6.80824 59.3978 6.67898 60.1403 6.67898C60.896 6.67898 61.5555 6.80824 62.119 7.06676C62.6857 7.32528 63.1265 7.6849 63.4414 8.1456C63.7563 8.6063 63.9187 9.13991 63.9286 9.74645H61.8654ZM67.6685 6.81818V17H65.5158V6.81818H67.6685ZM76.1911 10.1094C76.1214 9.86742 76.0237 9.65365 75.8977 9.46804C75.7718 9.27912 75.6177 9.12003 75.4354 8.99077C75.2564 8.85819 75.0509 8.7571 74.8189 8.6875C74.5902 8.6179 74.3366 8.5831 74.0582 8.5831C73.5379 8.5831 73.0805 8.71236 72.6861 8.97088C72.295 9.2294 71.9901 9.60559 71.7713 10.0994C71.5526 10.59 71.4432 11.1899 71.4432 11.8991C71.4432 12.6084 71.5509 13.2116 71.7663 13.7088C71.9818 14.206 72.2867 14.5855 72.6811 14.8473C73.0755 15.1058 73.5412 15.2351 74.0781 15.2351C74.5653 15.2351 74.9813 15.1489 75.326 14.9766C75.674 14.8009 75.9392 14.554 76.1214 14.2358C76.3071 13.9176 76.3999 13.5414 76.3999 13.1072L76.8374 13.1719H74.2124V11.5511H78.473V12.8338C78.473 13.7287 78.2841 14.4976 77.9062 15.1406C77.5284 15.7803 77.008 16.2741 76.3452 16.6222C75.6823 16.9669 74.9233 17.1392 74.0682 17.1392C73.1136 17.1392 72.2751 16.9287 71.5526 16.5078C70.83 16.0836 70.2666 15.482 69.8622 14.7031C69.4612 13.9209 69.2607 12.9929 69.2607 11.919C69.2607 11.0937 69.38 10.358 69.6186 9.71165C69.8606 9.06203 70.1986 8.51184 70.6328 8.06108C71.067 7.61032 71.5724 7.26728 72.1491 7.03196C72.7259 6.79664 73.3506 6.67898 74.0234 6.67898C74.6001 6.67898 75.1371 6.76349 75.6342 6.93253C76.1314 7.09825 76.5722 7.33357 76.9567 7.63849C77.3445 7.94342 77.661 8.30634 77.9062 8.72727C78.1515 9.14489 78.3089 9.60559 78.3786 10.1094H76.1911ZM88.6064 6.81818V17H86.747L82.3173 10.5916H82.2427V17H80.09V6.81818H81.9792L86.3741 13.2216H86.4636V6.81818H88.6064Z" fill="#35A835"/>
</svg>
