<svg width="78" height="24" viewBox="0 0 78 24" fill="none" xmlns="http://www.w3.org/2000/svg">
<path fill-rule="evenodd" clip-rule="evenodd" d="M4.5 7C4.5 5.65329 4.83682 4.68381 5.42029 4.05545C5.99131 3.44051 6.9406 3 8.5 3H16.5C18.0594 3 19.0087 3.44051 19.5797 4.05545C20.1632 4.68381 20.5 5.65329 20.5 7V17C20.5 18.3467 20.1632 19.3162 19.5797 19.9445C19.0087 20.5595 18.0594 21 16.5 21H8.5C6.9406 21 5.99131 20.5595 5.42029 19.9445C4.83682 19.3162 4.5 18.3467 4.5 17V7ZM8.5 1C6.5594 1 5.00869 1.55949 3.95471 2.69455C2.91318 3.81619 2.5 5.34671 2.5 7V17C2.5 18.6533 2.91318 20.1838 3.95471 21.3055C5.00869 22.4405 6.5594 23 8.5 23H16.5C18.4406 23 19.9913 22.4405 21.0453 21.3055C22.0868 20.1838 22.5 18.6533 22.5 17V7C22.5 5.34671 22.0868 3.81619 21.0453 2.69455C19.9913 1.55949 18.4406 1 16.5 1H8.5ZM16 4.5C16 3.94772 15.5523 3.5 15 3.5C14.4477 3.5 14 3.94772 14 4.5V6.5C14 8.15228 15.3477 9.5 17 9.5H19C19.5523 9.5 20 9.05228 20 8.5C20 7.94772 19.5523 7.5 19 7.5H17C16.4523 7.5 16 7.04772 16 6.5V4.5ZM7.5 13C7.5 12.4477 7.94772 12 8.5 12H12.5C13.0523 12 13.5 12.4477 13.5 13C13.5 13.5523 13.0523 14 12.5 14H8.5C7.94772 14 7.5 13.5523 7.5 13ZM8.5 16C7.94772 16 7.5 16.4477 7.5 17C7.5 17.5523 7.94772 18 8.5 18H16.5C17.0523 18 17.5 17.5523 17.5 17C17.5 16.4477 17.0523 16 16.5 16H8.5Z" fill="#35A835"/>
<path d="M41.1564 17H37.5471V6.81818H41.1863C42.2104 6.81818 43.092 7.02202 43.8311 7.42969C44.5703 7.83404 45.1387 8.41572 45.5364 9.17472C45.9374 9.93371 46.138 10.8419 46.138 11.8991C46.138 12.9598 45.9374 13.8712 45.5364 14.6335C45.1387 15.3958 44.5669 15.9808 43.8212 16.3885C43.0788 16.7962 42.1905 17 41.1564 17ZM39.6998 15.1555H41.0669C41.7033 15.1555 42.2386 15.0429 42.6728 14.8175C43.1103 14.5888 43.4384 14.2358 43.6571 13.7585C43.8792 13.2779 43.9902 12.6581 43.9902 11.8991C43.9902 11.1468 43.8792 10.532 43.6571 10.0547C43.4384 9.57741 43.1119 9.22609 42.6777 9.00071C42.2435 8.77533 41.7083 8.66264 41.0719 8.66264H39.6998V15.1555ZM57.0891 11.9091C57.0891 13.0194 56.8787 13.964 56.4577 14.7429C56.0401 15.5218 55.4701 16.1167 54.7475 16.5277C54.0283 16.9354 53.2196 17.1392 52.3214 17.1392C51.4165 17.1392 50.6045 16.9337 49.8853 16.5227C49.1661 16.1117 48.5977 15.5168 48.18 14.7379C47.7624 13.959 47.5536 13.0161 47.5536 11.9091C47.5536 10.7988 47.7624 9.85417 48.18 9.07528C48.5977 8.2964 49.1661 7.70312 49.8853 7.29545C50.6045 6.88447 51.4165 6.67898 52.3214 6.67898C53.2196 6.67898 54.0283 6.88447 54.7475 7.29545C55.4701 7.70312 56.0401 8.2964 56.4577 9.07528C56.8787 9.85417 57.0891 10.7988 57.0891 11.9091ZM54.9066 11.9091C54.9066 11.1899 54.7989 10.5833 54.5835 10.0895C54.3713 9.59564 54.0714 9.22112 53.6836 8.96591C53.2958 8.7107 52.8417 8.5831 52.3214 8.5831C51.801 8.5831 51.3469 8.7107 50.9592 8.96591C50.5714 9.22112 50.2698 9.59564 50.0543 10.0895C49.8422 10.5833 49.7362 11.1899 49.7362 11.9091C49.7362 12.6283 49.8422 13.2348 50.0543 13.7287C50.2698 14.2225 50.5714 14.5971 50.9592 14.8523C51.3469 15.1075 51.801 15.2351 52.3214 15.2351C52.8417 15.2351 53.2958 15.1075 53.6836 14.8523C54.0714 14.5971 54.3713 14.2225 54.5835 13.7287C54.7989 13.2348 54.9066 12.6283 54.9066 11.9091ZM67.6674 10.3828H65.4899C65.4501 10.1011 65.3689 9.85085 65.2463 9.6321C65.1236 9.41004 64.9662 9.22112 64.774 9.06534C64.5817 8.90956 64.3597 8.79025 64.1078 8.70739C63.8592 8.62453 63.5891 8.5831 63.2974 8.5831C62.7704 8.5831 62.3114 8.71402 61.9203 8.97585C61.5292 9.23437 61.2259 9.61222 61.0105 10.1094C60.795 10.6032 60.6873 11.2031 60.6873 11.9091C60.6873 12.6349 60.795 13.2448 61.0105 13.7386C61.2292 14.2325 61.5342 14.6054 61.9252 14.8572C62.3163 15.1091 62.7688 15.2351 63.2825 15.2351C63.5708 15.2351 63.8377 15.197 64.0829 15.1207C64.3315 15.0445 64.5519 14.9335 64.7441 14.7876C64.9364 14.6385 65.0955 14.4579 65.2214 14.2457C65.3507 14.0336 65.4402 13.7917 65.4899 13.5199L67.6674 13.5298C67.6111 13.9972 67.4702 14.4479 67.2449 14.8821C67.0228 15.313 66.7228 15.6991 66.345 16.0405C65.9705 16.3786 65.523 16.647 65.0027 16.8459C64.4856 17.0414 63.9006 17.1392 63.2477 17.1392C62.3395 17.1392 61.5275 16.9337 60.8116 16.5227C60.099 16.1117 59.5356 15.5168 59.1213 14.7379C58.7103 13.959 58.5048 13.0161 58.5048 11.9091C58.5048 10.7988 58.7136 9.85417 59.1312 9.07528C59.5488 8.2964 60.1156 7.70312 60.8315 7.29545C61.5474 6.88447 62.3528 6.67898 63.2477 6.67898C63.8377 6.67898 64.3845 6.76184 64.8883 6.92756C65.3954 7.09328 65.8445 7.33523 66.2356 7.65341C66.6267 7.96828 66.9449 8.3544 67.1902 8.81179C67.4387 9.26918 67.5978 9.79285 67.6674 10.3828ZM74.7346 9.74645C74.6948 9.34541 74.5241 9.03385 74.2225 8.81179C73.9209 8.58972 73.5115 8.47869 72.9945 8.47869C72.6432 8.47869 72.3465 8.52841 72.1046 8.62784C71.8626 8.72396 71.677 8.85819 71.5478 9.03054C71.4218 9.20289 71.3588 9.39844 71.3588 9.61719C71.3522 9.79948 71.3903 9.95857 71.4732 10.0945C71.5594 10.2304 71.677 10.348 71.8262 10.4474C71.9753 10.5436 72.1477 10.6281 72.3432 10.701C72.5388 10.7706 72.7476 10.8303 72.9696 10.88L73.8844 11.0987C74.3285 11.1982 74.7362 11.3307 75.1074 11.4964C75.4786 11.6622 75.8001 11.866 76.0719 12.108C76.3437 12.3499 76.5542 12.6349 76.7033 12.9631C76.8558 13.2912 76.9337 13.6674 76.937 14.0916C76.9337 14.7147 76.7746 15.255 76.4597 15.7124C76.1481 16.1664 75.6974 16.5194 75.1074 16.7713C74.5208 17.0199 73.8132 17.1442 72.9846 17.1442C72.1626 17.1442 71.4467 17.0182 70.8368 16.7663C70.2303 16.5144 69.7563 16.1416 69.415 15.6477C69.0769 15.1506 68.8996 14.5357 68.883 13.8033H70.9661C70.9893 14.1446 71.0871 14.4297 71.2594 14.6584C71.4351 14.8838 71.6687 15.0545 71.9604 15.1705C72.2554 15.2831 72.5885 15.3395 72.9597 15.3395C73.3243 15.3395 73.6408 15.2865 73.9093 15.1804C74.181 15.0743 74.3915 14.9268 74.5407 14.7379C74.6898 14.549 74.7644 14.3319 74.7644 14.0866C74.7644 13.858 74.6964 13.6657 74.5605 13.5099C74.428 13.3542 74.2324 13.2216 73.9739 13.1122C73.7187 13.0028 73.4055 12.9034 73.0343 12.8139L71.9256 12.5355C71.0672 12.3267 70.3894 12.0002 69.8922 11.5561C69.3951 11.112 69.1481 10.5137 69.1515 9.76136C69.1481 9.14489 69.3122 8.6063 69.6436 8.1456C69.9784 7.6849 70.4374 7.32528 71.0208 7.06676C71.6041 6.80824 72.267 6.67898 73.0094 6.67898C73.7651 6.67898 74.4247 6.80824 74.9881 7.06676C75.5549 7.32528 75.9957 7.6849 76.3105 8.1456C76.6254 8.6063 76.7878 9.13991 76.7978 9.74645H74.7346Z" fill="#35A835"/>
</svg>
