<svg width="114" height="24" viewBox="0 0 114 24" fill="none" xmlns="http://www.w3.org/2000/svg">
<path fill-rule="evenodd" clip-rule="evenodd" d="M3.41789 2.91789C4.82218 1.5136 6.90137 1 9.5 1H15.5C18.0986 1 20.1778 1.5136 21.5821 2.91789C22.9864 4.32218 23.5 6.40137 23.5 9V15C23.5 17.5986 22.9864 19.6778 21.5821 21.0821C20.1778 22.4864 18.0986 23 15.5 23H9.5C6.90137 23 4.82218 22.4864 3.41789 21.0821C2.0136 19.6778 1.5 17.5986 1.5 15V9C1.5 6.40137 2.0136 4.32218 3.41789 2.91789ZM3.64088 7.00953L21.3576 7.00031C21.1558 5.75622 20.7457 4.90993 20.1679 4.33211C19.3222 3.4864 17.9014 3 15.5 3H9.5C7.09863 3 5.67782 3.4864 4.83211 4.33211C4.25286 4.91136 3.84217 5.7604 3.64088 7.00953ZM21.5 9.00023L3.5 9.0096V15C3.5 17.4014 3.9864 18.8222 4.83211 19.6679C5.67782 20.5136 7.09863 21 9.5 21H15.5C17.9014 21 19.3222 20.5136 20.1679 19.6679C21.0136 18.8222 21.5 17.4014 21.5 15V9.00023ZM9.94674 13.8944C10.4407 13.6474 10.6409 13.0468 10.394 12.5528C10.147 12.0588 9.5463 11.8586 9.05232 12.1056C8.23411 12.5147 7.55361 13.1223 7.04958 13.8722L7.04954 13.8721L7.04383 13.8808C6.59477 14.5642 6.59477 15.4358 7.04383 16.1192L7.04378 16.1192L7.04958 16.1278C7.55361 16.8777 8.23411 17.4853 9.05232 17.8944C9.5463 18.1414 10.147 17.9412 10.394 17.4472C10.6409 16.9532 10.4407 16.3526 9.94674 16.1056C9.44728 15.8558 9.02934 15.4857 8.71388 15.0187C8.71034 15.0129 8.70879 15.0088 8.70807 15.0064C8.70723 15.0036 8.70703 15.0015 8.70703 15C8.70703 14.9985 8.70723 14.9964 8.70807 14.9936C8.70879 14.9912 8.71034 14.9871 8.71388 14.9813C9.02934 14.5143 9.44728 14.1442 9.94674 13.8944ZM16.1582 12.1056C15.6642 11.8586 15.0635 12.0588 14.8165 12.5528C14.5695 13.0468 14.7697 13.6474 15.2637 13.8944C15.7632 14.1442 16.1811 14.5143 16.4966 14.9813C16.5001 14.9871 16.5017 14.9912 16.5024 14.9936C16.5032 14.9964 16.5034 14.9985 16.5034 15C16.5034 15.0015 16.5032 15.0036 16.5024 15.0064C16.5017 15.0088 16.5001 15.0129 16.4966 15.0187C16.1811 15.4857 15.7632 15.8558 15.2637 16.1056C14.7697 16.3526 14.5695 16.9532 14.8165 17.4472C15.0635 17.9412 15.6642 18.1414 16.1582 17.8944C16.9764 17.4853 17.6569 16.8777 18.1609 16.1278L18.1609 16.1279L18.1666 16.1192C18.6157 15.4358 18.6157 14.5642 18.1666 13.8808L18.1667 13.8808L18.1609 13.8722C17.6569 13.1223 16.9764 12.5147 16.1582 12.1056Z" fill="#35A835"/>
<path d="M37.7678 17V6.81818H44.6286V8.59304H39.9205V11.0192H44.2756V12.794H39.9205V15.2251H44.6484V17H37.7678ZM48.3585 6.81818L50.4118 10.2884H50.4913L52.5545 6.81818H54.9856L51.8784 11.9091L55.0552 17H52.5794L50.4913 13.5249H50.4118L48.3237 17H45.8578L49.0446 11.9091L45.9174 6.81818H48.3585ZM58.1028 17H55.796L59.3109 6.81818H62.085L65.595 17H63.2882L60.7377 9.14489H60.6582L58.1028 17ZM57.9586 12.9979H63.4075V14.6783H57.9586V12.9979ZM66.8205 6.81818H69.4753L72.2793 13.6591H72.3986L75.2026 6.81818H77.8574V17H75.7694V10.3729H75.6848L73.0499 16.9503H71.628L68.9931 10.348H68.9086V17H66.8205V6.81818ZM79.631 17V6.81818H83.6481C84.4203 6.81818 85.0782 6.96567 85.6218 7.26065C86.1654 7.55232 86.5797 7.95833 86.8647 8.47869C87.1531 8.99574 87.2972 9.59233 87.2972 10.2685C87.2972 10.9446 87.1514 11.5412 86.8597 12.0582C86.5681 12.5753 86.1455 12.978 85.592 13.2663C85.0418 13.5547 84.3756 13.6989 83.5934 13.6989H81.033V11.9737H83.2454C83.6597 11.9737 84.0011 11.9025 84.2695 11.7599C84.5413 11.6141 84.7435 11.4136 84.8761 11.1584C85.012 10.8999 85.0799 10.6032 85.0799 10.2685C85.0799 9.9304 85.012 9.63542 84.8761 9.38352C84.7435 9.12831 84.5413 8.93111 84.2695 8.7919C83.9978 8.64938 83.6531 8.57812 83.2354 8.57812H81.7837V17H79.631ZM88.6955 17V6.81818H90.8482V15.2251H95.2132V17H88.6955ZM96.6388 17V6.81818H103.5V8.59304H98.7915V11.0192H103.147V12.794H98.7915V15.2251H103.52V17H96.6388ZM110.735 9.74645C110.695 9.34541 110.524 9.03385 110.222 8.81179C109.921 8.58972 109.512 8.47869 108.994 8.47869C108.643 8.47869 108.347 8.52841 108.105 8.62784C107.863 8.72396 107.677 8.85819 107.548 9.03054C107.422 9.20289 107.359 9.39844 107.359 9.61719C107.352 9.79948 107.39 9.95857 107.473 10.0945C107.559 10.2304 107.677 10.348 107.826 10.4474C107.975 10.5436 108.148 10.6281 108.343 10.701C108.539 10.7706 108.748 10.8303 108.97 10.88L109.884 11.0987C110.329 11.1982 110.736 11.3307 111.107 11.4964C111.479 11.6622 111.8 11.866 112.072 12.108C112.344 12.3499 112.554 12.6349 112.703 12.9631C112.856 13.2912 112.934 13.6674 112.937 14.0916C112.934 14.7147 112.775 15.255 112.46 15.7124C112.148 16.1664 111.697 16.5194 111.107 16.7713C110.521 17.0199 109.813 17.1442 108.985 17.1442C108.163 17.1442 107.447 17.0182 106.837 16.7663C106.23 16.5144 105.756 16.1416 105.415 15.6477C105.077 15.1506 104.9 14.5357 104.883 13.8033H106.966C106.989 14.1446 107.087 14.4297 107.259 14.6584C107.435 14.8838 107.669 15.0545 107.96 15.1705C108.255 15.2831 108.588 15.3395 108.96 15.3395C109.324 15.3395 109.641 15.2865 109.909 15.1804C110.181 15.0743 110.392 14.9268 110.541 14.7379C110.69 14.549 110.764 14.3319 110.764 14.0866C110.764 13.858 110.696 13.6657 110.561 13.5099C110.428 13.3542 110.232 13.2216 109.974 13.1122C109.719 13.0028 109.405 12.9034 109.034 12.8139L107.926 12.5355C107.067 12.3267 106.389 12.0002 105.892 11.5561C105.395 11.112 105.148 10.5137 105.151 9.76136C105.148 9.14489 105.312 8.6063 105.644 8.1456C105.978 7.6849 106.437 7.32528 107.021 7.06676C107.604 6.80824 108.267 6.67898 109.009 6.67898C109.765 6.67898 110.425 6.80824 110.988 7.06676C111.555 7.32528 111.996 7.6849 112.311 8.1456C112.625 8.6063 112.788 9.13991 112.798 9.74645H110.735Z" fill="#35A835"/>
</svg>
