<svg width="65" height="24" viewBox="0 0 65 24" fill="none" xmlns="http://www.w3.org/2000/svg">
<path fill-rule="evenodd" clip-rule="evenodd" d="M12.5 3C7.52944 3 3.5 7.02944 3.5 12C3.5 16.9706 7.52944 21 12.5 21C17.4706 21 21.5 16.9706 21.5 12C21.5 7.02944 17.4706 3 12.5 3ZM1.5 12C1.5 5.92487 6.42487 1 12.5 1C18.5751 1 23.5 5.92487 23.5 12C23.5 18.0751 18.5751 23 12.5 23C6.42487 23 1.5 18.0751 1.5 12ZM12.7582 8.02431C12.2927 7.94446 11.814 8.03194 11.4068 8.27126C10.9996 8.51057 10.6902 8.88628 10.5335 9.33184C10.3502 9.85283 9.77926 10.1266 9.25827 9.94333C8.73728 9.76005 8.46351 9.18914 8.64678 8.66815C8.96025 7.77704 9.57898 7.02562 10.3934 6.54699C11.2078 6.06836 12.1653 5.8934 13.0963 6.0531C14.0274 6.2128 14.8719 6.69685 15.4802 7.41952C16.0884 8.14204 16.4214 9.05647 16.4201 10.0009C16.4197 11.5313 15.2851 12.5419 14.4748 13.082C14.0392 13.3725 13.6107 13.586 13.295 13.7263C13.1358 13.7971 13.0016 13.8508 12.905 13.8876C12.8566 13.906 12.8174 13.9203 12.7888 13.9305L12.7541 13.9427L12.743 13.9464L12.7391 13.9477L12.7376 13.9483C12.7373 13.9484 12.7363 13.9487 12.4201 13L12.7363 13.9487C12.2124 14.1233 11.6461 13.8402 11.4714 13.3162C11.2969 12.7926 11.5796 12.2267 12.1028 12.0517L12.1188 12.0461C12.1342 12.0406 12.1594 12.0314 12.193 12.0186C12.2605 11.9929 12.3607 11.9529 12.4827 11.8987C12.7296 11.789 13.051 11.6275 13.3654 11.4179C14.055 10.9582 14.4201 10.4691 14.4201 9.99999L14.4201 9.9985C14.4208 9.52618 14.2543 9.06886 13.9502 8.70752C13.646 8.34618 13.2238 8.10416 12.7582 8.02431ZM12.5 16C11.9477 16 11.5 16.4477 11.5 17C11.5 17.5523 11.9477 18 12.5 18H12.51C13.0623 18 13.51 17.5523 13.51 17C13.51 16.4477 13.0623 16 12.51 16H12.5Z" fill="#35A835"/>
<path d="M37.5217 17V6.81818H44.2631V8.59304H39.6744V11.0192H43.8157V12.794H39.6744V17H37.5217ZM46.1946 17H43.8878L47.4027 6.81818H50.1768L53.6868 17H51.38L48.8295 9.14489H48.75L46.1946 17ZM46.0504 12.9979H51.4993V14.6783H46.0504V12.9979ZM58.2768 13.4602H60.1064L61.0261 14.6435L61.9309 15.6974L63.6362 17.8352H61.6277L60.4544 16.3935L59.8528 15.5384L58.2768 13.4602ZM63.7903 11.9091C63.7903 13.0194 63.5798 13.964 63.1589 14.7429C62.7413 15.5218 62.1712 16.1167 61.4487 16.5277C60.7295 16.9354 59.9208 17.1392 59.0225 17.1392C58.1177 17.1392 57.3057 16.9337 56.5865 16.5227C55.8672 16.1117 55.2988 15.5168 54.8812 14.7379C54.4636 13.959 54.2548 13.0161 54.2548 11.9091C54.2548 10.7988 54.4636 9.85417 54.8812 9.07528C55.2988 8.2964 55.8672 7.70312 56.5865 7.29545C57.3057 6.88447 58.1177 6.67898 59.0225 6.67898C59.9208 6.67898 60.7295 6.88447 61.4487 7.29545C62.1712 7.70312 62.7413 8.2964 63.1589 9.07528C63.5798 9.85417 63.7903 10.7988 63.7903 11.9091ZM61.6078 11.9091C61.6078 11.1899 61.5001 10.5833 61.2846 10.0895C61.0725 9.59564 60.7725 9.22112 60.3848 8.96591C59.997 8.7107 59.5429 8.5831 59.0225 8.5831C58.5022 8.5831 58.0481 8.7107 57.6603 8.96591C57.2725 9.22112 56.9709 9.59564 56.7555 10.0895C56.5434 10.5833 56.4373 11.1899 56.4373 11.9091C56.4373 12.6283 56.5434 13.2348 56.7555 13.7287C56.9709 14.2225 57.2725 14.5971 57.6603 14.8523C58.0481 15.1075 58.5022 15.2351 59.0225 15.2351C59.5429 15.2351 59.997 15.1075 60.3848 14.8523C60.7725 14.5971 61.0725 14.2225 61.2846 13.7287C61.5001 13.2348 61.6078 12.6283 61.6078 11.9091Z" fill="#35A835"/>
</svg>
