<?xml version="1.0" encoding="UTF-8" standalone="no"?>
<!-- Created with Inkscape (http://www.inkscape.org/) -->

<svg
   version="1.1"
   id="svg14692"
   width="925"
   height="848"
   viewBox="0 0 925 848"
   sodipodi:docname="graph.svg"
   inkscape:version="1.2 (56b05e47e7, 2022-06-09, custom)"
   xml:space="preserve"
   inkscape:export-filename="../25541801/graph.png"
   inkscape:export-xdpi="96"
   inkscape:export-ydpi="96"
   xmlns:inkscape="http://www.inkscape.org/namespaces/inkscape"
   xmlns:sodipodi="http://sodipodi.sourceforge.net/DTD/sodipodi-0.dtd"
   xmlns="http://www.w3.org/2000/svg"
   xmlns:svg="http://www.w3.org/2000/svg"><defs
     id="defs14696" /><sodipodi:namedview
     id="namedview14694"
     pagecolor="#ffffff"
     bordercolor="#666666"
     borderopacity="1.0"
     inkscape:showpageshadow="2"
     inkscape:pageopacity="0.0"
     inkscape:pagecheckerboard="0"
     inkscape:deskcolor="#d1d1d1"
     showgrid="false"
     inkscape:zoom="0.33748684"
     inkscape:cx="482.98179"
     inkscape:cy="591.13415"
     inkscape:window-width="1846"
     inkscape:window-height="1016"
     inkscape:window-x="1994"
     inkscape:window-y="27"
     inkscape:window-maximized="1"
     inkscape:current-layer="g14698"
     showguides="false" /><g
     inkscape:groupmode="layer"
     inkscape:label="Image"
     id="g14698"><path
       style="fill:#000000"
       d="m 446.11677,838.51025 c -17.53827,-3.7785 -27.58396,-9.3043 -40.67937,-22.3766 -10.73798,-10.7189 -16.2,-19.8001 -20.18315,-33.5566 -1.97447,-6.8191 -2.3,-10.2147 -2.3,-23.9915 v -16.0481 l -24,-9.8419 c -13.2,-5.413 -26.475,-10.8809 -29.5,-12.1509 -3.025,-1.27 -26.875,-11.0758 -53,-21.7907 -26.125,-10.7149 -65.5,-26.8889 -87.5,-35.9422 l -40,-16.4605 -6.5,6.4591 c -14.72867,14.6357 -30.89003,21.7098 -52.500004,22.9799 -16.349811,0.961 -33.217531,-3.1242 -46.869401,-11.3513 -7.66694,-4.6204 -22.02252,-19.0545 -26.55388,-26.6991 -13.1563797,-22.19537 -14.4490997,-53.20322 -3.21007,-76.99858 7.24353,-15.33606 18.5983,-27.33664 33.63335,-35.5463 8.57004,-4.67953 15.12502,-6.86075 25.25093,-8.40245 9.15185,-1.39338 28.108265,-0.49587 36.022145,1.70552 l 5.27308,1.4668 5.26986,-7.16558 c 4.61459,-6.27458 60.65168,-85.34872 63.12234,-89.07217 0.69776,-1.05156 -7.8525,-13.68061 -33.34631,-49.25378 -18.85657,-26.31179 -34.80383,-47.77984 -35.43836,-47.70679 -0.63452,0.0731 -4.94565,0.91742 -9.58027,1.87636 -13.307144,2.75333 -30.759125,1.76925 -42.869475,-2.41732 -5.11283,-1.76752 -10.96283,-4.17391 -13,-5.34753 -11.38426,-6.55855 -23.98106,-18.9043 -30.47953,-29.87209 -14.4496997,-24.3875 -13.6098797,-61.12709 1.93253,-84.54273 10.94951,-16.49612 27.82243,-28.86897 46.14981,-33.84146 8.32131,-2.25769 25.577791,-3.01954 34.884335,-1.54009 10.05616,1.59861 23.19733,6.53215 30.80892,11.56647 3.3,2.18263 9.24426,7.22011 13.20946,11.19442 l 7.20945,7.226 31.29055,-13.34853 c 26.92516,-11.48627 163.76521,-70.34683 191.8247,-82.51174 l 9.53417,-4.13344 -0.39063,-9.725376 c -0.68089,-16.95221 3.70371,-33.56922 12.33524,-46.74884 5.00962,-7.649274 16.30312,-18.941114 23.98706,-23.983534 13.16813,-8.6413 31.90237,-13.2955799 48.91886,-12.1532299 29.5132,1.9812599 53.601,17.7038199 66.13847,43.1698339 5.47248,11.11565 7.37954,18.25785 8.14391,30.5 l 0.59315,9.5 8.19612,8.499996 c 13.29921,13.7923 241.62273,251.32705 243.5316,253.35637 1.69645,1.80349 1.92753,1.77032 8.11204,-1.16457 33.57588,-15.93361 74.97755,-7.01677 97.89175,21.08329 7.369,9.03671 13.646,22.26941 15.9976,33.72491 6.6501,32.39424 -5.2094,64.47346 -30.5097,82.5274 -14.8384,10.58849 -28.367,14.79817 -47.5138,14.78485 -13.7671,-0.01 -21.9328,-1.52983 -32.87632,-6.12077 l -6.62368,-2.77871 -110,113.31733 c -163.46326,168.39286 -147.5,151.47976 -147.5,156.27656 0,5.7868 -2.7491,18.4813 -5.47289,25.2721 -3.49123,8.7041 -8.32435,16.1932 -15.41519,23.8865 -15.53288,16.8524 -33.00111,24.6724 -56.61192,25.3434 -8.0156,0.2277 -14.27027,-0.1481 -18.83748,-1.1321 z m 177.32101,-184.8766 c 27.13902,-28.04996 56.59465,-58.42496 65.45694,-67.49996 8.8623,-9.075 26.90118,-27.72877 40.0864,-41.45281 13.18522,-13.72405 31.17313,-32.31061 39.97313,-41.30348 8.8,-8.99286 16.17698,-16.85754 16.39329,-17.47706 0.21631,-0.61952 -0.72907,-2.05796 -2.10084,-3.19653 -2.53169,-2.10129 -10.88977,-12.13471 -12.48897,-14.99232 -0.76654,-1.36973 -2.1712,-1.11616 -11.3392,2.04691 -20.02959,6.91044 -92.50119,31.60373 -97.96428,33.37942 -3.025,0.98322 -24.85,8.40537 -48.5,16.49366 -23.65,8.0883 -48.9111,16.70734 -56.13578,19.15344 l -13.13578,4.44746 -1.09674,7.37396 c -2.57883,17.33888 -10.534,32.01095 -24.54956,45.27784 -9.46581,8.96018 -19.59982,14.60644 -33.08214,18.43203 -11.35394,3.22167 -31.48991,3.2096 -42.91526,-0.0257 -30.18645,-8.54789 -51.63713,-31.79286 -57.15108,-61.93163 -0.92475,-5.05457 -1.96313,-9.03422 -2.30751,-8.84366 -0.34438,0.19056 -17.72615,4.27721 -38.62615,9.08143 -20.9,4.80423 -38.55826,8.89968 -39.24057,9.101 -1.30998,0.38652 -0.58404,1.42672 60.66717,86.9292 20.48542,28.5963 37.60576,52.6357 38.04519,53.4209 0.6228,1.1129 2.28796,0.1918 7.5521,-4.1777 7.49577,-6.2218 15.56857,-10.8437 24.0164,-13.7502 7.809,-2.6867 25.92293,-5.2285 31.95971,-4.4848 10.83051,1.3345 12.58473,1.6289 18.19228,3.0534 22.72018,5.7716 45.85303,27.4218 52.8313,49.4452 0.9585,3.025 1.89241,5.7697 2.07537,6.0992 0.42019,0.7569 21.11707,-20.2415 83.38458,-84.5992 z m -232.4649,68.4633 2.55233,-5.0368 -15.38374,-21.7132 c -8.46106,-11.9423 -22.76453,-31.9972 -31.78548,-44.5664 -37.60646,-52.3985 -58.46146,-81.58551 -59.40174,-83.13401 -0.90564,-1.49146 -3.26467,-1.11946 -25,3.94225 -13.2,3.074 -39.975,9.26614 -59.5,13.76029 -19.525,4.49416 -35.57092,8.19671 -35.65761,8.2279 -0.0867,0.0312 -0.68467,4.55671 -1.32887,10.05671 -0.64419,5.5 -2.54712,14.17615 -4.22873,19.28033 -1.68161,5.10417 -2.88362,9.4024 -2.67113,9.55161 0.21249,0.14921 20.86134,8.66242 45.88634,18.91822 113.6143,46.5618 181.10081,74.3432 183.73315,75.6354 0.12824,0.063 1.3817,-2.1521 2.78548,-4.9223 z M 189.99882,571.57387 c 13.17549,-3.05791 30.70543,-7.13329 38.95543,-9.05641 8.25,-1.92312 21.975,-5.0867 30.5,-7.03019 8.525,-1.94348 15.57648,-3.60708 15.66996,-3.69688 0.23974,-0.23032 -39.51356,-55.8917 -40.97892,-57.37746 -0.94419,-0.95735 -4.67861,1.52416 -17.30634,11.5 -8.85628,6.99642 -17.59914,13.84576 -19.42858,15.22076 -3.28958,2.47244 -13.28233,10.3271 -32.20612,25.31516 -5.3625,4.24722 -9.75,7.8984 -9.75,8.11374 0,0.21534 1.32309,3.18921 2.94021,6.60859 1.61712,3.41939 3.50219,8.4098 4.18905,11.08979 0.68686,2.68 1.74632,4.87272 2.35436,4.87272 0.60804,0 11.88546,-2.50192 25.06095,-5.55982 z m 149.89755,-34.71726 43.94211,-10.23358 1.20736,-6.49467 c 0.66404,-3.57207 2.17059,-8.96967 3.34787,-11.99467 l 2.14052,-5.5 -3.78999,-3.21346 c -2.08449,-1.76741 -20.8138,-16.97987 -41.62068,-33.80548 -25.79866,-20.86224 -38.20259,-30.3018 -39,-29.67953 -0.64312,0.50186 -5.70811,4.46432 -11.25554,8.80547 -5.54743,4.34115 -11.57279,9.018 -13.3897,10.393 -4.86579,3.68235 -33.40101,26.0704 -34.2624,26.88147 -0.40609,0.38236 7.24391,11.80354 17,25.3804 9.75608,13.57687 20.12498,28.07212 23.04199,32.21167 3.09062,4.38592 6.01149,7.51739 7,7.50471 0.93299,-0.012 21.47029,-4.62686 45.63846,-10.25533 z M 192.45425,503.74864 c 16.775,-13.18558 30.63881,-24.06935 30.80847,-24.18617 0.16966,-0.11681 -6.5189,-9.75001 -14.86347,-21.40711 -8.34457,-11.6571 -15.50955,-20.81829 -15.92217,-20.3582 -0.41262,0.46009 -4.497,6.23653 -9.07639,12.83653 -4.5794,6.6 -14.44094,20.55 -21.91453,31 -7.47359,10.45 -17.80242,25.01328 -22.95295,32.36285 l -9.36461,13.36284 3.39282,2.6153 c 1.86606,1.43842 5.39656,4.48736 7.84556,6.77544 l 4.45273,4.16014 8.54727,-6.59392 c 4.701,-3.62666 22.27227,-17.38212 39.04727,-30.5677 z m 419,-0.93466 c 26.675,-9.08501 67.175,-22.89709 90,-30.69352 22.825,-7.79643 45.55,-15.52919 50.5,-17.18393 4.95,-1.65473 9.368,-3.35281 9.81777,-3.7735 0.44978,-0.42068 0.11228,-4.18042 -0.75,-8.35495 -1.77647,-8.60046 -2.06358,-25.78704 -0.56296,-33.69976 0.55265,-2.91409 0.79999,-5.50316 0.54965,-5.7535 -0.5558,-0.55581 -220.62559,-73.22113 -221.75307,-73.22113 -0.44076,0 -0.80139,0.88704 -0.80139,1.97121 0,3.40505 -5.7071,17.785 -9.60535,24.20222 -5.11478,8.41983 -14.93726,18.58266 -23.53675,24.35229 -24.63688,16.52955 -59.10923,17.76725 -85.22881,3.06006 -6.65617,-3.74789 -15.78742,-11.17089 -20.0973,-16.33753 l -2.71253,-3.25176 -3.15963,2.53805 c -1.7378,1.39592 -14.18463,11.17088 -27.65963,21.72213 -36.97245,28.95033 -44.47126,34.94183 -44.80709,35.80059 -0.1689,0.4319 6.30193,6.1082 14.37962,12.614 8.07768,6.50581 25.40983,20.49124 38.51588,31.07874 13.10606,10.5875 24.18523,19.24528 24.62039,19.23952 0.43516,-0.006 2.8162,-2.29415 5.2912,-5.08531 9.50332,-10.71726 23.54497,-19.07975 38.42854,-22.88607 11.19903,-2.86404 29.21123,-2.89119 41.12366,-0.062 27.9262,6.63246 51.91305,31.07519 57.45196,58.54385 0.66542,3.3 1.36408,6.54034 1.55257,7.20076 0.23949,0.8391 3.29451,0.19131 10.14299,-2.15075 5.39015,-1.84333 31.62528,-10.7847 58.30028,-19.86971 z M 262.97045,448.3688 c 13.7589,-10.85431 26.35595,-20.78604 27.99343,-22.07052 2.91557,-2.28703 2.93595,-2.36559 0.98381,-3.79255 -4.8535,-3.54774 -8.38415,-6.3223 -16.41392,-12.89884 -4.71874,-3.86474 -15.65522,-12.75009 -24.30329,-19.74523 l -15.72377,-12.71843 -12.20655,17.24523 c -6.71361,9.48488 -13.92865,19.68551 -16.03344,22.66808 -3.28285,4.65195 -3.64815,5.68013 -2.56967,7.23261 12.2085,17.57428 31.49506,43.74866 32.2572,43.77724 0.55,0.0206 12.25729,-8.84328 26.0162,-19.69759 z m 56.08742,-43.98511 c 42.03028,-33.15846 61.29712,-48.28644 65.59836,-51.50667 l 3.68206,-2.75667 -2.37715,-5.37517 c -2.5257,-5.71104 -5.50689,-18.48746 -5.50689,-23.60072 0,-1.69045 -0.5625,-3.2497 -1.25,-3.46501 -2.7475,-0.86045 -87.169,-20.45385 -87.28089,-20.25704 -0.13592,0.23907 -25.5577,36.15567 -38.16216,53.91656 -4.56882,6.43791 -8.30695,11.91585 -8.30695,12.1732 0,0.25736 4.1625,3.73914 9.25,7.73731 5.0875,3.99816 18.83551,15.05772 30.55113,24.5768 11.71562,9.51907 21.61842,17.30741 22.00624,17.30741 0.38781,0 5.69612,-3.9375 11.79625,-8.75 z m -112.10362,-15.7893 c 7.15,-10.13673 13.56686,-19.26113 14.25969,-20.27646 1.13074,-1.65705 0.36293,-2.55428 -7.5,-8.76423 -4.81783,-3.80501 -9.43469,-7.4632 -10.25969,-8.12932 -0.825,-0.66612 -14.06581,-11.36889 -29.42401,-23.78394 l -27.92402,-22.57281 -4.05171,3.78303 c -2.22845,2.08067 -4.28764,4.02971 -4.57599,4.33121 -0.28835,0.3015 -2.09927,1.61827 -4.02427,2.92616 -1.925,1.30789 -3.63428,2.47049 -3.7984,2.58356 -0.16413,0.11307 9.45989,13.87129 21.38671,30.57384 31.32221,43.86423 41.56924,57.87543 42.28192,57.81381 0.34637,-0.0299 6.47977,-8.34813 13.62977,-18.48485 z m 563.49956,-5.95993 c 1.73049,-3.02458 5.36352,-7.92518 8.07339,-10.89021 2.70988,-2.96504 4.92705,-5.71729 4.92705,-6.1161 0,-0.39882 -11.5875,-12.721 -25.75,-27.38261 -14.1625,-14.66161 -34.12323,-35.42221 -44.35718,-46.13466 -67.89305,-71.06752 -172.17158,-178.97719 -172.95464,-178.97719 -0.516,0 -0.93818,0.84789 -0.93818,1.8842 0,3.23922 -7.68481,17.32912 -13.04205,23.91227 -10.19327,12.52581 -25.43201,22.61196 -40.45795,26.77813 -3.39037,0.94003 -11.49397,1.87908 -18.63163,2.15905 -14.74915,0.57852 -25.04314,-1.09148 -36.75757,-5.96321 -7.59454,-3.15837 -21.06871,-12.55484 -25.42219,-17.72865 l -2.45434,-2.91683 -9.34542,13.18752 c -5.13998,7.25314 -18.76362,26.46252 -30.27475,42.68752 -11.51113,16.225 -27.45841,38.725 -35.43839,50 -7.97998,11.275 -16.89938,23.84717 -19.82089,27.93816 -2.9215,4.09099 -5.20046,7.54953 -5.06434,7.68565 0.33869,0.33869 76.73758,18.37619 77.83344,18.37619 0.48184,0 0.87608,-1.08442 0.87608,-2.40982 0,-1.32541 1.36133,-6.61291 3.02519,-11.75 6.35103,-19.60866 23.32884,-38.2997 42.47481,-46.76097 14.2062,-6.2782 38.27471,-8.10106 53.96819,-4.08734 28.98122,7.41214 51.59917,30.99399 57.55533,60.00813 1.07261,5.225 1.95612,11.12704 1.96334,13.11565 l 0.0131,3.61566 70.75,23.36786 c 56.84253,18.7744 155.1059,51.42913 155.92661,51.8173 0.0971,0.0459 1.59246,-2.39113 3.32295,-5.4157 z M 251.37116,325.68047 c 9.02931,-12.67573 17.90928,-25.16896 19.73329,-27.76274 l 3.31636,-4.71596 -3.73328,-0.97678 c -2.0533,-0.53723 -25.9728,-6.22123 -53.15444,-12.63111 -27.18163,-6.40987 -49.96678,-11.86369 -50.63366,-12.1196 -0.77702,-0.29817 -2.00747,2.15197 -3.4259,6.82184 -1.21737,4.00792 -3.29472,9.42101 -4.61634,12.0291 -1.32162,2.60809 -2.40294,4.96897 -2.40294,5.2464 0,0.27743 9.7875,8.36342 21.75,17.96888 11.9625,9.60545 28.95,23.31424 37.75,30.46397 15.70121,12.75675 16.02801,12.95958 17.5,10.86115 0.825,-1.1761 8.88761,-12.50942 17.91691,-25.18515 z m 47.11971,-66.54413 c 7.40486,-10.44854 21.19599,-29.91104 30.64696,-43.25 24.62797,-34.75957 23.26519,-32.83928 43.46932,-61.25265 10.16841,-14.3 18.80223,-26.53314 19.18626,-27.18476 0.38403,-0.65162 -0.26909,-3.17581 -1.45137,-5.6093 l -2.1496,-4.42454 -40.6191,17.4607 c -105.1117,45.18376 -149.78174,64.40036 -151.61909,65.225 -1.1,0.4937 -3.575,1.56452 -5.5,2.37959 -19.92314,8.43576 -30,13.05537 -30,13.75315 0,0.4611 1.12147,4.2739 2.49216,8.47288 1.37068,4.19898 2.98943,11.75038 3.5972,16.78089 0.60778,5.03052 1.20666,9.25423 1.33083,9.38604 0.12418,0.13181 11.89294,3.00572 26.15279,6.38648 14.25986,3.38075 39.65202,9.42021 56.42702,13.42102 16.775,4.00081 31.41648,7.31439 32.53662,7.36352 1.54442,0.0677 5.29034,-4.50181 15.5,-18.90802 z"
       id="path14819" /><circle
       style="fill:#c896c8;fill-opacity:1;stroke-width:4.11201;stroke-dasharray:24.6721, 24.6721"
       id="path14894"
       cx="86.582214"
       cy="249.78812"
       r="81.269485" /><circle
       style="fill:#c896c8;fill-opacity:1;stroke-width:4.11201;stroke-dasharray:24.6721, 24.6721"
       id="path14894-6"
       cx="462.71497"
       cy="760.25446"
       r="81.269485" /><circle
       style="fill:#3296c8;fill-opacity:1;stroke-width:4.11201;stroke-dasharray:24.6721, 24.6721"
       id="path14894-6-9"
       cx="463.08185"
       cy="88.561104"
       r="81.269485" /><circle
       style="fill:#64c896;fill-opacity:1;stroke-width:4.11201;stroke-dasharray:24.6721, 24.6721"
       id="path14894-6-9-7"
       cx="460.39713"
       cy="313.65518"
       r="81.269485" /><circle
       style="fill:#ff964b;fill-opacity:1;stroke-width:4.11201;stroke-dasharray:24.6721, 24.6721"
       id="path14894-6-9-7-4"
       cx="838.72607"
       cy="424.81894"
       r="81.269485" /><circle
       style="fill:#ff964b;fill-opacity:1;stroke-width:4.11201;stroke-dasharray:24.6721, 24.6721"
       id="path14894-6-9-7-4-5"
       cx="85.983376"
       cy="595.96759"
       r="81.269485" /><circle
       style="fill:#3296c8;fill-opacity:1;stroke-width:4.11201;stroke-dasharray:24.6721, 24.6721"
       id="path14894-6-9-3"
       cx="463.46985"
       cy="536.84119"
       r="81.269485" /></g></svg>
