<?xml version="1.0" encoding="utf-8"?>
<!-- Generator: Adobe Illustrator 27.8.0, SVG Export Plug-In . SVG Version: 6.00 Build 0)  -->
<svg version="1.1"
	 id="svg186" xmlns:inkscape="http://www.inkscape.org/namespaces/inkscape" xmlns:svg="http://www.w3.org/2000/svg" xmlns:sodipodi="http://sodipodi.sourceforge.net/DTD/sodipodi-0.dtd"
	 xmlns="http://www.w3.org/2000/svg" xmlns:xlink="http://www.w3.org/1999/xlink" x="0px" y="0px" viewBox="0 0 202 44"
	 style="enable-background:new 0 0 202 44;" xml:space="preserve">
<style type="text/css">
	.st0{fill:#E9E9EA;}
	.st1{fill:#00B828;}
</style>
<g>
	<path class="st0" d="M51,7h5.6v5.2H51V7z M51,15h5.6v20.6H51V15z"/>
	<polygon class="st0" points="74.7,15 80.5,15 72.3,35.6 67.1,35.6 58.7,15 64.7,15 69.7,28.8 	"/>
	<path class="st0" d="M98.3,15h5.9l-9,20.4c-0.9,1.9-1.7,3.5-2.5,4.5c-0.8,1.1-1.8,1.9-2.8,2.4c-1.1,0.5-2.4,0.8-3.9,0.8h-2.3v-5
		h1.9c1.3,0,2.3-0.2,2.8-0.7c0.6-0.5,1.2-1.5,1.8-3.1l0.1-0.2L81.6,15h6.1l5.5,12.7L98.3,15z"/>
	<path class="st1" d="M26.4,5.8c-6.6,0-11.9,5.4-11.9,11.9c0,5.3,4.3,9.6,9.6,9.6c4,0,7.2-3.2,7.2-7.2c0-2.7-2.2-4.9-4.9-4.9
		c-2,0-3.7,1.6-3.7,3.7c0,1.4,1.1,2.5,2.5,2.5c0.2,0,0.4,0,0.7-0.1c-0.4,0.6-1.1,1-1.8,1c-2.5,0-4.6-2-4.6-4.6
		c0-3.8,3.1-6.9,6.9-6.9c5.1,0,9.3,4.2,9.3,9.3c0,6.4-5.2,11.7-11.7,11.7c-7.7,0-14-6.3-14-14c0-1,0.1-1.9,0.2-2.8H5.2
		C5.1,15.9,5,16.9,5,17.8c0,10.5,8.5,19,19,19c9.2,0,16.7-7.5,16.7-16.7C40.7,12.3,34.3,5.8,26.4,5.8"/>
</g>
</svg>
