<?xml version="1.0" encoding="UTF-8" standalone="no"?>
<svg
   width="202"
   height="44"
   viewBox="0 0 202 44"
   fill="none"
   version="1.1"
   id="svg186"
   sodipodi:docname="logo_all_of_ai.svg"
   inkscape:version="1.2 (dc2aeda, 2022-05-15)"
   xmlns:inkscape="http://www.inkscape.org/namespaces/inkscape"
   xmlns:sodipodi="http://sodipodi.sourceforge.net/DTD/sodipodi-0.dtd"
   xmlns="http://www.w3.org/2000/svg"
   xmlns:svg="http://www.w3.org/2000/svg">
  <defs
     id="defs190" />
  <sodipodi:namedview
     id="namedview188"
     pagecolor="#ffffff"
     bordercolor="#000000"
     borderopacity="0.25"
     inkscape:showpageshadow="2"
     inkscape:pageopacity="0.0"
     inkscape:pagecheckerboard="0"
     inkscape:deskcolor="#d1d1d1"
     showgrid="false"
     inkscape:zoom="14.605241"
     inkscape:cx="53.782064"
     inkscape:cy="23.690126"
     inkscape:window-width="1728"
     inkscape:window-height="1080"
     inkscape:window-x="0"
     inkscape:window-y="37"
     inkscape:window-maximized="0"
     inkscape:current-layer="svg186" />
  <path
     d="M47.28 30H49.392V12.96H47.28V30ZM64.9277 12.96L59.8397 27H59.7917L54.7037 12.96H52.4477L58.8797 30H60.7517L67.1837 12.96H64.9277ZM79.8671 12.96L75.4751 20.304H75.4271L71.0111 12.96H68.6111L74.3951 22.392V30H76.4831V22.392L82.2911 12.96H79.8671Z"
     fill="#0A0C13"
     id="path178" />
  <path
     d="M21.5766 24.2481C20.4069 23.2107 22.3979 22.1595 23.3008 22.3039C25.7477 22.6952 26.3214 25.7649 25.465 27.6965C23.9332 31.1515 19.4568 31.814 16.4041 30.0807C11.924 27.537 11.1596 21.4917 13.7998 17.3513C17.3189 11.8328 24.9814 10.9673 30.1976 14.5271C36.7616 19.0067 37.7277 28.3069 33.2418 34.5932C27.8088 42.2069 16.8607 43.2732 9.50727 37.8575C0.841572 31.4753 -0.32487 18.873 6.02303 10.4545C10.2392 4.86311 17.1314 1.74251 24.1021 2.01667"
     stroke="#35A835"
     stroke-width="3.95777"
     id="path182" />
  <path
     d="M22.0119 26.3944C23.3226 26.3944 24.3852 25.4754 24.3852 24.3417C24.3852 23.2081 23.3226 22.2891 22.0119 22.2891C20.7012 22.2891 19.6387 23.2081 19.6387 24.3417C19.6387 25.4754 20.7012 26.3944 22.0119 26.3944Z"
     fill="#35A835"
     id="path184" />
  <text
     xml:space="preserve"
     style="font-style:normal;font-variant:normal;font-weight:normal;font-stretch:normal;font-size:6.96865px;font-family:Arial;-inkscape-font-specification:Arial;fill:#0a0c14;fill-opacity:0.501961;stroke-width:0.174216"
     x="46.700169"
     y="37.781429"
     id="text1434"><tspan
       sodipodi:role="line"
       id="tspan1432"
       x="46.700169"
       y="37.781429"
       style="stroke-width:0.174216">UNIFIED AI</tspan></text>
</svg>
