<svg width="101" height="24" viewBox="0 0 101 24" fill="none" xmlns="http://www.w3.org/2000/svg">
<path fill-rule="evenodd" clip-rule="evenodd" d="M12.5 3C11.803 3 11.1245 3.07923 10.473 3.22919C10.4661 3.25858 10.4578 3.28778 10.4481 3.31672C10.0784 4.42393 9.78137 5.54904 9.55697 6.68501C11.5138 6.48835 13.4858 6.48834 15.4426 6.68497C15.2182 5.54902 14.9212 4.42392 14.5515 3.31672C14.5418 3.28761 14.5335 3.25837 14.5265 3.22908C13.8752 3.0792 13.1968 3 12.5 3ZM15.7672 8.73276C13.5969 8.47241 11.4027 8.47242 9.23236 8.73281C8.97203 10.903 8.97203 13.097 9.23236 15.2672C11.4027 15.5276 13.5969 15.5276 15.7672 15.2672C16.0276 13.097 16.0276 10.903 15.7672 8.73276ZM7.47004 6.97052C7.63474 6.02104 7.84643 5.07775 8.10512 4.14417C6.65675 4.95619 5.45585 6.15716 4.64391 7.60559C5.57742 7.34691 6.52063 7.13522 7.47004 6.97052ZM3.72908 9.97348C3.75837 9.96655 3.78761 9.95825 3.81672 9.94853C4.92379 9.57887 6.04875 9.28185 7.18456 9.05745C6.98796 11.0141 6.98796 12.9859 7.18456 14.9426C6.04875 14.7182 4.92379 14.4211 3.81672 14.0515C3.78775 14.0418 3.75851 14.0335 3.72909 14.0266C3.5792 13.3752 3.5 12.6969 3.5 12C3.5 11.3032 3.5792 10.6248 3.72908 9.97348ZM17.815 9.05737C18.951 9.28178 20.0761 9.57883 21.1833 9.94853C21.2124 9.95825 21.2416 9.96655 21.2709 9.97348C21.4208 10.6248 21.5 11.3032 21.5 12C21.5 12.6969 21.4208 13.3752 21.2709 14.0266C21.2415 14.0335 21.2122 14.0418 21.1833 14.0515C20.0761 14.4212 18.951 14.7182 17.815 14.9426C18.0117 12.9859 18.0117 11.0141 17.815 9.05737ZM20.3561 7.60559C19.4225 7.34687 18.4791 7.13516 17.5296 6.97045C17.3648 6.02091 17.1531 5.07755 16.8944 4.14391C18.343 4.95594 19.5441 6.15701 20.3561 7.60559ZM7.47004 17.0295C6.52064 16.8648 5.57742 16.6531 4.64391 16.3944C5.45585 17.8428 6.65675 19.0438 8.10512 19.8558C7.84643 18.9223 7.63474 17.979 7.47004 17.0295ZM15.4426 17.315C13.4858 17.5117 11.5138 17.5117 9.55697 17.315C9.78137 18.451 10.0784 19.5761 10.4481 20.6833C10.4578 20.7122 10.4661 20.7414 10.473 20.7708C11.1245 20.9208 11.803 21 12.5 21C13.1968 21 13.8752 20.9208 14.5265 20.7709C14.5335 20.7416 14.5418 20.7124 14.5515 20.6833C14.9212 19.5761 15.2182 18.451 15.4426 17.315ZM16.8944 19.8561C17.1531 18.9224 17.3648 17.9791 17.5296 17.0296C18.4791 16.8648 19.4224 16.6531 20.3561 16.3944C19.5441 17.843 18.343 19.0441 16.8944 19.8561ZM1.5 12C1.5 5.92487 6.42487 1 12.5 1C18.5751 1 23.5 5.92487 23.5 12C23.5 18.0751 18.5751 23 12.5 23C6.42487 23 1.5 18.0751 1.5 12Z" fill="#35A835"/>
<path d="M40.3214 17L37.408 6.81818H39.7596L41.445 13.8928H41.5295L43.3888 6.81818H45.4023L47.2567 13.9077H47.3462L49.0316 6.81818H51.3832L48.4698 17H46.3718L44.4329 10.343H44.3533L42.4194 17H40.3214ZM52.5353 17V6.81818H59.3961V8.59304H54.688V11.0192H59.0431V12.794H54.688V15.2251H59.416V17H52.5353ZM61.1076 17V6.81818H65.1843C65.9334 6.81818 66.5581 6.92921 67.0586 7.15128C67.5591 7.37334 67.9353 7.68158 68.1871 8.07599C68.439 8.46709 68.565 8.91785 68.565 9.42827C68.565 9.82599 68.4854 10.1757 68.3263 10.4773C68.1673 10.7756 67.9485 11.0208 67.6701 11.2131C67.395 11.402 67.0801 11.5362 66.7255 11.6158V11.7152C67.1133 11.7318 67.4762 11.8411 67.8143 12.0433C68.1557 12.2455 68.4324 12.5289 68.6445 12.8935C68.8567 13.2547 68.9627 13.6856 68.9627 14.1861C68.9627 14.7263 68.8285 15.2086 68.56 15.6328C68.2949 16.0537 67.9021 16.3868 67.3817 16.6321C66.8614 16.8774 66.2201 17 65.4577 17H61.1076ZM63.2603 15.2401H65.0153C65.6152 15.2401 66.0527 15.1257 66.3278 14.897C66.6029 14.665 66.7404 14.3568 66.7404 13.9723C66.7404 13.6906 66.6725 13.442 66.5366 13.2266C66.4007 13.0111 66.2068 12.8421 65.9549 12.7195C65.7063 12.5968 65.4097 12.5355 65.065 12.5355H63.2603V15.2401ZM63.2603 11.0788H64.8562C65.1512 11.0788 65.413 11.0275 65.6417 10.9247C65.8737 10.8187 66.056 10.6695 66.1886 10.4773C66.3245 10.285 66.3924 10.0547 66.3924 9.78622C66.3924 9.41832 66.2615 9.12169 65.9996 8.89631C65.7411 8.67093 65.3732 8.55824 64.896 8.55824H63.2603V11.0788ZM75.8869 9.74645C75.8471 9.34541 75.6764 9.03385 75.3748 8.81179C75.0732 8.58972 74.6639 8.47869 74.1468 8.47869C73.7955 8.47869 73.4989 8.52841 73.2569 8.62784C73.015 8.72396 72.8294 8.85819 72.7001 9.03054C72.5742 9.20289 72.5112 9.39844 72.5112 9.61719C72.5046 9.79948 72.5427 9.95857 72.6255 10.0945C72.7117 10.2304 72.8294 10.348 72.9785 10.4474C73.1277 10.5436 73.3 10.6281 73.4956 10.701C73.6911 10.7706 73.8999 10.8303 74.122 10.88L75.0368 11.0987C75.4809 11.1982 75.8886 11.3307 76.2598 11.4964C76.631 11.6622 76.9525 11.866 77.2243 12.108C77.496 12.3499 77.7065 12.6349 77.8556 12.9631C78.0081 13.2912 78.086 13.6674 78.0893 14.0916C78.086 14.7147 77.9269 15.255 77.612 15.7124C77.3005 16.1664 76.8497 16.5194 76.2598 16.7713C75.6731 17.0199 74.9655 17.1442 74.1369 17.1442C73.3149 17.1442 72.599 17.0182 71.9892 16.7663C71.3826 16.5144 70.9087 16.1416 70.5673 15.6477C70.2292 15.1506 70.0519 14.5357 70.0353 13.8033H72.1184C72.1416 14.1446 72.2394 14.4297 72.4118 14.6584C72.5874 14.8838 72.8211 15.0545 73.1127 15.1705C73.4077 15.2831 73.7408 15.3395 74.112 15.3395C74.4766 15.3395 74.7931 15.2865 75.0616 15.1804C75.3334 15.0743 75.5439 14.9268 75.693 14.7379C75.8422 14.549 75.9167 14.3319 75.9167 14.0866C75.9167 13.858 75.8488 13.6657 75.7129 13.5099C75.5803 13.3542 75.3848 13.2216 75.1262 13.1122C74.871 13.0028 74.5578 12.9034 74.1866 12.8139L73.0779 12.5355C72.2195 12.3267 71.5417 12.0002 71.0446 11.5561C70.5474 11.112 70.3005 10.5137 70.3038 9.76136C70.3005 9.14489 70.4645 8.6063 70.796 8.1456C71.1307 7.6849 71.5898 7.32528 72.1731 7.06676C72.7565 6.80824 73.4193 6.67898 74.1618 6.67898C74.9174 6.67898 75.577 6.80824 76.1404 7.06676C76.7072 7.32528 77.148 7.6849 77.4629 8.1456C77.7778 8.6063 77.9402 9.13991 77.9501 9.74645H75.8869ZM81.69 6.81818V17H79.5373V6.81818H81.69ZM83.0733 8.59304V6.81818H91.4355V8.59304H88.3184V17H86.1905V8.59304H83.0733ZM92.8127 17V6.81818H99.6735V8.59304H94.9654V11.0192H99.3205V12.794H94.9654V15.2251H99.6934V17H92.8127Z" fill="#35A835"/>
</svg>
