<?xml version="1.0" encoding="UTF-8" standalone="no"?>
<!-- Created with Inkscape (http://www.inkscape.org/) -->

<svg
   xmlns:dc="http://purl.org/dc/elements/1.1/"
   xmlns:cc="http://creativecommons.org/ns#"
   xmlns:rdf="http://www.w3.org/1999/02/22-rdf-syntax-ns#"
   xmlns:svg="http://www.w3.org/2000/svg"
   xmlns="http://www.w3.org/2000/svg"
   xmlns:sodipodi="http://sodipodi.sourceforge.net/DTD/sodipodi-0.dtd"
   xmlns:inkscape="http://www.inkscape.org/namespaces/inkscape"
   version="1.1"
   id="svg2"
   width="512"
   height="512"
   viewBox="0 0 512 512"
   sodipodi:docname="working_pipeline.svg"
   inkscape:version="0.92.5 (2060ec1f9f, 2020-04-08)"
   inkscape:export-filename="/home/djl11/ivy_all/submodules/unifyai.github.io/img/one_pipeline/working_pipeline.png"
   inkscape:export-xdpi="96"
   inkscape:export-ydpi="96">
  <metadata
     id="metadata8">
    <rdf:RDF>
      <cc:Work
         rdf:about="">
        <dc:format>image/svg+xml</dc:format>
        <dc:type
           rdf:resource="http://purl.org/dc/dcmitype/StillImage" />
        <dc:title></dc:title>
      </cc:Work>
    </rdf:RDF>
  </metadata>
  <defs
     id="defs6" />
  <sodipodi:namedview
     pagecolor="#ffffff"
     bordercolor="#666666"
     borderopacity="1"
     objecttolerance="10"
     gridtolerance="10"
     guidetolerance="10"
     inkscape:pageopacity="0"
     inkscape:pageshadow="2"
     inkscape:window-width="1848"
     inkscape:window-height="1016"
     id="namedview4"
     showgrid="false"
     inkscape:zoom="0.65186406"
     inkscape:cx="331.21806"
     inkscape:cy="219.32933"
     inkscape:window-x="72"
     inkscape:window-y="27"
     inkscape:window-maximized="1"
     inkscape:current-layer="g836" />
  <g
     id="g836"
     transform="translate(0,13.016949)">
    <path
       style="fill:#009600;fill-opacity:1;stroke-width:0.66082335"
       d="m 111.30626,305.69379 c 3.06299,-4.585 3.17975,-4.60161 30.99798,-4.4044 23.97232,0.16996 24.9664,0.22721 26.72252,1.53901 3.36955,2.51701 4.46917,4.64629 4.76025,9.21781 l 0.27306,4.28824 20.40854,-1e-5 20.40854,1e-5 1e-5,-20.39673 -1e-5,-20.39674 -4.57229,-0.32714 c -5.75208,-0.41156 -8.50971,-1.93722 -10.46144,-5.78778 -1.45909,-2.87864 -1.48685,-3.37239 -1.48685,-26.443 0,-23.06615 0.028,-23.56522 1.48685,-26.45813 1.90045,-3.76869 5.84653,-5.92223 10.85179,-5.92224 h 3.4679 l 0.199,-43.77953 0.19902,-43.77955 1.54421,-4.62576 c 2.55314,-7.64802 5.33909,-12.18572 10.99418,-17.90707 5.76594,-5.833498 10.97779,-9.098868 18.50591,-11.594498 4.623,-1.53256 4.65186,-1.5336 48.32417,-1.74103 l 43.6984,-0.20755 0.31928,-3.322822 c 0.33746,-3.511874 1.72214,-5.898605 4.72236,-8.139708 1.75611,-1.311798 2.75019,-1.369052 26.7225,-1.538994 27.81825,-0.197211 27.93501,-0.180617 30.998,4.404382 l 1.50002,2.245404 v 48.705466 l 1e-5,48.70549 -1.50004,2.24539 c -3.06297,4.585 -3.17974,4.60159 -30.99798,4.40438 -23.97231,-0.16994 -24.9664,-0.2272 -26.72252,-1.53899 -3.36955,-2.51699 -4.46916,-4.64629 -4.76025,-9.2178 l -0.27305,-4.28825 -20.40854,1e-5 h -20.40855 v 20.3957 l 1e-5,20.3957 3.0282,0.41507 c 4.00267,0.54863 6.45637,2.07975 8.1435,5.08161 1.33579,2.37672 1.38393,3.31786 1.38393,27.05342 10e-6,21.21406 -0.14577,24.89825 -1.06157,26.82815 -1.2828,2.7033 -4.30558,4.68719 -8.05526,5.28678 l -2.77799,0.44423 1e-5,41.57526 c 0,35.12705 -0.16051,42.36526 -1.03492,46.6688 -3.11226,15.31743 -14.7842,28.1119 -30.35419,33.27345 -4.62299,1.53255 -4.65185,1.5336 -48.32416,1.74101 l -43.6984,0.20756 -0.31929,3.32282 c -0.33744,3.51188 -1.72213,5.89861 -4.72235,8.1397 -1.75613,1.31181 -2.75021,1.36907 -26.72252,1.53901 -27.81824,0.19719 -27.935,0.18062 -30.99797,-4.40444 l -1.50003,-2.24537 -1e-5,-48.70545 1e-5,-48.70548 z m 30.54991,86.63534 h 12.22524 v -35.68446 l -1e-5,-35.68446 h -12.22523 -12.22523 v 35.68446 35.68446 z m 72.88214,-13.21647 c 45.3932,10e-6 45.66256,-0.0223 52.18012,-4.32981 3.7185,-2.45756 6.72153,-6.0868 8.99368,-10.86913 1.3916,-2.92896 1.41567,-3.61733 1.60094,-45.76201 l 0.18811,-42.78832 h -21.47839 -21.47838 l -0.18648,27.04612 c -0.21155,30.68274 0.0435,29.26823 -5.81698,32.26278 -2.87158,1.46732 -3.25098,1.48685 -28.87233,1.48685 l -25.9625,1e-5 v 21.47676 l 1e-5,21.47675 z m 39.29262,-123.73343 35.51927,0.17095 -1e-5,-12.56138 v -12.56139 h -35.24391 c -19.38415,0 -35.44865,0.20474 -35.69888,0.45497 -0.25025,0.25023 -0.37415,5.82593 -0.27535,12.39044 l 0.17962,11.93546 z m 1.4656,-44.77653 h 21.45548 l 0.18648,-27.04611 c 0.21154,-30.68274 -0.0434,-29.26823 5.81697,-32.26277 2.87159,-1.46732 3.25098,-1.48687 28.87233,-1.48687 l 25.9625,1e-5 V 128.3302 106.85345 h -40.83221 c -45.3891,-10e-6 -45.66309,0.0227 -52.17573,4.3269 -4.32859,2.86074 -7.71096,7.37646 -9.38087,12.52408 -1.21685,3.75113 -1.28822,6.20112 -1.32333,45.43161 l -0.0371,41.46667 z m 114.3437,-45.5968 12.22523,-2e-5 -10e-6,-35.68445 2e-5,-35.684448 h -12.22524 -12.22524 v 35.684448 35.68446 z"
       id="path817"
       inkscape:connector-curvature="0" />
    <path
       inkscape:connector-curvature="0"
       id="path814-5"
       d="m 22.67206,388.52628 92.59816,0"
       style="fill:none;stroke:#009600;stroke-width:17;stroke-linecap:round;stroke-linejoin:round;stroke-miterlimit:4;stroke-dasharray:none;stroke-opacity:1"
       sodipodi:nodetypes="cc" />
    <path
       inkscape:connector-curvature="0"
       id="path814-3-6"
       d="m 22.67206,326.4603 94.13222,0"
       style="fill:none;stroke:#009600;stroke-width:17;stroke-linecap:round;stroke-linejoin:round;stroke-miterlimit:4;stroke-dasharray:none;stroke-opacity:1"
       sodipodi:nodetypes="cc" />
    <path
       inkscape:connector-curvature="0"
       id="path814-5-7"
       d="m 489.32793,97.54826 -91.8983,0"
       style="fill:none;stroke:#009600;stroke-width:17;stroke-linecap:round;stroke-linejoin:round;stroke-miterlimit:4;stroke-dasharray:none;stroke-opacity:1"
       sodipodi:nodetypes="cc" />
    <path
       inkscape:connector-curvature="0"
       id="path814-3-6-0"
       d="m 489.32793,159.61424 -94.61017,0"
       style="fill:none;stroke:#009600;stroke-width:17;stroke-linecap:round;stroke-linejoin:round;stroke-miterlimit:4;stroke-dasharray:none;stroke-opacity:1"
       sodipodi:nodetypes="cc" />
  </g>
</svg>
