<svg version="1.2" xmlns="http://www.w3.org/2000/svg" viewBox="0 0 151 153" width="151" height="153"><style>.a{fill:#006400}</style><path fill-rule="evenodd" class="a" d="m57 152.1l-1-0.9-0.2-10.4-0.1-10.5h-8.3l-0.2 5.4c-0.1 3.6-0.3 5.7-0.5 6.2-1 1.6-3.8 2.1-5.4 0.9-1.5-1.1-1.7-2.3-1.7-7.7 0-3.7-0.1-5-0.4-5.1-4.7-1.3-7.1-2.6-10-5.5-2.2-2.2-4.6-6.5-5-8.9l-0.3-1.3h-5.3c-6 0-7-0.3-7.9-2.5-0.6-1.6 0-3.4 1.5-4.5 1-0.6 1.4-0.7 6.3-0.7h5.2v-8.2l-10.2-0.1c-9.7-0.1-10.2-0.1-11-0.8-1.4-1-1.9-2.7-1.4-4.3 0.7-2.3 0.7-2.3 12.2-2.5l10.2-0.1 0.2-8.5h-10.9l-1.1-1c-1.3-1.4-1.6-2.5-1-4 0.8-2.2 1.5-2.4 7.6-2.6l5.4-0.1v-8.2h-9.7c-10.8 0-11.4-0.1-12.6-2-0.8-1.2-0.8-2.2-0.1-3.5 0.9-2.1 1.2-2.1 12.3-2.1h10.1v-8.6h-5.3c-5.9 0-6.7-0.2-7.6-2.2-1-2 0.1-4.5 2.3-5.1 0.7-0.2 3.3-0.3 6-0.3l4.8-0.1 0.4-1.6c1.6-6.4 7.2-11.9 13.9-13.6l1.3-0.4 0.1-5.4c0.1-4.6 0.2-5.7 0.7-6.3 0.7-1.1 1.8-1.6 3.5-1.6 1 0 1.5 0.2 2.3 1.1l1.1 1.1v10.8h8.6v-11.7c0-11.5 0-11.7 0.7-12.6 1.4-1.7 3.5-2.1 5.3-0.8 1.6 1 1.7 1.7 1.7 13.8v11.3h8.2v-4.9c0-5.4 0.3-6.6 1.7-7.6 1.1-0.6 3.4-0.7 4.3 0 1.4 1 1.7 2 1.7 7.4v5.1h8.2l0.1-11.5c0.1-10 0.2-11.7 0.6-12.5 1.4-2.5 5.2-2.5 6.6 0 0.5 0.8 0.5 2.5 0.6 12.5l0.1 11.5h8.3v-5.1c0-5.4 0.2-6.4 1.6-7.4 1-0.7 3.3-0.6 4.3 0 1.4 1 1.7 2.2 1.7 7.7v5.1l1.5 0.4c5.1 1.2 10 5.2 12.4 10 0.7 1.5 1.4 3.2 1.5 3.9l0.2 1.3 4.9 0.1c5.4 0 6.9 0.2 7.8 1.4 0.9 1.2 1.1 2.2 0.7 3.7-0.7 2.1-1.3 2.3-7.5 2.5l-5.4 0.1-0.1 4.3-0.1 4.2h10c11.1 0 11.5 0 12.5 1.9 0.6 1.3 0.4 3.2-0.4 4.2-1.3 1.4-2.1 1.5-12.4 1.5h-9.7v8.3h5.2c5.7 0 6.7 0.3 7.7 2.2 0.6 1.2 0.6 2 0 3.3-0.9 1.9-1.7 2.1-7.6 2.1h-5.3l0.1 4.2 0.1 4.3 10.3 0.1c11.2 0.2 11 0.1 12 2 1 1.9-0.1 4.5-2.1 5.2-0.8 0.3-4.2 0.4-10.8 0.4h-9.6v8.3l5.6 0.1 5.5 0.1 1.1 1c0.9 0.9 1 1.3 1 2.6 0 1.4-0.1 1.8-1 2.7l-1.1 1-5.7 0.1c-5.2 0.1-5.7 0.1-5.7 0.7 0 1.2-1.5 4.7-3 6.9-2.5 3.8-6.6 6.8-10.8 7.9l-1.6 0.4-0.2 5.5c-0.2 5.9-0.3 6.5-1.9 7.4-1.8 1.1-4.4 0.4-5.3-1.4-0.3-0.7-0.4-2.1-0.4-6.2v-5.2h-8.3v9.3c0 5.1-0.2 9.9-0.3 10.6-0.2 0.7-0.7 1.6-1.3 2.1-2.1 1.9-5.4 0.7-6.1-2.1-0.1-0.7-0.3-5.5-0.3-10.6v-9.3h-8.2v5.2c0 5.9-0.3 6.8-1.9 7.6-2 1.1-4.4 0.3-5.3-1.6-0.4-0.8-0.5-2.2-0.5-6.1v-5.1h-8.3v9.7c0 7.5-0.1 9.9-0.4 10.7-1 2.6-4 3.3-6 1.5zm56.5-30.6c2.2-1.2 4-3 5.2-5.3l0.9-1.8v-71.9l-0.8-1.7c-1.1-2.3-3.3-4.5-5.6-5.7l-1.9-0.9-35-0.1h-35l-2.1 0.7c-2.8 0.8-5.5 3.2-6.8 5.9l-0.9 1.8v71.6l0.8 1.8c1 2.2 2.5 3.9 4.3 4.9 3 1.8 1 1.7 39.4 1.6h35.7zm-64-15c-0.4-0.2-1.1-0.7-1.4-1.2-0.7-0.9-0.7-1.1-0.8-26.4-0.1-27.7-0.1-26.9 1.7-28.2 0.9-0.5 2.2-0.5 26.7-0.5 25.8 0 25.9 0 26.8 0.6 0.5 0.4 1.1 1 1.3 1.5 0.3 0.5 0.4 6.6 0.4 26.3 0 28 0.1 26.8-1.9 27.9-0.8 0.4-4.3 0.4-26.5 0.4-19.6 0-25.7 0-26.3-0.4zm46.7-28v-20.9l-20.6 0.1-20.6 0.1-0.1 20.8v20.7h41.3z"/></svg>