<svg version="1.2" xmlns="http://www.w3.org/2000/svg" viewBox="0 0 137 102" width="137" height="102"><style>.a{fill:#006400}</style><path fill-rule="evenodd" class="a" d="m10.3 101.5c-0.8-0.7-1-1.5-1-4.8v-3.3h-4.3v-4.3h4.3v-4.1l-2.9-0.1c-2.6-0.1-2.9-0.2-3.8-0.8-1.7-1.4-1.8-1.7-1.8-9.8 0-8 0.1-8.4 1.8-9.7 0.9-0.7 1.2-0.7 3.8-0.8l2.9-0.1v-4.2h-4.3v-4.2h4.3v-4.3h-4.3v-4.2h4.3v-4.2l-2.9-0.1c-2.6 0-2.9-0.1-3.8-0.8-1.7-1.3-1.8-1.7-1.8-9.7 0-8 0.1-8.4 1.8-9.7 0.9-0.7 1.2-0.8 3.8-0.8l2.9-0.1v-4.2h-4.3v-4.3h4.3v-8.4h-8.5v-4.3h7.6c6.4 0 7.7 0.1 8.2 0.5 0.4 0.2 1.8 1.9 3.1 3.9l2.3 3.5v14.9l3.9-2.9c2.1-1.6 4-2.9 4.2-2.9 0.2 0 0.3-0.8 0.4-2.9 0.1-2.6 0.1-2.9 0.8-3.8 1.5-1.9-2.8-1.8 49.9-1.8 52.8 0 48.5-0.1 50 1.8 0.7 0.9 0.7 1.2 0.8 3.8l0.1 2.8 0.8 0.2c1.1 0.2 2.4 1.3 2.9 2.3 0.4 0.9 0.5 3.7 0.5 31.4 0 34 0.1 31.6-1.8 33.1l-1 0.7-7.1 0.1h-7.1v1.7c0 2.5 0.2 2.5 4.8 2.5h3.7v4.3h-9.3l-3.4-3.4v-5.1h-8.4l-0.1 2.9c-0.1 2.6-0.1 2.9-0.8 3.8-1.4 1.9-0.5 1.8-20.3 1.8-19.8 0-18.9 0.1-20.3-1.8-0.7-0.9-0.8-1.2-0.8-3.8l-0.1-2.9h-4.2l-0.1 2.9c0 2.6-0.1 2.9-0.8 3.8-1.1 1.5-2.1 1.8-5.5 1.8-3.4 0-4.3-0.3-5.5-1.8-0.6-0.9-0.7-1.2-0.8-3.8l-0.1-2.9h-8.4v3.3c0 5-0.1 5.2-4.9 5.2h-3.6v-4.3h4.3v-4.2h-5l-3.8-3-3.8-3.1-0.1 7.6v7.6l-2.3 3.5c-1.3 1.9-2.7 3.7-3.1 3.9-0.8 0.5-5.6 0.6-6.3 0.1zm5.8-6.4l1.6-2.4v-83.3l-1.6-2.5q-1.6-2.4-2.1-2.4c-0.5 0-0.5 1.3-0.5 46.5 0 45.3 0 46.6 0.5 46.6q0.5 0 2.1-2.5zm86.3-8.1v-2.1h-4.2v-4.2h33.8v-14.8h-32.9l-6.4 6.3h-15.7v-4.2h13.9l3.2-3.2 3.2-3.2h34.7v-4.2h-21.1v-4.2h21.1v-4.3h-21.1v-4.2h21.1v-4.2h-32.4l-4.2-3.2-4.2-3.2h-7.1-7.1v-4.2h15.5l8.5 6.3h31v-14.8h-100.8l-4.6 3.5-4.6 3.4v22.5 22.6l4.6 3.6 4.6 3.7h62.7v4.2h-25.4v4.2h33.9zm-46.6-2.1h-4.2v4.3h4.2zm-8.7-8.9c-5.1-1-9.5-3.3-13.4-7.1-3.9-3.9-6.1-8.3-7.1-13.6-1-6 0.2-12.3 3.4-17.6 1.8-2.9 5.4-6.5 8.4-8.3 8-5 18.4-5 26.5 0 2.9 1.8 6.6 5.4 8.3 8.3 5 8.1 5 18.5 0 26.6-1.7 2.9-5.4 6.5-8.3 8.3-5.3 3.2-11.8 4.5-17.8 3.4zm2.4-9.2c0-5.4 0-5.5-0.6-5.6-0.3-0.1-1.2-0.4-1.9-0.7l-1.2-0.6-3.8 3.7c-4.3 4.3-4.2 3.7-0.9 5.7 2 1.2 4 1.9 6.5 2.4 1 0.2 1.8 0.4 1.8 0.4 0.1 0 0.1-2.4 0.1-5.3zm9.3 4.1c1.4-0.5 4.4-2.2 5.6-3.1 0.5-0.4 0.4-0.6-3.2-4.1l-3.7-3.8-3.8 1.5v10.7l1.8-0.4c1-0.2 2.5-0.5 3.3-0.8zm-19.8-10.3l3.7-3.7-0.8-1.9-0.7-1.9h-10.7l0.4 1.8c0.4 2.5 1.2 4.5 2.3 6.4 1.1 1.8 1.8 2.9 2 2.9 0.1 0 1.8-1.6 3.8-3.6zm29.5 3.2c0.7-1 2.5-4.1 2.9-5.2 0.2-0.6 0.6-2.1 0.8-3.3l0.5-2.2h-10.7l-0.7 1.9-0.7 1.9 3.6 3.7c2 2 3.7 3.6 3.8 3.6 0 0 0.3-0.2 0.5-0.4zm-14.5-7c1.6-0.7 2.6-1.7 3.3-3.3 1.1-2.3 0.7-4.9-1.1-6.8-1-1.1-3.2-2.1-4.6-2.1-0.7 0-1.7 0.3-2.5 0.7-5.1 2.4-5.1 9 0 11.4 1.6 0.8 3.3 0.8 4.9 0.1zm-12.1-9.8l0.8-1.9-7.5-7.4-0.5 0.6c-1.2 1.4-3.2 5.9-3.7 8.3l-0.5 2.3h10.7zm30.3-0.3c-0.6-2.9-1.1-4.1-2.4-6.2-1.9-3.3-1.3-3.4-5.6 0.9l-3.7 3.7 0.8 1.9 0.7 1.9h10.7zm-24.6-5.4l1.8-0.8v-10.6l-1.7 0.3c-2.6 0.5-4.6 1.3-6.6 2.5-3.3 1.9-3.4 1.4 0.8 5.6 2 2 3.7 3.7 3.8 3.7 0.1 0 0.9-0.3 1.9-0.7zm13.6-3c4.2-4.2 4.1-3.7 0.9-5.6-2.1-1.2-4.1-2-6.6-2.5l-1.8-0.3v10.7l1.6 0.6c0.9 0.4 1.8 0.7 2 0.7 0.1 0.1 1.9-1.6 3.9-3.6zm62.3 33.8h4.3v4.3h-4.3zm-46.5-12.7h4.9 5l8.4-6.4h11.3v4.2l-9.9 0.1-4.2 3.1-4.3 3.2h-11.2zm4.2-10.6h8.5v4.2h-8.5zm9.9-3.1l-4.2-3.2h-5-4.9v-4.2h11.2l4.3 3.1 4.2 3.2h4.9 5v4.2h-11.3zm32.4-20.1h4.3v4.3h-4.3zm-114.3 42.3h-4.2v12.7h4.2zm0-42.3h-4.2v12.7h4.2zm118.6-12.7h-93.2v4.2h93.2z"/></svg>