<svg version="1.2" xmlns="http://www.w3.org/2000/svg" viewBox="0 0 90 102" width="90" height="102"><defs><linearGradient id="P" gradientUnits="userSpaceOnUse"/><radialGradient id="g1" cx="51" cy="56.9" r="143.5" href="#P"><stop stop-color="#009100"/><stop offset="1" stop-color="#009100" stop-opacity="0"/></radialGradient></defs><style>.a{fill:none;stroke:url(#g1);stroke-width:9.3}</style><path class="a" d="m51 56.9c-2.7-2.5 1.9-4.9 4.1-4.6 5.7 0.9 7.1 8.1 5 12.7-3.6 8.1-14.1 9.6-21.2 5.6-10.6-6-12.3-20.2-6.1-29.9 8.2-13 26.2-15 38.5-6.6 15.4 10.5 17.6 32.3 7.1 47.1-12.8 17.8-38.5 20.3-55.7 7.6-20.4-14.9-23.1-44.5-8.2-64.3 9.9-13.1 26.1-20.5 42.4-19.8"/></svg>