<svg version="1.2" xmlns="http://www.w3.org/2000/svg" viewBox="0 0 125 125" width="125" height="125"><style>.a{fill:#006400}</style><path fill-rule="evenodd" class="a" d="m3.5 124.9c-1-0.4-1.8-1-2.3-2.1l-0.3-0.5v-28.1l0.2-0.5c0.4-0.8 0.9-1.3 1.4-1.6 1.1-0.7-0.5-0.7 24.9-0.7h23.2l0.1-4.9c0-2.8 0-5.4 0-6l-0.1-1h-23.4-23.5l-0.6-0.3c-0.9-0.4-1.4-0.9-1.9-1.8l-0.3-0.6v-28l0.3-0.6c0.5-1.1 1.5-1.9 2.7-2.2 0.3 0 8.7-0.1 23.6-0.1h23.1l0.1-4.2c0-2.4 0-5 0-6l-0.1-1.7h-23.5-23.5l-0.6-0.3c-0.7-0.4-1.5-1.2-1.9-1.9l-0.2-0.5v-28l0.3-0.6c0.3-0.7 1.1-1.5 1.7-1.8 0.3-0.2 0.8-0.3 1.1-0.4 0.9-0.1 116.2-0.1 117 0 1.3 0.3 2.3 1.1 2.9 2.3l0.3 0.6v13.6c0.1 13.4 0 13.6-0.2 14.3-0.3 1.2-1.2 2.1-2.3 2.5-0.6 0.2-0.9 0.2-25.7 0.2h-25.1v11.9h24.9c27 0 25.5 0 26.5 0.6 0.7 0.4 1.3 1 1.6 1.8l0.3 0.6v13.5c0.1 12.4 0 13.7-0.1 14.3-0.3 1.1-1.1 2-2.2 2.5l-0.5 0.3h-25.3-25.2v11.9h25.2l25.2 0.1 0.6 0.2c1.2 0.6 2 1.7 2.2 2.9 0.1 0.6 0.2 4.4 0.1 14.1v13.2l-0.3 0.7c-0.3 0.9-1.2 1.7-2.2 2.1l-0.7 0.3h-58.5c-48.1 0-58.6 0-59-0.1zm117.1-3.5c0.2-0.2 0.2-1.5 0.2-13.2 0-10 0-13.1-0.1-13.2-0.2-0.2-116.1-0.2-116.3 0-0.2 0.2-0.2 26.2 0 26.4 0.1 0.1 13.2 0.2 58.1 0.2 52.5 0 58 0 58.1-0.2zm-110.1-2.7c-0.2-0.1-0.5-0.2-0.6-0.3-0.6-0.5-0.5-0.3-0.5-10.2 0-10.3-0.1-9.7 0.7-10.3l0.4-0.2h4.4c4.1 0 4.4 0 4.7 0.2 0.2 0.1 0.4 0.4 0.6 0.6 0.2 0.3 0.2 0.5 0.2 9.7v9.4l-0.3 0.4c-0.1 0.2-0.4 0.5-0.6 0.6-0.4 0.2-0.6 0.2-4.5 0.2-3.3 0.1-4.2 0-4.5-0.1zm6.4-10.5v-7.1h-4.1v7.1 7.2h4.1zm9.6 10.5c-0.6-0.2-1-0.5-1.2-1-0.2-0.4-0.2-1.5-0.1-9.7v-9.3l0.3-0.4c0.5-0.7 0.4-0.7 5.2-0.7 4.6 0 4.6 0 5.1 0.5 0.1 0.2 0.3 0.5 0.3 0.7 0.2 0.4 0.2 18.1 0.1 18.7-0.2 0.5-0.8 1-1.3 1.2-0.5 0.1-7.9 0.1-8.4 0zm6.2-3.5c0.1 0 0.1-3.2 0.1-7.1v-7.1h-4.2v14.2h1.2c1 0.1 2.7 0 2.9 0zm69.8 1.3c-1.1-0.5-1.4-1.9-0.7-2.7 0.6-0.7 0.5-0.6 6.5-0.6h5.4l0.4 0.2q0.9 0.5 0.8 1.6c0 0.7-0.3 1.1-0.8 1.4-0.4 0.2-0.6 0.2-5.9 0.2-4.2 0-5.5 0-5.7-0.1zm-47.2-2.9c-1.8-0.5-3.3-1.8-3.9-3.7-0.3-0.9-0.4-2.6-0.1-3.4 0.6-1.7 1.9-3.1 3.5-3.7 0.9-0.4 2.5-0.4 3.4-0.2 2.2 0.6 3.9 2.4 4.2 4.6 0.5 2.8-1.3 5.6-4.1 6.4-0.7 0.2-2.2 0.2-3 0zm2.3-3.4c1.4-0.6 1.8-2.3 0.9-3.5-0.9-1-2.5-1.1-3.4 0-0.8 0.9-0.7 2.1 0.2 3 0.3 0.3 0.6 0.5 0.8 0.6 0.5 0.1 1.2 0 1.5-0.1zm14.3 3.4c-3.5-0.9-5.2-4.8-3.5-8.1 0.4-0.9 1.5-2 2.3-2.4 1.7-0.9 3.7-0.9 5.3 0 0.8 0.4 2.1 1.6 2.5 2.4 0.8 1.7 0.8 3.7 0 5.3-0.4 0.7-1.4 1.8-2.2 2.2-1.2 0.7-3.1 1-4.4 0.6zm2.7-3.6c1.4-1 1.3-3.1-0.2-3.8-0.7-0.4-1.7-0.3-2.4 0.2-0.2 0.1-0.4 0.5-0.6 0.8-0.5 1.1-0.1 2.3 1 2.9 0.7 0.4 1.6 0.3 2.2-0.1zm28.1-0.2c-0.7-0.2-1.3-0.9-1.3-1.6 0-0.6 0.4-1.3 0.9-1.6l0.4-0.2h5.5c5.4 0 5.5 0 5.9 0.2q0.8 0.5 0.8 1.5 0 1-0.8 1.5c-0.4 0.2-0.6 0.3-5.7 0.3-3 0-5.5 0-5.7-0.1zm-0.4-6.9c-0.9-0.6-1.1-1.8-0.5-2.6 0.6-0.7 0.5-0.7 6.4-0.7 5.2 0 5.4 0 5.8 0.3 0.6 0.3 0.9 0.6 0.9 1.4q0.1 1.1-0.8 1.6c-0.4 0.2-0.7 0.2-5.9 0.2-5.2 0-5.5 0-5.9-0.2zm-34.9-17.5v-6h-13.2v5.5c0 3 0 5.7 0 5.9v0.5h13.2c0 0 0-5.9 0-5.9zm53.3-9.6c0.1-0.1 0.1-3.1 0.1-13.1 0-11.8 0-13.1-0.2-13.3-0.1-0.1-5.6-0.1-58-0.1-39.7 0-58 0-58.1 0.1-0.2 0.1-0.2 0.4-0.2 13.2 0 10.1 0 13.1 0.1 13.2 0.2 0.2 116.1 0.2 116.3 0zm-110.4-2.8c-0.2-0.1-0.6-0.4-0.7-0.5-0.2-0.3-0.2-0.4-0.2-9.7l-0.1-9.4 0.3-0.5c0.5-0.8 0.5-0.8 5.4-0.8h4.3l0.4 0.3c0.7 0.5 0.7-0.1 0.7 10.2 0 5.3-0.1 9.5-0.1 9.6-0.2 0.4-0.7 0.8-1.1 1-0.2 0-2.1 0.1-4.4 0.1-3.9 0-4 0-4.5-0.3zm6.6-17.5h-4.1v14.3h4.1zm9.4 17.6c-0.6-0.2-0.7-0.4-1-0.9-0.2-0.4-0.2-1-0.2-9.6 0-9 0-9.2 0.2-9.6 0.2-0.3 0.4-0.6 0.7-0.7 0.4-0.2 0.5-0.2 4.7-0.2 4.3 0 4.3 0 4.7 0.2 0.2 0.1 0.5 0.4 0.6 0.6 0.2 0.4 0.2 0.5 0.2 9.4 0.1 4.9 0 9.1 0 9.4-0.1 0.6-0.7 1.3-1.2 1.4-0.6 0.2-8.2 0.2-8.7 0zm6.5-10.5v-7.1h-4.2v7.1c0 3.9 0 7.1 0.1 7.1 0 0 0.9 0.1 2 0.1l2.1-0.1zm69.5 8.3c-0.9-0.6-1.2-1.8-0.5-2.6 0.6-0.7 0.5-0.7 6.4-0.7 5.8 0 5.7 0 6.3 0.7 0.3 0.2 0.4 0.4 0.4 0.9 0.1 0.8-0.2 1.3-0.9 1.7-0.4 0.2-0.6 0.2-5.9 0.2-5.1 0-5.5 0-5.8-0.2zm-46.3-2.6c-1.8-0.3-3.5-1.5-4.3-3.1-1.3-2.6-0.5-5.6 1.8-7.3 1.8-1.1 3.9-1.3 5.8-0.4 0.9 0.5 2 1.5 2.5 2.4 0.7 1.3 0.8 2.5 0.5 3.9-0.6 2.9-3.4 4.9-6.3 4.5zm1.7-3.7c1.4-0.7 1.7-2.6 0.6-3.6-1.1-0.9-2.3-0.8-3.2 0.2-0.3 0.4-0.6 1-0.6 1.4 0 0.7 0.7 1.8 1.4 2.1 0.4 0.2 1.4 0.1 1.8-0.1zm14.9 3.7c-2.3-0.3-4.2-2-4.8-4.3-0.5-1.8 0.2-4 1.6-5.4 2.3-2.3 5.7-2.2 8 0 1.1 1.2 1.6 2.4 1.6 4q0 2.8-2.1 4.5c-1.2 0.9-2.8 1.4-4.3 1.2zm1.8-3.7c0.7-0.4 1.2-1.1 1.2-2 0-1.6-1.7-2.7-3.1-2-2.2 1-1.5 4.2 0.8 4.2q0.7 0 1.1-0.2zm28.2-0.3c-0.1 0-0.4-0.2-0.7-0.5-0.8-0.8-0.6-2.2 0.6-2.8 0.1 0 1.8-0.1 5.7-0.1 6.1 0 5.9 0 6.5 0.8 0.5 0.7 0.2 1.8-0.6 2.4-0.3 0.2-0.4 0.2-5.8 0.2-3 0-5.5 0-5.7 0zm-0.2-6.8c-0.3-0.2-0.9-0.9-0.9-1.3-0.2-0.8 0.2-1.6 1-1.9 0.4-0.2 1.1-0.2 5.9-0.2 5.3 0.1 5.4 0.1 5.7 0.3 1.1 0.8 1.1 2.4 0 3-0.4 0.2-0.9 0.2-5.9 0.2-3.1 0-5.6-0.1-5.8-0.1zm-35-17.7v-5.9h-6.6l-6.6 0.1-0.1 5.9v5.9h6.6 6.7zm53.3-9.5c0.1-0.2 0.1-26.2-0.1-26.4 0-0.1-6.6-0.2-57.9-0.2-36 0-58 0-58.2 0.1l-0.3 0.1 0.1 13.2v13.2l8 0.1c4.4 0 30.6 0 58.1 0 40.4 0 50.2 0 50.3-0.1zm-110.3-2.7c-0.1-0.1-0.4-0.3-0.5-0.4-0.6-0.5-0.6-0.1-0.6-10.1v-9.4l0.3-0.3c0.1-0.2 0.4-0.5 0.6-0.7 0.3-0.2 0.4-0.2 4.6-0.2 4.8 0 4.8 0 5.3 0.7l0.2 0.4v18.9l-0.2 0.3c-0.1 0.2-0.4 0.5-0.5 0.6-0.3 0.2-0.5 0.2-4.6 0.3-2.7 0-4.4-0.1-4.6-0.1zm6.5-5.7c0-1.3 0-4.5 0-7.2v-4.7h-4.1v14.2h4.1zm9.2 5.7c-0.4-0.2-0.7-0.5-0.9-1-0.1-0.4-0.1-1.5-0.1-9.7v-9.2l0.3-0.4c0.6-0.8 0.6-0.8 5.4-0.7 4.9 0 4.7 0 5.2 0.9l0.2 0.5v9.3c0 9-0.1 9.2-0.3 9.6-0.1 0.2-0.4 0.4-0.7 0.6-0.4 0.2-0.5 0.2-4.6 0.2-3 0-4.3 0-4.5-0.1zm6.6-10.5l0.1-7.1h-4.3v14.3h2.1l2.1-0.1zm69.5 8.3c-0.8-0.5-1.1-1.8-0.5-2.6 0.6-0.7 0.6-0.7 6.6-0.7 5.3 0.1 5.5 0.1 5.8 0.3 1.1 0.8 1 2.4-0.1 3-0.4 0.2-0.9 0.2-5.9 0.2-5.2 0-5.5 0-5.9-0.2zm-46.4-2.6c-1.9-0.4-3.5-1.5-4.2-3.2q-1.2-2.5 0-5c0.4-0.9 1.7-2.2 2.5-2.6 2.4-1.1 4.9-0.6 6.6 1.1 1.8 1.8 2.2 4.3 1.1 6.6-0.5 1-1.5 2-2.5 2.5-1.2 0.6-2.3 0.8-3.5 0.6zm2-3.7c0.5-0.3 0.9-0.9 1.1-1.5 0.3-1.3-0.8-2.7-2.2-2.7-0.5 0-1.4 0.4-1.7 0.9-1.5 1.9 0.7 4.5 2.8 3.3zm14.3 3.6c-1.1-0.2-1.9-0.7-2.8-1.6-1.2-1.2-1.7-2.3-1.7-4 0-1.5 0.6-2.9 1.6-4 1.1-1 2.3-1.5 3.8-1.6 2.6-0.2 5.1 1.6 5.8 4.2 0.2 0.7 0.2 2.1 0 2.9-0.5 2-2.3 3.7-4.4 4.1-0.8 0.2-1.3 0.2-2.3 0zm2.1-3.5c0.7-0.3 1.3-1.2 1.3-2 0-0.7-0.2-1.2-0.7-1.7-0.9-0.8-2.1-0.8-3 0-1.8 1.6 0 4.6 2.4 3.7zm28.1-0.6c-0.7-0.3-0.9-0.7-0.9-1.5 0-0.6 0.2-1 0.7-1.4 0.3-0.2 0.5-0.2 5.9-0.3h5.6l0.4 0.3c1.1 0.6 1.1 2.1 0.1 2.9-0.3 0.2-0.4 0.2-5.8 0.3h-5.5zm0.5-6.6c-0.8-0.1-1.5-0.9-1.5-1.6 0-0.6 0.4-1.2 0.9-1.5l0.4-0.3h5.5c5.4 0 5.5 0 5.9 0.2 1.1 0.7 1.1 2.4 0 3-0.3 0.2-0.8 0.2-5.6 0.2-2.9 0.1-5.4 0-5.6 0z"/></svg>