<svg version="1.2" xmlns="http://www.w3.org/2000/svg" viewBox="0 0 147 146" width="147" height="146"><style>.a{fill:#006400}</style><path fill-rule="evenodd" class="a" d="m36.2 145c-0.9-0.4-1.9-1.3-2.4-2.2-0.3-0.8-0.3-1.2-0.4-5.4l-0.1-4.5h8.4v4.5c0 4.4 0 4.6-0.4 5.4-0.5 1.1-1 1.6-2.1 2-0.9 0.4-2.1 0.5-3 0.2zm14.7 0c-0.9-0.4-2-1.4-2.4-2.2-0.3-0.8-0.4-1.2-0.4-5.4l-0.1-4.5h8.3v4.4c0 2.8-0.1 4.7-0.2 5.1-0.6 2.1-3.2 3.3-5.2 2.6zm14.6 0c-0.9-0.4-1.9-1.3-2.3-2.2-0.3-0.6-0.3-1.2-0.3-5.3l-0.1-4.6h8.2v4.4c0 2.8-0.1 4.7-0.2 5.1-0.7 2.1-3.2 3.3-5.3 2.6zm14.7 0c-0.9-0.4-2-1.3-2.4-2.2-0.3-0.6-0.3-1.2-0.3-5.3v-4.6h8.1v4.4c0 2.8-0.1 4.7-0.2 5.1-0.6 2.1-3.2 3.3-5.2 2.6zm14.6 0c-0.9-0.4-1.9-1.3-2.3-2.2-0.3-0.6-0.3-1.2-0.4-5.3v-4.6h8.2v4.5c0 3.5-0.1 4.8-0.3 5.2-0.8 2-3.2 3.1-5.2 2.4zm14.7 0c-0.9-0.4-2-1.3-2.4-2.2-0.3-0.6-0.3-1.2-0.3-5.3v-4.6h8.1v4.5c0 3.5-0.1 4.8-0.2 5.2-0.9 2-3.3 3.1-5.2 2.4zm-48.1-17.4l-38.7-0.1-1-0.5c-1.1-0.5-2.1-1.5-2.7-2.6l-0.4-0.8v-51.2-51.1l0.4-1c0.6-1.3 1.5-2.2 2.7-2.8l1-0.4h51.3l51.2 0.1 1 0.5c0.6 0.3 1.3 0.9 1.6 1.4 1.3 1.7 1.2-2.9 1.2 53.1 0 55.8 0.1 51.5-1.1 53.1-0.8 1-2 1.8-3.2 2.1-1.3 0.2-18.8 0.3-63.3 0.2zm-24.1-13.8c0.1-6.2 0.1-6.6 1.1-8.6 0.6-1.3 2.2-2.9 3.4-3.5 2.1-0.9 2.5-1 10.6-1h7.4l0.2-0.5c0.4-0.8 1.8-2.1 3-2.7 2.2-1 4.9-0.6 6.7 1.1 2.4 2.1 2.8 5.5 1.1 8.1-2.7 4.1-8.9 3.6-10.9-0.8l-0.4-0.9h-7c-8 0-8.4 0-9.6 1.2-1.2 1.2-1.3 1.8-1.3 7.9v5.4l30 0.1h30l0.1-4.6c0.1-2.6 0-5.2-0.1-5.9-0.2-2.2-1.3-3.5-3.1-3.9-0.5-0.1-2.9-0.2-5.6-0.2h-4.6l-0.1 0.5c-0.2 0.8-1.4 2.2-2.3 2.9-1.1 0.8-2.8 1.2-4.2 1.1-2.1-0.2-3.9-1.4-4.9-3.3-0.6-1.1-0.6-1.2-0.6-2.9 0-1.5 0-1.9 0.4-2.7 0.9-1.9 2.6-3.2 4.7-3.6 2.5-0.4 5.1 0.8 6.4 3l0.4 0.7h5.1c3 0 5.5 0.1 6 0.2 2.6 0.6 4.7 2.2 5.8 4.5 0.9 2 1.1 3.5 1.1 9.2v4.9h6.5c6 0 6.7 0 7.2-0.3 1.3-0.7 1.2 0.7 1.2-18.7l0.1-17.4-0.6-0.1c-0.3 0-2.4-0.1-4.7-0.1h-4.2l-0.3 0.7c-0.7 1.6-2.4 2.9-4.3 3.4-2.8 0.6-5.8-1-7.1-3.7-0.3-0.8-0.4-1.3-0.4-2.5 0-1.3 0.1-1.7 0.4-2.5 1.9-4 7-5.1 10.1-2 0.5 0.5 1.1 1.2 1.3 1.6l0.3 0.8h9.5v-12.6l-4.6 0.1h-4.5l-0.3 0.7c-1.1 2.3-4.1 3.8-6.6 3.3-2.2-0.4-4.1-1.9-4.8-3.8-0.6-1.5-0.6-3.5 0-4.9 0.6-1.4 1.7-2.5 3.1-3.2 1.1-0.5 1.3-0.5 2.7-0.5 1.2 0 1.7 0.1 2.5 0.4 1.3 0.6 2.3 1.6 3 2.8l0.5 0.9h9v-17.4c0-17.2 0-17.4-0.4-18.2-0.6-1.4 0.6-1.3-18.9-1.3h-17.4v10.2l0.8 0.5c1.1 0.5 2.2 1.7 2.8 2.9 0.5 0.9 0.5 1.2 0.5 2.7 0 1.5 0 1.7-0.5 2.7-0.7 1.2-1.9 2.4-3 2.9-3.2 1.4-6.9 0.1-8.4-3-0.4-0.8-0.4-1.2-0.4-2.7 0-1.5 0-1.9 0.4-2.7 0.5-1 2.1-2.6 2.9-2.9l0.6-0.2v-10.4h-12.3v5.1 5.1l0.7 0.3c1 0.5 2.2 1.7 2.8 2.9 0.4 0.9 0.5 1.2 0.5 2.7 0 1.5-0.1 1.8-0.6 2.7-1.3 2.5-3.9 3.9-6.6 3.4-1.5-0.2-2.6-0.8-3.6-2-1.3-1.3-1.7-2.5-1.6-4.5 0-1.3 0.1-1.6 0.6-2.6 0.7-1.2 1.6-2.1 2.7-2.6l0.7-0.3v-5.1-5.1h-17.6c-19.4 0-18.2 0-18.9 1.1-0.4 0.6-0.4 1.1-0.4 18.2v17.6h10l0.4-0.8c0.5-1 1.9-2.3 3-2.8 0.7-0.3 1.2-0.4 2.5-0.4 1.5 0 1.8 0.1 2.7 0.5 1.3 0.6 2.4 1.8 3 3.1 0.5 0.9 0.6 1.2 0.6 2.6 0 1.4-0.1 1.7-0.5 2.6-0.7 1.4-1.6 2.3-2.8 3-1 0.5-1.4 0.6-2.6 0.6-1.3 0.1-1.7 0-2.6-0.3-1.2-0.4-2.7-1.7-3.3-2.9l-0.4-0.8h-10v12h9.7l0.3-0.6c0.8-1.8 2.9-3.2 5-3.4 1.6-0.1 2.8 0.2 4.1 1 3.9 2.7 3.6 8.5-0.6 10.8-1.1 0.6-1.2 0.6-2.9 0.6-1.7 0-2 0-2.8-0.5-1.1-0.5-2.4-1.8-2.8-2.8l-0.3-0.7h-1.8c-1 0-3.2 0-4.8-0.1l-3.1-0.1v17.6c0 18.8 0 18.1 0.9 18.9 0.6 0.5 1.3 0.6 5.7 0.6h4.2zm22.9-21.5c-2.4-0.6-4.6-2.4-5.7-4.4-1.1-2.2-1.1-1.9-1.1-15.4 0-8.3 0.1-12.7 0.2-13.3 0.5-2.3 2.5-5 4.5-6 2.2-1.1 1.7-1.1 14.9-1.1 7.7-0.1 12.6 0 13.6 0.1 3.6 0.4 6.7 3 7.6 6.5 0.3 1.1 0.4 2.1 0.4 13.5 0 8.4-0.1 12.7-0.2 13.4-0.5 2.3-2.5 5-4.6 6-2.1 1-1.9 1-15.9 1-10.4 0-12.9-0.1-13.7-0.3zm-56.3 19.9c-2.6-0.5-4.1-3.3-3-5.7 0.5-1 0.9-1.5 2-2 0.8-0.4 1-0.4 5.4-0.4h4.6v8.3l-4.2-0.1c-2.3 0-4.5 0-4.8-0.1zm130.2-4v-4.1h4.5c4.4 0 4.6 0 5.5 0.4 1 0.5 1.5 1 2 2 0.9 2 0 4.3-2 5.4-0.7 0.4-1 0.4-5.4 0.4l-4.6 0.1c0 0 0-4.2 0-4.2zm-130.2-10.6c-2.6-0.6-4.1-3.4-3-5.7 0.5-1.1 0.9-1.6 2-2.1 0.8-0.4 1-0.4 5.4-0.4h4.6v8.3h-4.2c-2.3 0-4.5-0.1-4.8-0.1zm130.2-4v-4.2h4.5c4.4 0 4.6 0 5.5 0.4 1 0.5 1.5 1 2 2.1 0.9 1.9 0 4.3-2 5.3-0.7 0.4-1 0.4-5.4 0.5h-4.6c0 0 0-4.1 0-4.1zm-130.2-10.7c-2.6-0.5-4.1-3.3-3-5.7 0.5-1 0.9-1.5 2-2 0.8-0.4 1-0.4 5.4-0.4h4.6v8.3l-4.2-0.1c-2.3 0-4.5 0-4.8-0.1zm130.2-4v-4.1h4.5c4.4 0 4.6 0 5.5 0.4 1 0.5 1.5 1 2 2 0.9 2 0 4.3-2 5.4-0.7 0.4-1 0.4-5.4 0.4l-4.6 0.1c0 0 0-4.2 0-4.2zm-130.2-10.6c-2.6-0.6-4.1-3.4-3-5.7 0.5-1.1 0.9-1.6 2-2.1 0.8-0.4 1-0.4 5.4-0.4h4.6v8.3h-4.2c-2.3 0-4.5-0.1-4.8-0.1zm130.2-4v-4.2h4.5c4.4 0 4.6 0 5.5 0.4 1 0.5 1.5 1 2 2.1 0.9 1.9 0 4.3-2 5.3-0.7 0.4-1 0.4-5.4 0.5l-4.6 0.1c0 0 0-4.2 0-4.2zm-130.2-10.7c-2.6-0.5-4.1-3.3-3-5.6 0.5-1.1 0.9-1.6 2-2.1 0.8-0.4 1-0.4 5.4-0.4h4.6v8.3h-4.2c-2.3-0.1-4.5-0.1-4.8-0.2zm130.2-4v-4.1h4.5c4.4 0 4.6 0 5.5 0.4 1 0.5 1.5 1 2 2.1 0.9 1.9 0 4.2-2 5.3-0.7 0.4-1 0.4-5.4 0.4l-4.6 0.1c0 0 0-4.2 0-4.2zm-130.2-10.6c-2.6-0.6-4.1-3.4-3-5.7 0.5-1.1 0.9-1.6 2-2 0.8-0.4 1-0.5 5.4-0.5h4.6v8.3h-4.2c-2.3 0-4.5-0.1-4.8-0.1zm130.2-4v-4.2h4.5c4.4 0 4.6 0.1 5.5 0.5 1 0.5 1.5 0.9 2 2 0.9 1.9 0 4.3-2 5.3-0.7 0.4-1 0.4-5.4 0.5l-4.6 0.1c0 0 0-4.2 0-4.2zm-100.7-26.6c0-4.4 0-4.7 0.4-5.4 1.1-2 3.4-2.9 5.4-2 1 0.5 1.5 1 2 2 0.4 0.9 0.4 1.1 0.4 5.5v4.5h-8.3zm14.6 0.1c0.1-5.2 0.2-5.6 1.5-6.7 1.8-1.6 4.4-1.4 5.9 0.4 0.8 1 0.9 1.6 0.9 6.4v4.4h-8.3zm14.8 0c0-5.3 0-5.6 1.3-6.7 1.8-1.5 4.4-1.3 5.8 0.4 0.9 1.1 1 1.6 1 6.5v4.4h-8.1c0 0 0-4.6 0-4.6zm14.6 0c0-5.3 0.1-5.6 1.4-6.7 1.3-1.1 2.8-1.4 4.4-0.6 1 0.4 1.9 1.4 2.2 2.4 0 0.3 0.1 2.6 0.1 5v4.5h-8.1c0 0 0-4.6 0-4.6zm14.7 0c0-5.3 0-5.6 1.3-6.7 1.8-1.5 4.4-1.3 5.8 0.4 0.9 1.1 1 1.3 1 6.3v4.6h-8.1c0 0 0-4.6 0-4.6zm14.6 0c0-5.3 0.1-5.6 1.4-6.7 1.7-1.5 4.3-1.3 5.7 0.4 1 1.1 1 1.3 1 6.3v4.6h-8.1c0 0 0-4.6 0-4.6z"/></svg>