<?xml version="1.0" encoding="UTF-8" standalone="no"?>
<!-- Created with Inkscape (http://www.inkscape.org/) -->

<svg
   xmlns:dc="http://purl.org/dc/elements/1.1/"
   xmlns:cc="http://creativecommons.org/ns#"
   xmlns:rdf="http://www.w3.org/1999/02/22-rdf-syntax-ns#"
   xmlns:svg="http://www.w3.org/2000/svg"
   xmlns="http://www.w3.org/2000/svg"
   xmlns:sodipodi="http://sodipodi.sourceforge.net/DTD/sodipodi-0.dtd"
   xmlns:inkscape="http://www.inkscape.org/namespaces/inkscape"
   width="500"
   height="380"
   viewBox="0 0 132.29167 100.54167"
   version="1.1"
   id="svg8"
   inkscape:version="0.92.5 (2060ec1f9f, 2020-04-08)"
   sodipodi:docname="ivy_ecosystem.svg"
   inkscape:export-filename="/home/djl11/ivy_all/submodules/unifyai.github.io/img/externally_linked/logos/ivy_ecosystem.png"
   inkscape:export-xdpi="96"
   inkscape:export-ydpi="96">
  <defs
     id="defs2">
    <marker
       inkscape:stockid="Arrow2Sstart"
       orient="auto"
       refY="0"
       refX="0"
       id="Arrow2Sstart"
       style="overflow:visible"
       inkscape:isstock="true">
      <path
         id="path1188"
         style="fill:#000000;fill-opacity:1;fill-rule:evenodd;stroke:#000000;stroke-width:0.625;stroke-linejoin:round;stroke-opacity:1"
         d="M 8.7185878,4.0337352 -2.2072895,0.01601326 8.7185884,-4.0017078 c -1.7454984,2.3720609 -1.7354408,5.6174519 -6e-7,8.035443 z"
         transform="matrix(0.3,0,0,0.3,-0.69,0)"
         inkscape:connector-curvature="0" />
    </marker>
    <marker
       inkscape:stockid="Arrow2Send"
       orient="auto"
       refY="0"
       refX="0"
       id="marker1948"
       style="overflow:visible"
       inkscape:isstock="true">
      <path
         id="path1946"
         style="fill:#000000;fill-opacity:1;fill-rule:evenodd;stroke:#000000;stroke-width:0.625;stroke-linejoin:round;stroke-opacity:1"
         d="M 8.7185878,4.0337352 -2.2072895,0.01601326 8.7185884,-4.0017078 c -1.7454984,2.3720609 -1.7354408,5.6174519 -6e-7,8.035443 z"
         transform="matrix(-0.3,0,0,-0.3,0.69,0)"
         inkscape:connector-curvature="0" />
    </marker>
    <marker
       inkscape:stockid="Arrow1Send"
       orient="auto"
       refY="0"
       refX="0"
       id="marker1914"
       style="overflow:visible"
       inkscape:isstock="true">
      <path
         id="path1912"
         d="M 0,0 5,-5 -12.5,0 5,5 Z"
         style="fill:#000000;fill-opacity:1;fill-rule:evenodd;stroke:#000000;stroke-width:1.00000003pt;stroke-opacity:1"
         transform="matrix(-0.2,0,0,-0.2,-1.2,0)"
         inkscape:connector-curvature="0" />
    </marker>
    <marker
       inkscape:stockid="Arrow2Send"
       orient="auto"
       refY="0"
       refX="0"
       id="Arrow2Send"
       style="overflow:visible"
       inkscape:isstock="true">
      <path
         id="path1191"
         style="fill:#000000;fill-opacity:1;fill-rule:evenodd;stroke:#000000;stroke-width:0.625;stroke-linejoin:round;stroke-opacity:1"
         d="M 8.7185878,4.0337352 -2.2072895,0.01601326 8.7185884,-4.0017078 c -1.7454984,2.3720609 -1.7354408,5.6174519 -6e-7,8.035443 z"
         transform="matrix(-0.3,0,0,-0.3,0.69,0)"
         inkscape:connector-curvature="0" />
    </marker>
    <marker
       inkscape:stockid="Arrow1Send"
       orient="auto"
       refY="0"
       refX="0"
       id="Arrow1Send"
       style="overflow:visible"
       inkscape:isstock="true">
      <path
         id="path1173"
         d="M 0,0 5,-5 -12.5,0 5,5 Z"
         style="fill:#000000;fill-opacity:1;fill-rule:evenodd;stroke:#000000;stroke-width:1.00000003pt;stroke-opacity:1"
         transform="matrix(-0.2,0,0,-0.2,-1.2,0)"
         inkscape:connector-curvature="0" />
    </marker>
    <inkscape:path-effect
       effect="bspline"
       id="path-effect1012"
       is_visible="true"
       weight="33.333333"
       steps="2"
       helper_size="0"
       apply_no_weight="true"
       apply_with_weight="true"
       only_selected="false" />
  </defs>
  <sodipodi:namedview
     id="base"
     pagecolor="#ffffff"
     bordercolor="#666666"
     borderopacity="1.0"
     inkscape:pageopacity="0.0"
     inkscape:pageshadow="2"
     inkscape:zoom="1.4"
     inkscape:cx="109.35439"
     inkscape:cy="178.98157"
     inkscape:document-units="mm"
     inkscape:current-layer="layer1"
     showgrid="false"
     inkscape:snap-global="false"
     inkscape:window-width="1920"
     inkscape:window-height="1043"
     inkscape:window-x="3840"
     inkscape:window-y="0"
     inkscape:window-maximized="1"
     units="px"
     showguides="false" />
  <metadata
     id="metadata5">
    <rdf:RDF>
      <cc:Work
         rdf:about="">
        <dc:format>image/svg+xml</dc:format>
        <dc:type
           rdf:resource="http://purl.org/dc/dcmitype/StillImage" />
        <dc:title />
      </cc:Work>
    </rdf:RDF>
  </metadata>
  <g
     inkscape:label="Layer 1"
     inkscape:groupmode="layer"
     id="layer1"
     transform="translate(0,-196.45827)">
    <flowRoot
       xml:space="preserve"
       id="flowRoot822-3"
       style="font-style:normal;font-weight:normal;font-size:40px;line-height:1.25;font-family:sans-serif;letter-spacing:0px;word-spacing:0px;fill:#000000;fill-opacity:1;stroke:none"
       transform="matrix(0.50680333,0,0,0.50680333,-267.94545,-1480.0067)"><flowRegion
         id="flowRegion824-6"><rect
           id="rect826-7"
           width="2291.4285"
           height="480"
           x="537.14282"
           y="3453.3184" /></flowRegion><flowPara
         id="flowPara828-5"
         style="fill:#009600;fill-opacity:1">ECOSYSTEM</flowPara></flowRoot>    <flowRoot
       xml:space="preserve"
       id="flowRoot4485"
       style="font-style:normal;font-weight:normal;font-size:40px;line-height:1.25;font-family:sans-serif;letter-spacing:0px;word-spacing:0px;fill:#000000;fill-opacity:1;stroke:none"
       transform="matrix(1.2720937,0,0,1.2720937,-760.22263,1552.9308)"><flowRegion
         id="flowRegion4487"><rect
           id="rect4489"
           width="1891.0055"
           height="460.62955"
           x="1010.1525"
           y="-944.62921" /></flowRegion><flowPara
         id="flowPara4491" /></flowRoot>    <g
       id="g81"
       transform="matrix(0.0676348,0,0,0.0676348,33.341511,199.21006)">
      <path
         id="path79"
         d="m 862.3,832.5 c -70.5,0 -127.7,-55.7 -127.7,-124.5 0,-68.7 57.2,-124.5 127.7,-124.5 70.5,0 127.7,55.7 127.7,124.5 0,68.7 -57.2,124.5 -127.7,124.5 z m 0,-290.2 c -7.3,0 -14.4,0.6 -21.4,1.5 0,-0.6 0.1,-1.2 0.1,-1.8 0,-130.7 -77.3,-243.6 -189.6,-298 12.4,-23 19.5,-49.2 19.5,-77 0,-2.2 -0.2,-4.3 -0.3,-6.5 150.5,64.2 255.7,210.8 255.7,381.4 0,4.2 -0.5,8.3 -0.6,12.4 -19.6,-7.6 -41,-12 -63.4,-12 z m -362,-250.9 c -70.7,0 -128,-55.9 -128,-124.8 0,-68.9 57.3,-124.8 128,-124.8 70.7,0 128,55.9 128,124.8 0,69 -57.3,124.8 -128,124.8 z M 159.3,542 c 0,0.6 0.1,1.2 0.1,1.8 -7,-0.9 -14.2,-1.5 -21.4,-1.5 -22.3,0 -43.5,4.3 -63,11.9 -0.1,-4.1 -0.6,-8.2 -0.6,-12.3 0,-170.6 105.1,-317 255.4,-381.3 -0.1,2.1 -0.3,4.2 -0.3,6.3 0,27.8 7.1,54 19.5,77 C 236.6,298.4 159.3,411.3 159.3,542 Z m 106.1,166 c 0,68.8 -57.2,124.5 -127.7,124.5 C 67.2,832.5 10,776.7 10,708 10,639.3 67.2,583.5 137.7,583.5 c 70.5,0 127.7,55.7 127.7,124.5 z m 16.4,89.5 c 59.2,48.3 135.3,77.4 218.4,77.4 83.1,0 159.2,-29.1 218.4,-77.4 15.5,23.8 36.8,43.6 62.3,57.2 -75,64.2 -172.9,103.5 -280.5,103.5 -107.6,0 -205.6,-39.3 -280.6,-103.6 25.3,-13.6 46.5,-33.4 62,-57.1 z"
         inkscape:connector-curvature="0" />
    </g>
  </g>
</svg>
