<?xml version="1.0" encoding="UTF-8" standalone="no"?>
<!-- Created with Inkscape (http://www.inkscape.org/) -->

<svg
   xmlns:dc="http://purl.org/dc/elements/1.1/"
   xmlns:cc="http://creativecommons.org/ns#"
   xmlns:rdf="http://www.w3.org/1999/02/22-rdf-syntax-ns#"
   xmlns:svg="http://www.w3.org/2000/svg"
   xmlns="http://www.w3.org/2000/svg"
   xmlns:sodipodi="http://sodipodi.sourceforge.net/DTD/sodipodi-0.dtd"
   xmlns:inkscape="http://www.inkscape.org/namespaces/inkscape"
   version="1.1"
   id="svg2"
   width="512"
   height="512"
   viewBox="0 0 512 512"
   sodipodi:docname="broken_link.svg"
   inkscape:version="0.92.5 (2060ec1f9f, 2020-04-08)"
   inkscape:export-filename="/media/djl11/HDD1/Ivy/media/explanation/examples/broken_link.png"
   inkscape:export-xdpi="96"
   inkscape:export-ydpi="96">
  <metadata
     id="metadata8">
    <rdf:RDF>
      <cc:Work
         rdf:about="">
        <dc:format>image/svg+xml</dc:format>
        <dc:type
           rdf:resource="http://purl.org/dc/dcmitype/StillImage" />
        <dc:title></dc:title>
      </cc:Work>
    </rdf:RDF>
  </metadata>
  <defs
     id="defs6" />
  <sodipodi:namedview
     pagecolor="#ffffff"
     bordercolor="#666666"
     borderopacity="1"
     objecttolerance="10"
     gridtolerance="10"
     guidetolerance="10"
     inkscape:pageopacity="0"
     inkscape:pageshadow="2"
     inkscape:window-width="1848"
     inkscape:window-height="1016"
     id="namedview4"
     showgrid="false"
     inkscape:zoom="0.921875"
     inkscape:cx="235.87053"
     inkscape:cy="132.65255"
     inkscape:window-x="72"
     inkscape:window-y="27"
     inkscape:window-maximized="1"
     inkscape:current-layer="svg2" />
  <path
     style="fill:#960000;fill-opacity:1;stroke-width:0.94444752"
     d="m 394.56553,406.11828 c -11.73241,0.28621 -13.6111,-0.63268 -83.68108,-40.92918 l -66.18944,-38.06486 12.85547,-22.29173 12.85548,-22.29173 60.44505,34.89248 60.44507,34.89248 28.88104,-50.02346 28.88107,-50.02344 -60.44046,-34.9008 -60.44046,-34.9008 12.53503,-21.68527 c 6.89428,-11.9269 12.95335,-21.79736 13.46464,-21.93435 0.51127,-0.137 30.14024,16.6736 65.84214,37.35688 67.7768,39.26529 70.75904,41.25205 76.66975,51.07761 3.23411,5.37602 6.21943,16.48091 6.13018,22.80153 -0.16216,11.43819 -1.29276,13.73595 -38.28908,77.81538 -37.92503,65.68809 -38.82793,67.01088 -49.74724,72.88221 -6.54967,3.52177 -12.70519,5.14369 -20.21673,5.3269 z m -250.1092,52.51805 c -7.17904,-1.07654 -11.58905,-7.26845 -10.36604,-14.55448 0.5684,-3.38613 27.27286,-50.33978 111.22159,-195.55757 120.23337,-207.984373 112.5402,-195.577998 120.9789,-195.096679 4.19449,0.239239 8.90951,3.254546 10.80242,6.908267 3.33549,6.438238 7.39099,-1.033933 -109.219,201.233772 -76.67401,132.99609 -111.20832,192.03193 -113.42742,193.90234 -3.76498,3.17338 -5.74598,3.80084 -9.99045,3.16435 z m 73.55515,-52.59893 c -5.30546,-0.87844 -14,-4.60119 -14.42169,-6.17496 -0.16038,-0.59855 5.3531,-10.85343 12.25217,-22.78865 l 12.54376,-21.70038 4.85273,2.87108 c 12.41893,7.34756 17.0104,21.34361 10.98899,33.49741 -5.03435,10.16151 -15.78328,16.02286 -26.21596,14.2955 z M 92.569874,336.31807 C 24.170768,296.69379 21.226731,294.73445 15.310735,284.9002 12.07668,279.52417 9.0913567,268.41928 9.1810087,262.09856 c 0.162657,-11.47023 1.2498473,-13.67439 38.6365533,-78.33129 31.917454,-55.19835 36.36909,-62.42002 40.956266,-66.44132 10.659041,-9.34416 24.398882,-13.03715 38.307232,-10.29617 5.99689,1.18182 13.80279,5.39731 73.46908,39.6761 l 66.75929,38.35379 -12.8579,22.29594 -12.8579,22.29593 -60.44505,-34.89248 -60.44506,-34.89248 -28.881062,50.02346 -28.881054,50.02345 60.440306,34.90071 60.44031,34.90071 -12.87493,22.27464 -12.87493,22.27464 z M 195.53862,298.53754 c -6.84073,-4.61136 -11.00725,-10.00504 -12.72686,-16.47524 -5.97939,-22.49822 18.37485,-39.97993 38.7077,-27.78475 l 4.34998,2.60902 -12.9144,22.3429 -12.91438,22.34291 z m 111.26405,-36.55006 c -5.59028,0.38665 -11.23637,-1.02214 -16.32256,-4.07271 l -4.34997,-2.60902 12.91439,-22.34291 12.91438,-22.3429 4.50205,3.03484 c 15.47526,10.43194 18.21093,27.77325 6.42003,40.69633 -1.50464,1.6491 -4.25641,3.69497 -6.11504,4.54636 -1.85865,0.85138 -3.96301,1.83284 -4.67637,2.18102 -0.71336,0.34817 -3.09246,0.75725 -5.28691,0.90899 z M 278.76126,153.94791 c -12.41906,-7.34763 -17.01057,-21.34363 -10.98912,-33.49749 6.90901,-13.9454 21.96729,-18.33444 36.81043,-10.72916 l 4.87417,2.49742 -12.9213,22.30019 -12.92131,22.30021 z"
     id="path817"
     inkscape:connector-curvature="0" />
</svg>
