<?xml version="1.0" encoding="UTF-8" standalone="no"?>
<!-- Created with Inkscape (http://www.inkscape.org/) -->

<svg
   xmlns:dc="http://purl.org/dc/elements/1.1/"
   xmlns:cc="http://creativecommons.org/ns#"
   xmlns:rdf="http://www.w3.org/1999/02/22-rdf-syntax-ns#"
   xmlns:svg="http://www.w3.org/2000/svg"
   xmlns="http://www.w3.org/2000/svg"
   xmlns:sodipodi="http://sodipodi.sourceforge.net/DTD/sodipodi-0.dtd"
   xmlns:inkscape="http://www.inkscape.org/namespaces/inkscape"
   version="1.1"
   id="svg2"
   width="512"
   height="512"
   viewBox="0 0 511.99998 512.00002"
   sodipodi:docname="calendar.svg"
   inkscape:version="0.92.5 (2060ec1f9f, 2020-04-08)"
   inkscape:export-filename="/home/djl11/ivy_all/submodules/unifyai.github.io/img/prototype/calendar.png"
   inkscape:export-xdpi="96"
   inkscape:export-ydpi="96">
  <metadata
     id="metadata8">
    <rdf:RDF>
      <cc:Work
         rdf:about="">
        <dc:format>image/svg+xml</dc:format>
        <dc:type
           rdf:resource="http://purl.org/dc/dcmitype/StillImage" />
        <dc:title></dc:title>
      </cc:Work>
    </rdf:RDF>
  </metadata>
  <defs
     id="defs6" />
  <sodipodi:namedview
     pagecolor="#ffffff"
     bordercolor="#666666"
     borderopacity="1"
     objecttolerance="10"
     gridtolerance="10"
     guidetolerance="10"
     inkscape:pageopacity="0"
     inkscape:pageshadow="2"
     inkscape:window-width="1848"
     inkscape:window-height="1016"
     id="namedview4"
     showgrid="false"
     inkscape:zoom="0.78841876"
     inkscape:cx="477.12538"
     inkscape:cy="303.74375"
     inkscape:window-x="72"
     inkscape:window-y="27"
     inkscape:window-maximized="1"
     inkscape:current-layer="svg2" />
  <path
     style="fill:#000096;stroke-width:0.45814896;fill-opacity:1"
     d="M 112.90356,460.7239 C 94.353341,457.83426 79.306297,444.09131 74.109157,425.29172 l -1.218284,-4.40688 V 278.17143 135.45805 l 1.255451,-4.58149 c 1.722405,-6.2855 5.564928,-13.74819 9.434991,-18.32403 7.275226,-8.60196 15.489668,-13.612524 27.106845,-16.534355 2.18688,-0.550022 5.97809,-0.809876 14.27168,-0.978197 l 11.29369,-0.22921 0.19956,-9.456043 c 0.22216,-10.524325 0.70063,-12.860125 3.88231,-18.952487 2.9411,-5.631714 9.52085,-11.616173 15.18958,-13.815322 15.89559,-6.166628 33.60183,2.129729 39.25822,18.394655 1.5411,4.431434 2.01739,8.357125 2.0279,16.714445 l 0.009,7.215846 h 15.29681 15.29683 l 0.19803,-9.735664 c 0.18479,-9.083644 0.28011,-9.973659 1.42337,-13.289289 1.86145,-5.398422 3.78022,-8.453374 7.87111,-12.531976 6.27529,-6.2564 13.88635,-9.245334 22.24457,-8.735645 12.38167,0.755042 22.83475,8.833505 26.9459,20.824644 1.41966,4.140776 1.87567,8.070316 1.88594,16.252084 l 0.009,7.215846 h 15.30313 15.30313 l 0.19093,-9.964739 c 0.18274,-9.536283 0.24587,-10.112482 1.46786,-13.400857 1.81185,-4.87584 3.64,-7.904522 6.82913,-11.313687 5.66128,-6.05193 11.82302,-9.046039 19.7953,-9.618919 11.27561,-0.810258 21.82808,4.969515 27.7686,15.209392 3.25466,5.610149 3.72622,7.894328 3.9482,19.124071 l 0.19696,9.964739 h 7.48142 c 4.11479,0 9.07107,0.221098 11.01396,0.491327 18.21504,2.53348 33.23255,14.768961 39.1928,31.932271 2.61767,7.53788 2.4146,-4.0766 2.58516,147.85802 0.10734,95.6427 0.005,140.60161 -0.32674,143.50448 -0.80576,7.05156 -2.27,11.71365 -5.55203,17.67786 -7.33042,13.32086 -19.90626,22.15102 -34.72975,24.38554 -6.35113,0.95741 -279.39984,0.92156 -285.55633,-0.0374 z m 281.27732,-27.71369 c 6.40293,-1.03904 11.73754,-5.00401 14.64353,-10.8838 l 1.72225,-3.48471 0.11779,-126.58745 0.11779,-126.58746 H 255.68911 100.59601 l 0.12098,125.87643 0.12099,125.87642 1.00885,2.64227 c 2.6505,6.94163 8.53721,11.9805 15.31075,13.10556 3.57909,0.59448 273.36693,0.63612 277.0233,0.0427 z M 126.26525,361.55455 V 338.6471 h 25.88541 25.8854 v 22.90745 22.90745 h -25.8854 -25.88541 z m 69.18048,0 V 338.6471 h 25.8854 25.88544 v 22.90745 22.90745 h -25.88544 -25.8854 z m 69.18047,0 V 338.6471 h 25.88545 25.8854 v 22.90745 22.90745 h -25.8854 -25.88545 z m 69.18052,0 V 338.6471 h 25.8854 25.88545 v 22.90745 22.90745 h -25.88545 -25.8854 z M 126.26525,299.93352 v -23.13653 h 25.88541 25.8854 v 23.13653 23.13652 h -25.8854 -25.88541 z m 69.18048,0 v -23.13653 h 25.8854 25.88544 v 23.13653 23.13652 h -25.88544 -25.8854 z m 69.18047,0 v -23.13653 h 25.88545 25.8854 v 23.13653 23.13652 h -25.8854 -25.88545 z m 69.18052,0 v -23.13653 h 25.8854 25.88545 v 23.13653 23.13652 h -25.88545 -25.8854 z M 126.26525,238.46615 v -23.06112 h 25.88963 25.88966 l -0.11879,23.02198 -0.11875,23.02199 -25.77087,0.0392 -25.77088,0.0392 v -23.06112 z m 69.18048,-0.0146 v -23.04652 h 25.8854 25.88544 v 22.90744 c 0,17.98138 -0.12314,22.92324 -0.57269,22.98087 -0.315,0.0403 -11.96344,0.10295 -25.88541,0.13908 l -25.31274,0.0657 z m 69.18047,0.017 v -23.06352 h 25.88545 25.8854 v 23.04591 23.04591 l -25.8854,0.0177 -25.88545,0.0176 v -23.06353 z m 69.42614,22.84425 c -0.13511,-0.13505 -0.24562,-10.51955 -0.24562,-23.07666 v -22.83109 h 25.8854 25.88545 v 23.03997 23.03995 l -25.63984,0.0367 c -14.10188,0.0203 -25.75032,-0.0739 -25.88539,-0.20887 z M 170.88289,149.8698 c 2.81239,-1.05226 5.75642,-3.65629 7.09084,-6.27197 1.84814,-3.62265 1.96357,-5.93694 1.81148,-36.32643 l -0.14562,-29.102939 -1.50966,-3.065714 c -2.25014,-4.569427 -5.66774,-7.0593 -10.3533,-7.542896 -5.33453,-0.550572 -10.44964,2.42925 -12.9659,7.553363 l -1.28563,2.618063 -0.13043,29.974143 c -0.0895,20.56903 0.0282,30.73842 0.37522,32.4099 0.6487,3.12475 2.89135,6.39641 5.6798,8.28595 3.80976,2.58159 7.27027,3.02608 11.4332,1.46853 z m 90.80729,0.1 c 2.85054,-0.98538 4.66896,-2.4116 6.52753,-5.11968 2.77634,-4.04538 2.82359,-4.64106 2.81304,-35.48825 -0.0103,-30.262308 -0.10858,-31.697044 -2.44317,-35.680783 -2.23297,-3.810259 -6.71625,-6.258132 -11.46177,-6.258132 -4.62477,0 -9.83945,3.954449 -11.67138,8.850755 -0.97362,2.602202 -0.98675,3.039939 -0.98675,32.85308 0,28.72153 0.0437,30.33058 0.88256,32.53846 1.11836,2.9433 2.8281,5.18953 5.08876,6.68556 3.80938,2.52094 7.22158,3.01194 11.25118,1.61899 z m 91.16262,0.0685 c 3.18543,-1.08325 7.09268,-5.05901 8.25496,-8.39969 0.82739,-2.37815 0.87512,-4.17646 0.87512,-32.9822 V 78.189429 l -1.49709,-3.060413 c -2.25264,-4.605009 -5.9742,-7.20538 -10.85225,-7.582813 -5.69021,-0.440276 -10.88654,3.058784 -13.02319,8.769446 -0.99087,2.64838 -0.9951,2.811444 -0.86885,33.421701 0.12445,30.17247 0.1453,30.80018 1.09158,32.84528 3.01541,6.51697 9.67112,9.61454 16.01972,7.45559 z"
     id="path817"
     inkscape:connector-curvature="0" />
</svg>
