<?xml version="1.0" encoding="utf-8"?>
<!-- Generator: Adobe Illustrator 27.8.0, SVG Export Plug-In . SVG Version: 6.00 Build 0)  -->
<svg version="1.1"
	 id="svg8" xmlns:inkscape="http://www.inkscape.org/namespaces/inkscape" xmlns:svg="http://www.w3.org/2000/svg" xmlns:dc="http://purl.org/dc/elements/1.1/" xmlns:cc="http://creativecommons.org/ns#" xmlns:sodipodi="http://sodipodi.sourceforge.net/DTD/sodipodi-0.dtd" xmlns:rdf="http://www.w3.org/1999/02/22-rdf-syntax-ns#" inkscape:export-filename="/media/djl11/Drive/Ivy/ivy_logo_only.png" inkscape:export-ydpi="96"
	 xmlns="http://www.w3.org/2000/svg" xmlns:xlink="http://www.w3.org/1999/xlink" x="0px" y="0px" viewBox="0 0 1000 1000"
	 style="enable-background:new 0 0 1000 1000;" xml:space="preserve">
<style type="text/css">
	.st0{fill:#00B828;}
</style>
<defs>
	
		<inkscape:path-effect  apply_no_weight="true" apply_with_weight="true" effect="bspline" helper_size="0" id="path-effect861" is_visible="true" only_selected="false" steps="2" weight="33.333333">
		</inkscape:path-effect>
	
		<inkscape:path-effect  apply_no_weight="true" apply_with_weight="true" effect="bspline" helper_size="0" id="path-effect857" is_visible="true" only_selected="false" steps="2" weight="33.333333">
		</inkscape:path-effect>
</defs>
<sodipodi:namedview  bordercolor="#666666" borderopacity="1.0" id="base" inkscape:current-layer="layer1" inkscape:cx="482.00807" inkscape:cy="302.50583" inkscape:document-units="mm" inkscape:pageopacity="0.0" inkscape:pageshadow="2" inkscape:window-height="1052" inkscape:window-maximized="1" inkscape:window-width="1920" inkscape:window-x="3840" inkscape:window-y="0" inkscape:zoom="0.5" pagecolor="#ffffff" showgrid="false" showguides="false" units="px">
	</sodipodi:namedview>
<path class="st0" d="M579.5,171.3c-147.6,0-267.5,120-267.5,267.5c0,118.5,96.3,214.8,214.8,214.8c89.1,0,162-72.6,162-162
	c0-60-48.9-108.9-108.9-108.9c-45.6,0-82.5,36.9-82.5,82.5c0,30.9,25.2,56.1,56.1,56.1c5.1,0,9.9-0.6,14.7-1.8
	c-9,13.2-24,21.6-41.1,21.6c-56.4,0-102.3-45.9-102.3-102.3c0-85.5,69.6-155.1,155.1-155.1c114.6,0,208.2,93.3,208.2,208.2
	c0,144-117,260.9-260.9,260.9c-173.4-0.3-314-141-314-314c0-21.3,1.8-42.3,5.4-63H104.7c-2.7,20.7-4.2,42-4.2,63
	c0,234.8,191.1,425.9,425.9,425.9c205.8,0,373.1-167.4,373.1-373.1C899.8,315.2,756.1,171.3,579.5,171.3"/>
</svg>
