<svg xmlns="http://www.w3.org/2000/svg" xmlns:xlink="http://www.w3.org/1999/xlink" viewBox="0 0 1336.16 450"><defs><style>.cls-1{fill:#4b3521;}.cls-2{fill:url(#New_Gradient_Swatch);}.cls-3{fill:#fff;}.cls-4{fill:url(#green_blue_gradient);}.cls-5{fill:url(#green_blue_gradient-2);}.cls-6{fill:url(#green_blue_gradient-3);}.cls-7{fill:url(#linear-gradient);}</style><linearGradient id="New_Gradient_Swatch" x1="450.04" y1="273.62" x2="1336.16" y2="273.62" gradientUnits="userSpaceOnUse"><stop offset="0" stop-color="#009fdd"/><stop offset="1" stop-color="#63b773"/></linearGradient><linearGradient id="green_blue_gradient" x1="119.51" y1="225" x2="161.58" y2="225" gradientUnits="userSpaceOnUse"><stop offset="0" stop-color="#63b773"/><stop offset="1" stop-color="#009fdd"/></linearGradient><linearGradient id="green_blue_gradient-2" x1="177.35" y1="225" x2="219.42" y2="225" xlink:href="#green_blue_gradient"/><linearGradient id="green_blue_gradient-3" x1="235.2" y1="225" x2="277.27" y2="225" xlink:href="#green_blue_gradient"/><linearGradient id="linear-gradient" x1="119.51" y1="225" x2="277.27" y2="225" xlink:href="#New_Gradient_Swatch"/></defs><g id="Layer_1" data-name="Layer 1"><path class="cls-1" d="M488.93,158.57l29.91,40.16H501l-27.6-38.57h-2.63v38.57H456.2V104.49h17.09q19.14,0,27.65,7,9.39,7.81,9.39,20.63a26.22,26.22,0,0,1-21.4,26.43Zm-18.15-10.8h4.63q20.71,0,20.72-15.45,0-14.46-20.15-14.46h-5.2Z"/><path class="cls-1" d="M532.5,151.18q0-19.89,15-34.18a49.87,49.87,0,0,1,35.79-14.28,48.91,48.91,0,0,1,35.42,14.41q14.83,14.4,14.83,34.6t-14.89,34.49q-15,14.22-36.11,14.22-18.71,0-33.6-12.64Q532.51,173.84,532.5,151.18Zm14.71.19q0,15.62,10.76,25.69a35,35,0,0,0,24.72,10.07q15.21,0,25.65-10.25a34.26,34.26,0,0,0,10.45-25.27q0-15.08-10.32-25.27t-25.41-10.25a34.86,34.86,0,0,0-25.46,10.25A33.57,33.57,0,0,0,547.21,151.37Z"/><path class="cls-1" d="M672.57,104.49v56.76q0,12.15,4.06,17.77,6.07,8.11,17.09,8.11T710.86,179q4.07-5.45,4.07-17.77V104.49h14.58v60.67q0,14.9-9.51,24.54a37.45,37.45,0,0,1-52.5,0Q658,180.06,658,165.16V104.49Z"/><path class="cls-1" d="M758.82,198.73V98.08L829.28,170V104.49h14.58v100L773.4,132.75v66Z"/><path class="cls-1" d="M873.16,198.73V104.49h20.28q14.58,0,23,2.81a43.27,43.27,0,0,1,16.46,9.34q15,13.3,15,35T932.3,186.77a45.9,45.9,0,0,1-16.4,9.34q-8,2.63-22.71,2.62Zm14.58-13.37h6.57a56.17,56.17,0,0,0,16.33-2,33.24,33.24,0,0,0,11.77-6.78q10.76-9.57,10.76-25t-10.64-25.15q-9.57-8.59-28.22-8.6h-6.57Z"/><path class="cls-1" d="M995.71,117.86v80.87H981.13V117.86H958.91V104.49h59v13.37Z"/><path class="cls-1" d="M1088.52,175.84h-41.36l-10.76,22.89h-15.71L1068.5,98.57l46.12,100.16h-16Zm-5.94-13.36-14.33-32-15,32Z"/><path class="cls-1" d="M1132.85,198.73V104.49h14.52a64.87,64.87,0,0,1,15.45,1.47,23.36,23.36,0,0,1,9.83,4.94,25.6,25.6,0,0,1,6.44,9,26.59,26.59,0,0,1,2.44,11,22,22,0,0,1-8,17.15,23.27,23.27,0,0,1,12.14,9,26.06,26.06,0,0,1-3.5,33.45A26.43,26.43,0,0,1,1171.4,197a64.56,64.56,0,0,1-16.46,1.77ZM1147.43,145H1152q8.13,0,11.92-3.51t3.78-10.35q0-6.64-3.88-10.1t-11.26-3.45h-5.13Zm0,40.4h9q9.88,0,14.52-3.78a13,13,0,0,0,4.88-10.38,13.15,13.15,0,0,0-4.7-10.25q-4.56-4.09-16.33-4.09h-7.38Z"/><path class="cls-1" d="M1229.36,104.49v80.87h28.41v13.37h-43V104.49Z"/><path class="cls-1" d="M1331.07,117.86h-38.74V140.5h37.61v13.37h-37.61v31.49h38.74v13.37h-53.32V104.49h53.32Z"/><path class="cls-2" d="M539.1,223.51v20.75q-14.77-12.7-30.56-12.71a38.4,38.4,0,0,0-29.32,12.86q-12,12.78-12,31.28,0,18.27,12,30.83a39.06,39.06,0,0,0,29.39,12.56,35.13,35.13,0,0,0,15.28-3,43.06,43.06,0,0,0,7.27-4.06,85.39,85.39,0,0,0,7.94-6.16V327a60.28,60.28,0,0,1-30.71,8.49q-24.21,0-41.31-17.37t-17-42.26a60.65,60.65,0,0,1,14.26-39.55Q481.85,215,509.71,215A56.42,56.42,0,0,1,539.1,223.51Z"/><path class="cls-2" d="M582.27,262.68H631V217.27h17v116.1H631V279.15h-48.7v54.22h-17V217.27h17Z"/><path class="cls-2" d="M742.87,305.17H694.54L682,333.37H663.61L719.47,210l53.89,123.4H754.71Zm-7-16.47-16.74-39.48L701.63,288.7Z"/><path class="cls-2" d="M813.83,233.73v99.64h-17V233.73H770.84V217.27h68.87v16.46Z"/><path class="cls-2" d="M894.66,283.89l35,49.48H908.77l-32.25-47.53h-3.07v47.53h-17V217.27h20q22.36,0,32.31,8.64,11,9.63,11,25.42,0,12.33-6.87,21.2A30.53,30.53,0,0,1,894.66,283.89Zm-21.21-13.31h5.41q24.21,0,24.21-19,0-17.82-23.55-17.82h-6.07Z"/><path class="cls-2" d="M939.88,274.79q0-24.51,17.47-42.11t41.82-17.6q24.14,0,41.39,17.75a58.85,58.85,0,0,1,17.33,42.64q0,25-17.41,42.48a57.4,57.4,0,0,1-42.18,17.52q-21.87,0-39.27-15.56Q939.88,302.69,939.88,274.79Zm17.18.23q0,19.25,12.58,31.65t28.88,12.41a40.06,40.06,0,0,0,30-12.63q12.21-12.79,12.21-31.13,0-18.58-12.06-31.13a41.26,41.26,0,0,0-59.44,0Q957.05,256.67,957.06,275Z"/><path class="cls-2" d="M1075.18,274.79q0-24.51,17.47-42.11t41.82-17.6q24.13,0,41.39,17.75a58.85,58.85,0,0,1,17.33,42.64q0,25-17.41,42.48a57.4,57.4,0,0,1-42.18,17.52q-21.87,0-39.27-15.56Q1075.18,302.69,1075.18,274.79Zm17.18.23q0,19.25,12.58,31.65t28.88,12.41a40.06,40.06,0,0,0,30-12.63Q1176,293.66,1176,275.32q0-18.58-12.06-31.13a41.26,41.26,0,0,0-59.44,0Q1092.35,256.67,1092.36,275Z"/><path class="cls-2" d="M1212.16,333.37l23.76-124.83,38.75,90.24,40.14-90.24,21.35,124.83h-17.47l-10.9-70.08-33.41,75.42-32.46-75.5-12.14,70.16Z"/><path class="cls-3" d="M114.21,358.44H114a157.92,157.92,0,0,1-69.09-96.9,158.34,158.34,0,0,0,69.34,96.89Z"/><path class="cls-3" d="M119.51,225a21,21,0,1,1,21,21A21,21,0,0,1,119.51,225Z"/><path class="cls-3" d="M177.35,225a21,21,0,1,1,21,21A21,21,0,0,1,177.35,225Z"/><path class="cls-3" d="M271.87,364.6c0,.08-.09.17-.14.28a158,158,0,0,1-146.67,0l-.15-.28A157.62,157.62,0,0,0,271.87,364.6Z"/><path class="cls-3" d="M277.27,225a21,21,0,1,1-21-21A21,21,0,0,1,277.27,225Z"/><path class="cls-3" d="M317,329.11h.09a158.53,158.53,0,0,1-37.82,31.56l-.17,0,.1-.17A157.29,157.29,0,0,0,317,329.11Z"/><path class="cls-3" d="M354.25,249.41a155.72,155.72,0,0,1-6.4,26.25l0-.08A159,159,0,0,0,354.25,249.41Z"/><path class="cls-1" d="M356.24,227l-.08.13a158.12,158.12,0,0,1-1.58,20.06.43.43,0,0,1,0,.11c-.08.63-.18,1.27-.28,1.9l0,.19a159,159,0,0,1-6.43,26.17l0,.08L369,323.48l-51.91,5.62H317a157.29,157.29,0,0,1-37.8,31.41l-.1.17.17,0,114-23.16ZM216.87,45a26.3,26.3,0,1,0-37,0c-37.48,7.7-53.42,37.25-55,40.4a157.62,157.62,0,0,1,147,0C270.19,82.1,254.23,52.68,216.87,45Zm176.37,67.5A26.28,26.28,0,0,0,345,119C319.76,90.55,286.4,91.36,282.6,91.56a158,158,0,0,1,73.46,127.23c2.08-3.22,19.45-31.68,7.46-67.79a26.29,26.29,0,0,0,29.72-38.5ZM124.91,364.61l.15.28A82,82,0,0,0,179.92,405a26.29,26.29,0,1,0,36.94,0,82,82,0,0,0,54.87-40.12c0-.11.1-.2.14-.28A157.62,157.62,0,0,1,124.91,364.61ZM61.77,303.88a158.06,158.06,0,0,1-16.9-42.33c-.51-2.16-1-4.32-1.39-6.49-.13-.65-.25-1.29-.36-1.94a154.86,154.86,0,0,1-2.4-21.91c-2.11,3.25-19.45,31.7-7.45,67.79a26.3,26.3,0,1,0,18.47,32A82,82,0,0,0,114,358.45h.25A156.75,156.75,0,0,1,61.77,303.88ZM51.74,119a26.29,26.29,0,1,0-18.47,32c-12,36.14,5.4,64.63,7.46,67.8A157.63,157.63,0,0,1,114.24,91.56C110.71,91.37,77.15,90.39,51.74,119Z"/><path class="cls-4" d="M161.58,225a21,21,0,1,1-21-21A21,21,0,0,1,161.58,225Z"/><path class="cls-5" d="M219.42,225a21,21,0,1,1-21-21A21,21,0,0,1,219.42,225Z"/><path class="cls-6" d="M277.27,225a21,21,0,1,1-21-21A21,21,0,0,1,277.27,225Z"/><path class="cls-7" d="M140.54,204a21,21,0,1,0,21,21A21,21,0,0,0,140.54,204Zm115.69,0a21,21,0,1,0,21,21A21,21,0,0,0,256.23,204Zm-57.84,0a21,21,0,1,0,21,21A21,21,0,0,0,198.39,204Z"/><path class="cls-3" d="M347.85,275.66l0-.08a159,159,0,0,0,6.43-26.17l0-.19c.1-.63.19-1.26.28-1.9a.43.43,0,0,0,0-.11,159.73,159.73,0,0,0,1.52-22,157.72,157.72,0,1,0-313,27.92l.36,1.94c.41,2.17.88,4.33,1.39,6.49a158.34,158.34,0,0,0,69.34,96.89H114c3.6,2.3,7.31,4.44,11.1,6.44l-.15-.28a157.62,157.62,0,0,0,147,0c0,.08-.09.17-.14.28q3.81-2,7.5-4.22l-.17,0,.1-.17A157.29,157.29,0,0,0,317,329.11h.09L369,323.48ZM140.54,246a21,21,0,1,1,21-21A21,21,0,0,1,140.54,246Zm57.85,0a21,21,0,1,1,21-21A21,21,0,0,1,198.39,246Zm57.84,0a21,21,0,1,1,21-21A21,21,0,0,1,256.23,246Z"/></g></svg>