<?xml version="1.0" encoding="UTF-8" standalone="no"?>
<svg
   xmlns:dc="http://purl.org/dc/elements/1.1/"
   xmlns:cc="http://creativecommons.org/ns#"
   xmlns:rdf="http://www.w3.org/1999/02/22-rdf-syntax-ns#"
   xmlns:svg="http://www.w3.org/2000/svg"
   xmlns="http://www.w3.org/2000/svg"
   xmlns:sodipodi="http://sodipodi.sourceforge.net/DTD/sodipodi-0.dtd"
   xmlns:inkscape="http://www.inkscape.org/namespaces/inkscape"
   width="512"
   height="512"
   viewBox="0 0 512 512"
   version="1.1"
   preserveAspectRatio="xMidYMid"
   id="svg8"
   sodipodi:docname="Y_Combinator_logo.svg"
   inkscape:version="0.92.5 (2060ec1f9f, 2020-04-08)"
   inkscape:export-filename="/home/djl11/ivy_all/submodules/unifyai.github.io/img/venture_backed/Y_Combinator_logo.png"
   inkscape:export-xdpi="96"
   inkscape:export-ydpi="96">
  <metadata
     id="metadata14">
    <rdf:RDF>
      <cc:Work
         rdf:about="">
        <dc:format>image/svg+xml</dc:format>
        <dc:type
           rdf:resource="http://purl.org/dc/dcmitype/StillImage" />
        <dc:title></dc:title>
      </cc:Work>
    </rdf:RDF>
  </metadata>
  <defs
     id="defs12" />
  <sodipodi:namedview
     pagecolor="#ffffff"
     bordercolor="#666666"
     borderopacity="1"
     objecttolerance="10"
     gridtolerance="10"
     guidetolerance="10"
     inkscape:pageopacity="0"
     inkscape:pageshadow="2"
     inkscape:window-width="1848"
     inkscape:window-height="1016"
     id="namedview10"
     showgrid="false"
     inkscape:zoom="0.65186406"
     inkscape:cx="32.332103"
     inkscape:cy="364.42021"
     inkscape:window-x="72"
     inkscape:window-y="27"
     inkscape:window-maximized="1"
     inkscape:current-layer="svg8" />
  <g
     id="g6"
     transform="matrix(2.0029962,0,0,2.0029962,-0.3835136,-0.3835136)">
    <rect
       x="0"
       y="0"
       width="256"
       height="256"
       id="rect2"
       style="fill:#fb651e" />
    <path
       d="M 119.37365,144.74581 75.43296,62.431573 h 20.081493 l 25.847467,52.092587 c 0.39765,0.92786 0.86158,1.88885 1.39179,2.88299 0.5302,0.99414 0.99413,2.0214 1.39178,3.08181 0.26511,0.39766 0.46393,0.76217 0.59648,1.09355 0.13256,0.33138 0.26511,0.62961 0.39766,0.89472 0.66276,1.32551 1.25923,2.61788 1.78944,3.87712 0.5302,1.25924 0.99413,2.41905 1.39178,3.47946 1.06042,-2.25338 2.22023,-4.67241 3.47947,-7.25717 1.25924,-2.58476 2.5516,-5.26889 3.87712,-8.05248 l 26.24512,-52.092587 h 18.68971 l -44.33835,83.308377 v 53.08672 h -16.90027 z"
       id="path4"
       inkscape:connector-curvature="0"
       style="fill:#ffffff" />
  </g>
</svg>
