<?xml version="1.0" encoding="UTF-8" standalone="no"?>
<!-- Created with Inkscape (http://www.inkscape.org/) -->

<svg
   xmlns:dc="http://purl.org/dc/elements/1.1/"
   xmlns:cc="http://creativecommons.org/ns#"
   xmlns:rdf="http://www.w3.org/1999/02/22-rdf-syntax-ns#"
   xmlns:svg="http://www.w3.org/2000/svg"
   xmlns="http://www.w3.org/2000/svg"
   xmlns:sodipodi="http://sodipodi.sourceforge.net/DTD/sodipodi-0.dtd"
   xmlns:inkscape="http://www.inkscape.org/namespaces/inkscape"
   version="1.1"
   id="svg2"
   width="512"
   height="512"
   viewBox="0 0 512 512"
   sodipodi:docname="fast.svg"
   inkscape:version="0.92.5 (2060ec1f9f, 2020-04-08)"
   inkscape:export-filename="/home/djl11/ivy_all/submodules/unifyai.github.io/img/prototype/fast.png"
   inkscape:export-xdpi="96"
   inkscape:export-ydpi="96">
  <metadata
     id="metadata8">
    <rdf:RDF>
      <cc:Work
         rdf:about="">
        <dc:format>image/svg+xml</dc:format>
        <dc:type
           rdf:resource="http://purl.org/dc/dcmitype/StillImage" />
        <dc:title></dc:title>
      </cc:Work>
    </rdf:RDF>
  </metadata>
  <defs
     id="defs6" />
  <sodipodi:namedview
     pagecolor="#ffffff"
     bordercolor="#666666"
     borderopacity="1"
     objecttolerance="10"
     gridtolerance="10"
     guidetolerance="10"
     inkscape:pageopacity="0"
     inkscape:pageshadow="2"
     inkscape:window-width="1848"
     inkscape:window-height="1016"
     id="namedview4"
     showgrid="false"
     inkscape:zoom="0.62384"
     inkscape:cx="229.11823"
     inkscape:cy="282.10743"
     inkscape:window-x="72"
     inkscape:window-y="27"
     inkscape:window-maximized="1"
     inkscape:current-layer="svg2" />
  <path
     style="fill:#009600;fill-opacity:1;stroke-width:0.68974322"
     d="m 242.24222,435.60773 c -22.52653,-2.36703 -41.50872,-8.13562 -60.2174,-18.2997 -43.99277,-23.90051 -73.78922,-67.96521 -79.81097,-118.02903 -0.93672,-7.78775 -0.94309,-28.80387 -0.0109,-35.97749 4.78668,-36.83576 20.40193,-68.12259 46.66153,-93.49146 43.23255,-41.7661 106.88286,-54.56304 163.04129,-32.7796 10.95201,4.24819 30.34922,14.57361 30.34922,16.15534 0,0.25541 -4.43225,4.88873 -9.84944,10.29625 l -9.84943,9.83187 -9.29095,-4.68326 c -14.33497,-7.22578 -30.60901,-12.01356 -44.29541,-13.0316 l -6.03525,-0.44893 v 6.31098 6.31098 h -6.89742 -6.89743 v -6.20769 -6.2077 h -3.38018 c -5.00693,0 -18.05547,2.40012 -26.10948,4.80251 -33.326,9.94064 -61.86209,34.188 -77.32481,65.70352 -6.28036,12.80041 -11.14556,29.9 -12.2257,42.96926 l -0.45708,5.53047 6.33888,0.0877 6.33889,0.0876 0.0555,6.79724 0.0555,6.79724 -6.39529,0.19948 -6.39528,0.19946 0.47932,5.49483 c 2.69542,30.89965 19.70484,63.43193 43.58822,83.36703 21.28636,17.7674 43.3913,27.11777 71.12054,30.08395 l 4.31091,0.46115 v -6.62028 -6.62029 h 6.89742 6.89744 v 6.5868 6.58681 l 4.31089,-0.43819 c 36.11037,-3.67054 66.84503,-20.57978 88.94754,-48.93609 13.48469,-17.30011 22.39273,-38.8281 25.3551,-61.27547 1.2508,-9.4779 1.74078,-8.74431 -5.84053,-8.74431 h -6.55255 v -6.89743 c 0,-3.7936 0.23278,-6.92748 0.5173,-6.9642 0.28451,-0.0366 3.15558,-0.11615 6.38013,-0.17651 7.0406,-0.13181 6.83109,0.30587 5.19474,-10.85226 -2.02997,-13.84218 -5.9178,-26.2753 -12.07421,-38.61286 l -2.85486,-5.72117 10.20726,-10.22432 10.20728,-10.22433 1.21906,1.55515 c 0.67048,0.85534 3.63912,6.36612 6.59699,12.24617 8.24503,16.39059 13.29547,33.17151 15.33564,50.95521 1.22388,10.66832 0.51017,34.24575 -1.33155,43.98776 -8.16419,43.18578 -31.79434,79.41151 -67.28741,103.15369 -19.99179,13.37298 -44.75049,22.18762 -69.26481,24.65979 -6.6706,0.67271 -24.30941,0.81846 -29.75831,0.2459 z m -22.62066,-155.6115 -36.01069,-36.01558 15.86631,-15.85507 15.8663,-15.85506 20.34819,20.33944 20.34822,20.33944 56.3887,-56.38555 56.3887,-56.38556 15.70188,15.71303 15.70188,15.71302 -72.10926,72.05883 c -39.66008,39.63236 -72.19256,72.12403 -72.29438,72.20375 -0.10187,0.0797 -16.38995,-16.0621 -36.19585,-35.87069 z M 238.44863,114.1461 v -7.06831 l -3.1228,-10e-4 c -1.71756,-6.8e-4 -3.81264,-0.48473 -4.65577,-1.07528 -1.49683,-1.0484 -1.53296,-1.39737 -1.53296,-14.805189 0,-12.869991 0.0837,-13.77628 1.33415,-14.445495 0.84777,-0.453714 10.25909,-0.714009 25.81609,-0.714009 21.33667,0 24.62122,0.139252 25.56583,1.083883 0.91051,0.910489 1.0839,3.214107 1.0839,14.400148 0,15.255742 0.13107,14.913572 -5.90464,15.414112 l -3.75177,0.31112 v 6.98444 6.98446 h -17.41602 -17.41601 z"
     id="path817"
     inkscape:connector-curvature="0" />
</svg>
