<?xml version="1.0" encoding="UTF-8" standalone="no"?>
<!-- Created with Inkscape (http://www.inkscape.org/) -->

<svg
   xmlns:dc="http://purl.org/dc/elements/1.1/"
   xmlns:cc="http://creativecommons.org/ns#"
   xmlns:rdf="http://www.w3.org/1999/02/22-rdf-syntax-ns#"
   xmlns:svg="http://www.w3.org/2000/svg"
   xmlns="http://www.w3.org/2000/svg"
   xmlns:sodipodi="http://sodipodi.sourceforge.net/DTD/sodipodi-0.dtd"
   xmlns:inkscape="http://www.inkscape.org/namespaces/inkscape"
   version="1.1"
   id="svg2"
   width="512"
   height="512"
   viewBox="0 0 512 512"
   sodipodi:docname="backend.svg"
   inkscape:version="0.92.5 (2060ec1f9f, 2020-04-08)"
   inkscape:export-filename="/media/djl11/HDD1/Ivy/media/explanation/any_code_pipe_fw_hw/icons/backend.png"
   inkscape:export-xdpi="96"
   inkscape:export-ydpi="96">
  <metadata
     id="metadata8">
    <rdf:RDF>
      <cc:Work
         rdf:about="">
        <dc:format>image/svg+xml</dc:format>
        <dc:type
           rdf:resource="http://purl.org/dc/dcmitype/StillImage" />
        <dc:title></dc:title>
      </cc:Work>
    </rdf:RDF>
  </metadata>
  <defs
     id="defs6" />
  <sodipodi:namedview
     pagecolor="#ffffff"
     bordercolor="#666666"
     borderopacity="1"
     objecttolerance="10"
     gridtolerance="10"
     guidetolerance="10"
     inkscape:pageopacity="0"
     inkscape:pageshadow="2"
     inkscape:window-width="1848"
     inkscape:window-height="1016"
     id="namedview4"
     showgrid="false"
     inkscape:zoom="0.65186406"
     inkscape:cx="270.3249"
     inkscape:cy="246.80772"
     inkscape:window-x="72"
     inkscape:window-y="27"
     inkscape:window-maximized="1"
     inkscape:current-layer="svg2" />
  <g
     id="g816">
    <path
       sodipodi:nodetypes="scsscscssscccscsscscsscscsccccssssscssscscssssscscscscscsssccscssssssssssscsccccccssssssscsssscscccccccscssssccsccscscsccscscsscsccsc"
       inkscape:connector-curvature="0"
       id="path817"
       d="m 239.88712,457.88729 c -13.80996,-1.04875 -18.5624,-2.6902 -20.90506,-7.22042 -0.93177,-1.80183 -2.84249,-12.24214 -4.24605,-23.20069 -3.47721,-27.14866 -2.63486,-24.8578 -10.03086,-27.28024 -3.50657,-1.14851 -9.5645,-3.68302 -13.46205,-5.63221 -8.31432,-4.15807 -5.42158,-5.41396 -28.12286,12.20961 -17.16955,13.32914 -20.94854,14.93424 -27.66122,11.74886 -5.27427,-2.5028 -25.50372,-21.38109 -35.665232,-33.28308 -8.161348,-9.55924 -10.208264,-14.86218 -7.623506,-19.7502 0.831675,-1.5728 7.497004,-10.68215 14.811858,-20.24304 l 13.29971,-17.38341 -4.2233,-9.32711 c -2.32282,-5.1299 -4.8686,-11.33263 -5.65727,-13.78386 -1.63765,-5.08976 0.58095,-4.45215 -29.023109,-8.34098 -10.717244,-1.40785 -19.803796,-3.22784 -21.427747,-4.2919 -5.443374,-3.56663 -6.100501,-7.61673 -6.100501,-37.59963 0,-37.89244 -0.91866,-36.64046 29.7458,-40.53864 26.452647,-3.36275 25.053057,-2.93019 26.773627,-8.27481 0.80624,-2.50442 3.35151,-8.71814 5.65616,-13.80828 l 4.19026,-9.25482 -14.08091,-18.31593 c -7.744474,-10.07375 -14.409056,-19.9568 -14.810164,-21.96234 -0.541449,-2.70721 0.144053,-5.14372 2.66146,-9.45975 4.402297,-7.5476 32.218504,-35.352114 39.778534,-39.761793 5.38903,-3.143354 6.23406,-3.30051 10.64364,-1.979371 2.63443,0.789296 6.55643,2.945042 8.71559,4.790557 2.15916,1.84551 9.80943,7.874607 17.00061,13.397987 l 13.07486,10.04251 11.20743,-4.79095 c 6.16408,-2.63502 12.43545,-5.17389 13.93637,-5.64192 3.2521,-1.01413 3.19983,-0.79992 6.38944,-26.185554 3.81792,-30.38635 2.92925,-29.745796 41.26738,-29.745796 38.14466,0 37.52463,-0.428728 41.26292,28.531681 3.47699,26.936289 3.36537,26.461349 6.43325,27.372169 1.47928,0.43919 7.71947,2.97758 13.86711,5.64088 l 11.17752,4.84237 17.64543,-13.52308 c 9.705,-7.437693 19.25476,-14.084082 21.22172,-14.769766 6.41418,-2.235999 12.916,1.940544 30.82677,19.802046 18.19942,18.14933 23.37725,25.54311 22.17855,31.67018 -0.45725,2.33716 -5.71526,10.2943 -13.0201,19.70382 -17.48623,22.52438 -16.28317,19.99604 -12.80521,26.91149 1.6236,3.22829 4.19118,9.29308 5.70574,13.47732 3.19409,8.82426 0.76045,7.83973 27.91057,11.29115 30.66447,3.89818 29.7458,2.6462 29.7458,40.53864 0,29.9829 -0.65712,34.033 -6.10048,37.59963 -1.62396,1.06406 -10.71052,2.88405 -21.42776,4.2919 -29.60405,3.88883 -27.38546,3.25122 -29.02309,8.34098 -0.78869,2.45123 -3.33233,8.64928 -5.65253,13.77347 l -4.21856,9.31673 12.26521,15.80247 c 15.91288,20.50213 17.59513,23.39233 16.62515,28.56276 -0.94509,5.03779 -11.79208,17.9414 -27.80183,33.07317 -12.96094,12.25015 -18.61026,15.65335 -24.14649,14.54612 -1.98232,-0.39647 -11.83407,-7.05665 -21.89277,-14.80037 l -18.28855,-14.07954 -9.23013,4.24289 c -5.07658,2.33358 -11.26104,4.87693 -13.74326,5.65188 -5.17459,1.6155 -4.52467,-0.60963 -8.29858,28.41169 -2.60828,20.05781 -3.88791,23.68687 -9.20672,26.11028 -2.73518,1.24624 -29.26607,4.0075 -34.43791,3.58422 -1.00165,-0.082 -7.15974,-0.55447 -13.68466,-1.04998 z m 31.24437,-28.18815 c 0.33459,-1.50246 1.72756,-11.40388 3.09548,-22.00315 1.36791,-10.59925 2.96618,-20.16652 3.55172,-21.26059 2.08185,-3.88998 5.67802,-5.89198 16.46593,-9.16669 6.00987,-1.82431 15.49611,-5.73014 21.08054,-8.67964 15.40009,-8.13376 15.84147,-8.03764 36.69946,7.99256 9.5576,7.34539 17.96309,13.35526 18.67887,13.35526 0.71578,0 5.65131,-4.37554 10.96782,-9.72342 8.76824,-8.81997 9.5242,-9.95112 8.13608,-12.17387 -0.84168,-1.34773 -6.98001,-9.59541 -13.64075,-18.32816 -14.89804,-19.53252 -14.88296,-19.45229 -6.65608,-35.44036 2.94367,-5.72075 6.80598,-15.2123 8.5829,-21.09234 3.14939,-10.42175 7.7916,-17.28505 11.78185,-17.41889 0.82415,-0.0277 10.78645,-1.27588 22.13843,-2.77387 l 20.63995,-2.72359 0.34039,-14.76887 0.34041,-14.76887 -3.98275,-0.677 c -2.19051,-0.37235 -12.30676,-1.75658 -22.48056,-3.07604 -10.17379,-1.31948 -19.56533,-3.06572 -20.87008,-3.88056 -3.05062,-1.90514 -4.36103,-4.53721 -7.44365,-14.95138 -1.38362,-4.67434 -5.48131,-14.52722 -9.10599,-21.89529 -5.73997,-11.66793 -6.44933,-13.88805 -5.49768,-17.2063 0.60095,-2.09539 6.87972,-11.29525 13.95279,-20.44411 7.07309,-9.14887 12.86016,-17.26306 12.86016,-18.03151 0,-0.76846 -4.37553,-5.74709 -9.72342,-11.0636 -11.29047,-11.22426 -8.20003,-11.62444 -27.77213,3.59632 -14.49478,11.27224 -20.51255,15.22163 -23.20377,15.22835 -0.99811,0.002 -7.8275,-2.96218 -15.17642,-6.58818 -7.34893,-3.626 -17.40216,-7.71084 -22.34052,-9.07743 -8.81888,-2.44043 -12.60302,-4.70063 -14.8268,-8.85581 -0.61579,-1.1506 -2.22211,-10.71786 -3.56957,-21.2606 -1.34748,-10.542708 -2.71569,-20.397858 -3.04048,-21.900325 -0.57226,-2.647365 -1.03817,-2.731758 -15.08173,-2.731758 h -14.49123 l -0.67008,3.945873 c -0.36855,2.17023 -1.74966,12.269891 -3.06914,22.44369 -1.31946,10.1738 -3.03581,19.51746 -3.8141,20.76369 -2.10687,3.37367 -5.36974,5.0585 -14.90734,7.69766 -4.73511,1.31025 -14.72704,5.40085 -22.20432,9.09021 -12.55946,6.19698 -13.90043,6.60443 -17.60466,5.34911 -2.20529,-0.74733 -11.38538,-7.07602 -20.40018,-14.06372 -9.01481,-6.98771 -16.94971,-12.71113 -17.63314,-12.71872 -0.68343,-0.007 -5.59247,4.36175 -10.909,9.70964 -11.29329,11.35993 -11.8843,7.88592 5.10259,29.99351 6.26622,8.15516 11.97202,16.48819 12.67956,18.51784 1.15535,3.31425 0.60177,5.08168 -5.43309,17.34646 -3.69573,7.5109 -7.85156,17.48066 -9.2352,22.155 -3.08536,10.42338 -4.39264,13.04601 -7.45689,14.95966 -1.31203,0.81938 -10.70357,2.5732 -20.87007,3.89738 -10.16653,1.32416 -20.260226,2.70155 -22.430463,3.06086 l -3.945869,0.65326 v 14.49121 c 0,14.0376 0.08549,14.51035 2.731759,15.10191 1.502466,0.33588 11.441449,1.74896 22.086633,3.14016 10.64518,1.39123 20.21244,2.98845 21.26059,3.54941 3.73896,2.00102 5.83732,5.62173 8.46141,14.60008 1.46375,5.00823 5.67298,15.26608 9.35388,22.79523 6.10136,12.48019 6.57688,14.03521 5.38321,17.60467 -0.72012,2.15342 -7.02702,11.29104 -14.01532,20.30583 -6.98833,9.0148 -12.72002,16.94896 -12.7371,17.63147 -0.0171,0.6825 4.47635,5.72144 9.98539,11.19763 l 10.01646,9.9567 18.07822,-13.92937 c 21.62842,-16.66487 21.88588,-16.72395 37.33046,-8.56669 5.58442,2.9495 15.07067,6.85373 21.08054,8.67607 16.93719,5.13578 17.25744,5.64492 20.57148,32.70464 1.06314,8.68092 2.23984,17.28595 2.61484,19.1223 l 0.68184,3.33882 h 14.44978 c 13.9953,0 14.46892,-0.0859 15.05815,-2.73176 z"
       style="fill:#009600;fill-opacity:1;stroke-width:1.21411467" />
    <circle
       r="69.416313"
       cy="256"
       cx="256"
       id="path812"
       style="opacity:1;fill:none;fill-opacity:1;fill-rule:evenodd;stroke:#009600;stroke-width:25;stroke-linecap:round;stroke-miterlimit:4;stroke-dasharray:none;stroke-dashoffset:0;stroke-opacity:1" />
  </g>
</svg>
