<?xml version="1.0" encoding="UTF-8" standalone="no"?>
<!-- Created with Inkscape (http://www.inkscape.org/) -->

<svg
   xmlns:dc="http://purl.org/dc/elements/1.1/"
   xmlns:cc="http://creativecommons.org/ns#"
   xmlns:rdf="http://www.w3.org/1999/02/22-rdf-syntax-ns#"
   xmlns:svg="http://www.w3.org/2000/svg"
   xmlns="http://www.w3.org/2000/svg"
   xmlns:sodipodi="http://sodipodi.sourceforge.net/DTD/sodipodi-0.dtd"
   xmlns:inkscape="http://www.inkscape.org/namespaces/inkscape"
   version="1.1"
   id="svg2"
   width="512"
   height="512"
   viewBox="0 0 512 512"
   sodipodi:docname="hardware.svg"
   inkscape:version="0.92.5 (2060ec1f9f, 2020-04-08)"
   inkscape:export-filename="/media/djl11/HDD1/Ivy/media/explanation/any_code_pipe_fw_hw/icons/hardware.png"
   inkscape:export-xdpi="96"
   inkscape:export-ydpi="96">
  <metadata
     id="metadata8">
    <rdf:RDF>
      <cc:Work
         rdf:about="">
        <dc:format>image/svg+xml</dc:format>
        <dc:type
           rdf:resource="http://purl.org/dc/dcmitype/StillImage" />
        <dc:title></dc:title>
      </cc:Work>
    </rdf:RDF>
  </metadata>
  <defs
     id="defs6" />
  <sodipodi:namedview
     pagecolor="#ffffff"
     bordercolor="#666666"
     borderopacity="1"
     objecttolerance="10"
     gridtolerance="10"
     guidetolerance="10"
     inkscape:pageopacity="0"
     inkscape:pageshadow="2"
     inkscape:window-width="1848"
     inkscape:window-height="1016"
     id="namedview4"
     showgrid="false"
     inkscape:zoom="0.59520807"
     inkscape:cx="171.16912"
     inkscape:cy="332.80018"
     inkscape:window-x="72"
     inkscape:window-y="27"
     inkscape:window-maximized="1"
     inkscape:current-layer="svg2" />
  <path
     style="fill:#009600;fill-opacity:1;stroke-width:0.45002005"
     d="m 99.424115,431.24879 c -6.441604,-1.73178 -13.209137,-7.13651 -16.328201,-13.04014 -3.335168,-6.31268 -3.054838,8.55213 -3.058712,-162.18865 -0.0033,-137.29504 0.07085,-153.99332 0.693061,-156.381999 2.265028,-8.69603 10.201333,-16.63338 18.895396,-18.897894 2.384171,-0.621005 19.198591,-0.695488 156.658331,-0.693949 149.22686,0.0018 154.0712,0.02777 156.69504,0.844402 6.70386,2.086474 12.7857,7.025803 15.92036,12.92962 3.34456,6.29912 3.06311,-8.633837 3.06126,162.43141 0,139.79666 -0.0678,154.16164 -0.72178,156.38684 -2.02424,6.88727 -7.01276,13.10875 -13.0505,16.27609 -6.34753,3.32988 8.52888,3.05321 -162.39779,3.02031 -133.40199,-0.0256 -154.25035,-0.11713 -156.366465,-0.68604 z M 273.91618,413.71611 c 30.4633,-3.1991 59.51474,-15.69856 84.45791,-36.3382 4.71423,-3.9009 15.10389,-14.34494 19.27634,-19.37729 8.46807,-10.21322 15.90443,-21.74239 21.47253,-33.29056 2.95227,-6.12293 3.60736,-7.70938 6.90659,-16.72614 1.84094,-5.03121 4.88812,-16.43159 6.09084,-22.7877 2.12995,-11.25595 3.0663,-26.72093 2.31229,-38.19001 -1.23454,-18.77798 -4.03983,-31.52183 -11.02193,-50.06975 -5.14723,-13.67362 -15.69081,-31.04079 -26.83947,-44.20945 -3.29783,-3.89533 -12.93839,-13.55718 -17.29404,-17.33218 -10.6905,-9.26538 -26.5347,-19.22208 -39.60177,-24.88621 -33.38599,-14.471749 -71.30136,-17.180803 -105.75471,-7.55617 -10.79759,3.01634 -17.91674,5.71529 -27.45122,10.40706 -10.78833,5.30878 -16.43162,8.77011 -26.10116,16.00923 -16.72684,12.5226 -31.43512,29.17758 -42.0887,47.65935 -21.024036,36.47241 -26.511515,80.12335 -15.26531,121.43032 5.09324,18.70738 13.73299,36.26896 25.7926,52.42737 21.74148,29.13089 52.01459,49.51018 87.32304,58.78422 9.94674,2.61259 19.38942,4.10403 29.06714,4.59103 2.84638,0.14322 5.2765,0.36304 5.40024,0.48848 0.38892,0.39416 16.54116,-0.32164 23.31879,-1.0334 z m -26.91894,-18.48092 c -0.8663,-0.0951 -3.47002,-0.37976 -5.78609,-0.63259 -2.31607,-0.25283 -5.69172,-0.67991 -7.50143,-0.94908 l -3.29041,-0.48937 -0.70608,-2.98835 c -2.27697,-9.63684 -3.70264,-18.92613 -4.80982,-31.33961 -1.02915,-11.53892 -0.53705,-45.82477 0.72666,-50.62726 0.11357,-0.43158 -0.9082,-1.40536 -2.83325,-2.70012 -4.13892,-2.78378 -9.05201,-7.12853 -12.02827,-10.63674 l -2.4914,-2.93673 -2.05767,4.42413 c -7.18957,15.45795 -12.69187,35.79223 -15.44446,57.07648 -0.68836,5.32273 -1.82489,18.96368 -1.82781,21.93847 0,1.64322 -0.19076,2.58762 -0.51824,2.58762 -0.70239,0 -8.7487,-4.95415 -13.43494,-8.27195 -11.70327,-8.28579 -23.38416,-20.07755 -32.89161,-33.20371 -2.56115,-3.53597 -7.2748,-11.0089 -8.27953,-13.12623 -0.93715,-1.97489 -0.85953,-2.13071 4.06892,-8.16732 8.40617,-10.29633 22.33855,-23.58755 35.51568,-33.88131 1.98638,-1.55173 4.32041,-3.38467 5.18669,-4.07318 2.06615,-1.64212 11.55752,-8.35898 15.40672,-10.903 2.85402,-1.88629 3.01431,-2.08226 2.74332,-3.35342 -0.56171,-2.63485 -0.24765,-12.34698 0.54529,-16.86105 0.4372,-2.48905 0.70122,-4.61926 0.58664,-4.7338 -0.40888,-0.40891 -13.76795,3.3483 -19.92671,5.60435 -19.13665,7.01008 -36.32434,16.32929 -56.50778,30.63868 -1.36132,0.96512 -2.59456,1.7599 -2.74055,1.76616 -0.66644,0.0285 -1.89426,-11.78908 -2.08922,-20.10852 -0.44054,-18.79971 2.7974,-37.06156 9.66876,-54.53145 l 1.66111,-4.22322 10.81308,0.26389 c 5.94718,0.14514 12.9394,0.56872 15.53827,0.94131 9.60486,1.37696 18.84522,2.95743 24.97611,4.27192 12.18254,2.61198 15.82725,3.56125 29.05586,7.56761 l 4.30471,1.30372 2.89561,-2.64016 c 3.74285,-3.41274 9.03914,-7.1353 12.76747,-8.97381 1.62453,-0.80109 2.95366,-1.59388 2.95366,-1.76175 0,-0.44691 -8.16422,-6.60151 -12.60056,-9.49896 -15.49338,-10.11895 -33.72864,-18.54983 -53.73064,-24.84179 -4.23338,-1.33169 -8.86151,-2.69035 -10.2847,-3.01923 -1.42319,-0.32888 -2.58762,-0.78445 -2.58762,-1.01234 0,-0.63472 10.5355,-10.92349 14.8989,-14.54997 13.41812,-11.15204 29.4378,-19.83429 47.17834,-25.56944 4.21724,-1.36332 5.14684,-1.53168 5.73983,-1.03951 1.39808,1.16028 8.8735,11.06253 12.5142,16.57681 9.19697,13.9299 20.31341,35.91188 26.77003,52.93587 l 1.89963,5.00874 3.43964,0.55109 c 5.64546,0.90453 11.42713,2.52367 15.14448,4.24121 1.92365,0.88877 3.60002,1.61596 3.7253,1.61596 0.32353,0 -0.32856,-14.81612 -0.84171,-19.12585 -2.33101,-19.57559 -8.3931,-41.87502 -16.73404,-61.55621 -1.23626,-2.91703 -2.17004,-5.38138 -2.07508,-5.47632 0.25835,-0.25833 11.29679,0.952 16.40381,1.79863 13.13742,2.17788 27.99683,7.29389 40.69419,14.01081 4.54277,2.40312 14.4096,8.35575 16.64467,10.04166 l 1.07617,0.81177 -1.04004,4.88415 c -4.1032,19.26892 -15.79575,47.39089 -28.99857,69.74503 -2.86695,4.85412 -2.88144,4.89585 -2.09057,6.01517 2.45504,3.47473 6.18813,12.12878 7.18349,16.65285 0.86898,3.94963 0.74991,3.83933 2.61709,2.42405 7.14043,-5.41233 17.40879,-15.734 25.46786,-25.60009 9.41427,-11.52513 16.44076,-21.90343 23.76505,-35.10156 1.92303,-3.46515 3.65808,-6.57375 3.85577,-6.90798 0.25908,-0.43807 0.81503,0.0644 1.99157,1.80007 13.98091,20.62526 21.74569,43.17612 24.00169,69.70667 l 0.28877,3.39604 -4.6425,2.18854 c -8.24886,3.8886 -9.93324,4.60046 -16.83357,7.1143 -15.41585,5.61611 -38.57286,11.31858 -55.30707,13.6195 -2.96747,0.408 -5.5194,0.81851 -5.67102,0.9122 -0.15161,0.0937 -0.63956,1.1389 -1.08432,2.32266 -1.52396,4.05602 -5.08879,10.70337 -7.63509,14.23704 -1.40073,1.94391 -2.45072,3.63044 -2.3333,3.74785 0.3632,0.36322 10.5955,2.29572 16.04379,3.03008 12.24685,1.65074 35.25745,1.75927 49.05219,0.23138 5.66711,-0.62768 18.67849,-2.60916 20.85888,-3.17655 0.95314,-0.24804 1.82919,-0.35478 1.94678,-0.23719 0.34922,0.34925 -2.43559,8.60796 -5.10461,15.13829 -5.27559,12.90773 -12.14032,24.18527 -21.91923,36.00936 -3.52842,4.26635 -14.8485,15.75071 -15.52542,15.75071 -0.77835,0 -10.60625,-4.80459 -15.63112,-7.64164 -8.67694,-4.89902 -26.39755,-17.25809 -34.13484,-23.80701 -1.05772,-0.8953 -3.39432,-2.84287 -5.19237,-4.32794 -4.26119,-3.51949 -7.53964,-6.44232 -11.74049,-10.46716 l -3.41376,-3.27068 -1.84058,0.64939 c -3.34266,1.17935 -10.60643,2.56592 -15.57619,2.97327 -2.69139,0.22063 -5.00476,0.51246 -5.14084,0.64854 -0.49048,0.49049 7.67446,15.17591 11.7687,21.16716 3.50822,5.13369 9.22019,12.62302 14.07211,18.45081 5.30067,6.36677 19.92658,21.20563 25.49136,25.86248 1.91349,1.60129 3.47906,3.02457 3.47906,3.16285 0,0.33101 -6.32724,2.72995 -11.70053,4.43619 -13.37581,4.24735 -24.1879,5.95075 -38.92673,6.13274 -5.69275,0.0703 -11.05924,0.0499 -11.92553,-0.0451 z m 15.1312,-126.75805 c 2.85111,-1.45601 5.7225,-4.64617 6.66097,-7.40043 0.99549,-2.92164 0.90526,-7.21145 -0.21466,-10.20473 -1.18167,-3.1583 -4.8126,-6.60672 -8.10931,-7.70171 -5.17307,-1.71822 -11.78954,0.0608 -15.05718,4.04853 -4.68984,5.72332 -4.29153,13.51391 0.9634,18.84413 2.81623,2.85658 5.74541,3.94579 10.07599,3.74675 2.53645,-0.11657 3.94807,-0.4477 5.68079,-1.33254 z M 117.72938,408.41426 c 6.08577,-2.20763 9.44877,-9.81702 6.85989,-15.52174 -1.47729,-3.2553 -2.59431,-4.45816 -5.47834,-5.89932 -8.44146,-4.21825 -17.83755,2.18185 -16.88312,11.49984 0.49255,4.80876 3.7073,8.66927 8.41045,10.09991 1.69422,0.51537 5.43788,0.42103 7.09112,-0.17869 z m 282.85308,-0.11256 c 1.14886,-0.39146 2.9236,-1.52185 3.94384,-2.51199 2.54442,-2.46927 3.55611,-4.87946 3.56826,-8.50096 0.0225,-6.67223 -4.98438,-11.67636 -11.68238,-11.67636 -7.22836,0 -12.92223,7.07181 -11.32291,14.06312 1.62813,7.1173 8.57315,10.98409 15.49319,8.62619 z M 119.12466,122.97473 c 10.24442,-5.10502 7.27599,-20.91731 -4.14643,-22.08732 -3.03208,-0.31058 -5.6384,0.43423 -8.10324,2.3157 -1.10131,0.84064 -2.1389,1.39193 -2.30575,1.22509 -0.16684,-0.16685 -0.25494,-0.10085 -0.19576,0.14666 0.0592,0.24751 -0.36231,1.46256 -0.93664,2.70012 -2.31018,4.9779 -1.45154,10.13069 2.28511,13.71336 2.59615,2.48917 4.06213,3.05365 8.09351,3.11645 2.33942,0.0364 3.43725,-0.19723 5.3092,-1.13006 z m 282.00444,0.33566 c 4.49804,-2.05045 6.98193,-5.91462 6.96546,-10.83603 -0.0157,-4.7005 -2.22166,-8.26963 -6.46035,-10.45277 -7.52191,-3.874174 -16.93083,2.08236 -16.93083,10.71843 0,3.91928 3.48162,9.09112 7.20031,10.69581 2.21451,0.95561 6.9966,0.89058 9.22541,-0.12544 z"
     id="path817"
     inkscape:connector-curvature="0" />
</svg>
