<?xml version="1.0" encoding="UTF-8" standalone="no"?>
<!-- Created with Inkscape (http://www.inkscape.org/) -->

<svg
   xmlns:dc="http://purl.org/dc/elements/1.1/"
   xmlns:cc="http://creativecommons.org/ns#"
   xmlns:rdf="http://www.w3.org/1999/02/22-rdf-syntax-ns#"
   xmlns:svg="http://www.w3.org/2000/svg"
   xmlns="http://www.w3.org/2000/svg"
   xmlns:sodipodi="http://sodipodi.sourceforge.net/DTD/sodipodi-0.dtd"
   xmlns:inkscape="http://www.inkscape.org/namespaces/inkscape"
   version="1.1"
   id="svg2"
   width="512"
   height="512"
   viewBox="0 0 512 512"
   sodipodi:docname="pipeline.svg"
   inkscape:version="0.92.5 (2060ec1f9f, 2020-04-08)"
   inkscape:export-filename="/media/djl11/HDD1/Ivy/media/explanation/any_code_pipe_fw_hw/icons/pipeline.png"
   inkscape:export-xdpi="96"
   inkscape:export-ydpi="96">
  <metadata
     id="metadata8">
    <rdf:RDF>
      <cc:Work
         rdf:about="">
        <dc:format>image/svg+xml</dc:format>
        <dc:type
           rdf:resource="http://purl.org/dc/dcmitype/StillImage" />
        <dc:title></dc:title>
      </cc:Work>
    </rdf:RDF>
  </metadata>
  <defs
     id="defs6" />
  <sodipodi:namedview
     pagecolor="#ffffff"
     bordercolor="#666666"
     borderopacity="1"
     objecttolerance="10"
     gridtolerance="10"
     guidetolerance="10"
     inkscape:pageopacity="0"
     inkscape:pageshadow="2"
     inkscape:window-width="1848"
     inkscape:window-height="1016"
     id="namedview4"
     showgrid="false"
     inkscape:zoom="0.65186406"
     inkscape:cx="-72.956821"
     inkscape:cy="83.169633"
     inkscape:window-x="72"
     inkscape:window-y="27"
     inkscape:window-maximized="1"
     inkscape:current-layer="svg2" />
  <path
     style="fill:#009600;fill-opacity:1;stroke-width:0.76668054"
     d="m 402.85692,364.80565 c -6.38362,-0.41781 -6.46804,-0.5255 -22.40711,-28.59038 -13.73546,-24.18487 -14.25459,-25.21689 -13.95527,-27.74232 0.57431,-4.84567 2.07583,-7.1857 6.50023,-10.13009 l 4.15022,-2.76194 -11.8389,-20.50555 -11.83888,-20.50557 -20.4937,11.83204 -20.4937,11.83205 2.32367,4.78379 c 2.92323,6.01817 2.99001,9.67394 0.25333,13.86864 -2.04591,3.13591 -2.5259,3.45023 -25.70619,16.83337 -23.1758,13.38056 -23.6935,13.64191 -27.44642,13.85431 -4.88905,0.27672 -9.34193,-2.43888 -12.24546,-7.46793 l -2.01171,-3.48438 -44.1031,25.19634 -44.10312,25.19633 -5.54355,1.13183 c -9.16544,1.87129 -15.34083,1.7044 -24.36987,-0.65865 -9.20602,-2.40936 -15.51028,-5.75176 -22.3848,-11.86798 -4.22162,-3.75594 -4.23941,-3.78434 -29.781908,-47.54393 l -25.557763,-43.78574 -3.523833,1.60675 c -3.72432,1.69817 -6.925642,1.69144 -10.917818,-0.023 -2.336744,-1.00349 -2.970929,-1.96908 -17.047901,-25.95678 C 3.9780013,212.08078 3.9269373,211.95383 6.7569114,206.21655 l 1.3859233,-2.8097 48.9370153,-28.2538 48.93702,-28.25381 3.12624,0.20462 c 6.38361,0.4178 6.46801,0.5255 22.40708,28.59038 13.73547,24.18486 14.25461,25.21689 13.95529,27.74232 -0.5743,4.84567 -2.07584,7.1857 -6.50022,10.13009 l -4.15024,2.76194 11.8389,20.50555 11.8389,20.50557 20.49266,-11.83145 20.49265,-11.83145 -1.3396,-3.28337 c -1.77069,-4.33995 -1.65567,-7.69351 0.38176,-11.13003 1.61314,-2.72087 2.53082,-3.31519 26.37922,-17.08407 21.3149,-12.30617 25.10118,-14.29687 27.57151,-14.49625 3.46029,-0.27927 7.20711,1.60703 9.98473,5.02672 l 2.05782,2.5335 41.77291,-24.11761 c 35.29404,-20.37703 42.65978,-24.4146 47.49101,-26.03249 17.19566,-5.75851 36.82178,-1.45309 51.03994,11.19673 4.22161,3.75594 4.23941,3.78433 29.7819,47.54393 l 25.55776,43.78575 3.52384,-1.60676 c 3.72432,-1.69817 6.92565,-1.69143 10.91781,0.023 2.33676,1.00351 2.97095,1.9691 17.04792,25.95679 16.33535,27.83609 16.38643,27.96303 13.55638,33.70032 l -1.38588,2.80969 -48.93699,28.25381 -48.93702,28.25379 z m 69.32535,-80.95187 -7.0918,-12.28335 -35.85411,20.70037 -35.85409,20.70039 7.09179,12.28335 7.0918,12.28334 35.8541,-20.70037 35.8541,-20.70038 z m -55.55786,-65.5618 c -26.33236,-45.609 -26.51107,-45.86669 -34.61982,-49.91648 -4.62633,-2.31056 -10.01486,-3.22256 -16.13799,-2.73131 -3.75015,0.30086 -4.45576,0.67599 -46.90826,24.93776 l -43.10085,24.63228 12.45951,21.5805 12.4595,21.58049 27.28287,-15.50195 c 30.95132,-17.58636 29.38215,-17.02205 35.79055,-12.87085 3.14008,2.03405 3.3798,2.40392 18.24261,28.14707 l 15.06072,26.08592 21.57886,-12.45856 21.57885,-12.45856 z m -147.11511,32.29771 -20.43278,-35.78728 -12.62109,7.2868 -12.62111,7.2868 20.44481,35.41146 c 11.24465,19.4763 20.7693,35.4984 21.16589,35.60466 0.39658,0.10628 6.07066,-3.00367 12.60906,-6.91098 l 11.88801,-7.10417 z m -45.83957,24.50208 -12.44622,-21.55748 -27.28286,15.50195 c -30.95132,17.58635 -29.38215,17.02204 -35.79054,12.87085 -3.1401,-2.03406 -3.37982,-2.40392 -18.24264,-28.14707 l -15.0607,-26.08593 -21.578858,12.45856 -21.578856,12.45856 23.68656,41.02632 c 26.329984,45.60488 26.511764,45.86699 34.614354,49.91376 5.38533,2.68966 11.88461,3.46857 18.02541,2.1603 4.47486,-0.95337 6.97789,-2.30289 46.41525,-25.02502 l 41.68534,-24.01729 z m -112.14377,-88.4368 -7.09181,-12.28335 -35.854087,20.70038 -35.854105,20.70036 7.091796,12.28336 7.091795,12.28335 35.854104,-20.70037 35.854097,-20.70038 z"
     id="path817"
     inkscape:connector-curvature="0" />
</svg>
