<?xml version="1.0" encoding="UTF-8" standalone="no"?>
<!-- Created with Inkscape (http://www.inkscape.org/) -->

<svg
   xmlns:dc="http://purl.org/dc/elements/1.1/"
   xmlns:cc="http://creativecommons.org/ns#"
   xmlns:rdf="http://www.w3.org/1999/02/22-rdf-syntax-ns#"
   xmlns:svg="http://www.w3.org/2000/svg"
   xmlns="http://www.w3.org/2000/svg"
   xmlns:sodipodi="http://sodipodi.sourceforge.net/DTD/sodipodi-0.dtd"
   xmlns:inkscape="http://www.inkscape.org/namespaces/inkscape"
   version="1.1"
   id="svg2"
   width="512"
   height="512"
   viewBox="0 0 512 512"
   sodipodi:docname="pipeline.svg"
   inkscape:version="0.92.5 (2060ec1f9f, 2020-04-08)"
   inkscape:export-filename="/home/djl11/ivy_all/submodules/unifyai.github.io/img/any_code_explained/pipeline.png"
   inkscape:export-xdpi="96"
   inkscape:export-ydpi="96">
  <metadata
     id="metadata8">
    <rdf:RDF>
      <cc:Work
         rdf:about="">
        <dc:format>image/svg+xml</dc:format>
        <dc:type
           rdf:resource="http://purl.org/dc/dcmitype/StillImage" />
        <dc:title />
      </cc:Work>
    </rdf:RDF>
  </metadata>
  <defs
     id="defs6" />
  <sodipodi:namedview
     pagecolor="#ffffff"
     bordercolor="#666666"
     borderopacity="1"
     objecttolerance="10"
     gridtolerance="10"
     guidetolerance="10"
     inkscape:pageopacity="0"
     inkscape:pageshadow="2"
     inkscape:window-width="1848"
     inkscape:window-height="1016"
     id="namedview4"
     showgrid="false"
     inkscape:zoom="0.65186406"
     inkscape:cx="-307.66833"
     inkscape:cy="93.908071"
     inkscape:window-x="72"
     inkscape:window-y="27"
     inkscape:window-maximized="1"
     inkscape:current-layer="svg2" />
  <path
     style="fill:#009600;fill-opacity:1;stroke-width:0.76668054"
     d="m 328.75637,423.6961 c -5.31947,-3.55365 -5.33874,-3.68912 -5.10994,-35.96355 0.19718,-27.81244 0.26361,-28.96576 1.78554,-31.00319 2.92021,-3.90932 5.39058,-5.18509 10.69441,-5.5228 l 4.97517,-0.3168 -10e-6,-23.67778 10e-6,-23.67778 -23.66408,-10e-6 -23.66409,10e-6 -0.37954,5.30472 c -0.47749,6.6735 -2.24755,9.87288 -6.71493,12.13726 -3.33977,1.69282 -3.91261,1.72503 -30.6789,1.72503 -26.76111,0 -27.34013,-0.0325 -30.69645,-1.72503 -4.3724,-2.20488 -6.87091,-6.78309 -6.87092,-12.59014 v -4.02342 l -50.79257,-0.23088 -50.79259,-0.2309 -5.36677,-1.79158 C 102.60756,299.14713 97.34296,295.9149 90.705107,289.35392 83.93714,282.66434 80.148691,276.61761 77.253292,267.88355 75.475232,262.52 75.474025,262.48651 75.233368,211.81834 l -0.240802,-50.69844 -3.855104,-0.37043 c -4.074441,-0.39151 -6.843502,-1.998 -9.443608,-5.47883 -1.521934,-2.03742 -1.58836,-3.19074 -1.785525,-31.00318 -0.228802,-32.274442 -0.20955,-32.409915 5.10992,-35.963559 l 2.605095,-1.74031 h 56.507596 l 56.50761,-8e-6 2.60509,1.740326 c 5.31947,3.553631 5.33871,3.689102 5.10991,35.963541 -0.19716,27.81244 -0.26359,28.96577 -1.78552,31.0032 -2.92019,3.90932 -5.39058,5.18508 -10.6944,5.5228 l -4.97518,0.31679 1e-5,23.67778 v 23.67779 h 23.66289 l 23.66288,-1e-5 0.48156,-3.51329 c 0.63651,-4.64385 2.4129,-7.49061 5.89563,-9.448 2.75745,-1.54978 3.84935,-1.60563 31.38711,-1.60563 24.61233,-1e-5 28.88669,0.16913 31.12575,1.23163 3.13634,1.48829 5.43803,4.99529 6.13367,9.34563 l 0.51538,3.22299 48.2352,-1e-5 c 40.75405,0 49.15175,0.18623 54.14467,1.20071 17.77113,3.61081 32.61514,17.15248 38.60352,35.21662 1.77805,5.36355 1.77927,5.39703 2.01991,56.0652 l 0.2408,50.69845 3.85511,0.37043 c 4.07444,0.3915 6.84351,1.998 9.4436,5.47882 1.52194,2.03745 1.58837,3.19077 1.78554,31.0032 0.22878,32.27444 0.20955,32.40991 -5.10999,35.96353 l -2.60505,1.74032 -56.50758,2e-5 -56.5076,-10e-6 z m 100.51345,-35.4437 v -14.1836 h -41.40076 l -41.40075,10e-6 v 14.18359 l 1e-5,14.18359 h 41.40074 41.40075 z M 413.9362,303.69528 c 1e-5,-52.66473 -0.0259,-52.97725 -5.0234,-60.53885 -2.85124,-4.31417 -7.06185,-7.79825 -12.61026,-10.43438 -3.39815,-1.61452 -4.19679,-1.64245 -53.09262,-1.85739 l -49.64257,-0.21825 v 24.91902 24.919 l 31.37863,0.21635 c 35.59781,0.24543 33.95671,-0.0505 37.43095,6.7488 1.70237,3.33158 1.72503,3.77175 1.72503,33.49738 l 10e-6,30.12143 h 24.91712 l 24.91711,-1e-5 z m -143.55428,-45.58691 0.19834,-41.20909 -14.57359,1e-5 h -14.5736 v 40.88963 c 0,22.48929 0.23754,41.12716 0.52786,41.41748 0.29031,0.29033 6.75918,0.43408 14.37526,0.31945 l 13.8474,-0.20839 z M 218.43265,256.408 v -24.89243 l -31.37863,-0.21635 c -35.5978,-0.24543 -33.9567,0.0504 -37.43094,-6.74879 -1.70237,-3.33159 -1.72505,-3.77176 -1.72505,-33.49739 l 1e-5,-30.12143 H 122.98092 98.063806 l 2e-6,47.37312 c -5e-6,52.65997 0.02637,52.97786 5.020032,60.53376 3.319,5.02198 8.55809,8.94617 14.53031,10.88358 4.35203,1.41178 7.19448,1.49458 52.7093,1.53532 l 48.10921,0.0431 z m -52.90095,-132.6604 -2e-5,-14.18359 -41.40074,1e-5 -41.400742,-2e-5 -5e-6,14.1836 v 14.18359 l 41.400747,1e-5 41.40075,-1e-5 z"
     id="path817"
     inkscape:connector-curvature="0" />
</svg>
