<?xml version="1.0" encoding="UTF-8" standalone="no"?>
<!-- Created with Inkscape (http://www.inkscape.org/) -->

<svg
   xmlns:dc="http://purl.org/dc/elements/1.1/"
   xmlns:cc="http://creativecommons.org/ns#"
   xmlns:rdf="http://www.w3.org/1999/02/22-rdf-syntax-ns#"
   xmlns:svg="http://www.w3.org/2000/svg"
   xmlns="http://www.w3.org/2000/svg"
   xmlns:sodipodi="http://sodipodi.sourceforge.net/DTD/sodipodi-0.dtd"
   xmlns:inkscape="http://www.inkscape.org/namespaces/inkscape"
   width="5760"
   height="1920"
   viewBox="0 0 1524 507.99999"
   version="1.1"
   id="svg8"
   inkscape:version="0.92.5 (2060ec1f9f, 2020-04-08)"
   sodipodi:docname="2.svg"
   inkscape:export-filename="/home/djl11/ivy_all/submodules/unifyai.github.io/img/one_pipeline/pngs/2.png"
   inkscape:export-xdpi="32"
   inkscape:export-ydpi="32">
  <defs
     id="defs2">
    <inkscape:path-effect
       only_selected="false"
       apply_with_weight="true"
       apply_no_weight="true"
       helper_size="0"
       steps="2"
       weight="33.333333"
       is_visible="true"
       id="path-effect861"
       effect="bspline" />
    <inkscape:path-effect
       only_selected="false"
       apply_with_weight="true"
       apply_no_weight="true"
       helper_size="0"
       steps="2"
       weight="33.333333"
       is_visible="true"
       id="path-effect857"
       effect="bspline" />
  </defs>
  <sodipodi:namedview
     id="base"
     pagecolor="#ffffff"
     bordercolor="#666666"
     borderopacity="1.0"
     inkscape:pageopacity="0.0"
     inkscape:pageshadow="2"
     inkscape:zoom="0.175"
     inkscape:cx="1621.0783"
     inkscape:cy="695.44358"
     inkscape:document-units="mm"
     inkscape:current-layer="g914"
     showgrid="false"
     units="px"
     inkscape:snap-global="false"
     inkscape:window-width="1848"
     inkscape:window-height="1016"
     inkscape:window-x="72"
     inkscape:window-y="27"
     inkscape:window-maximized="1"
     inkscape:snap-object-midpoints="true"
     inkscape:snap-others="true"
     inkscape:snap-nodes="true"
     inkscape:object-nodes="false" />
  <metadata
     id="metadata5">
    <rdf:RDF>
      <cc:Work
         rdf:about="">
        <dc:format>image/svg+xml</dc:format>
        <dc:type
           rdf:resource="http://purl.org/dc/dcmitype/StillImage" />
        <dc:title />
      </cc:Work>
    </rdf:RDF>
  </metadata>
  <g
     inkscape:label="Layer 1"
     inkscape:groupmode="layer"
     id="layer1"
     transform="translate(0,211)">
    <flowRoot
       xml:space="preserve"
       id="flowRoot1705"
       style="font-style:normal;font-weight:normal;font-size:40px;line-height:1.25;font-family:sans-serif;letter-spacing:0px;word-spacing:0px;fill:#000000;fill-opacity:1;stroke:none"><flowRegion
         id="flowRegion1707"><rect
           id="rect1709"
           width="1097.1428"
           height="605.71429"
           x="6045.7144"
           y="1251.4286" /></flowRegion><flowPara
         id="flowPara1711" /></flowRoot>    <g
       id="g1023"
       transform="translate(18.144038,37.323199)">
      <g
         id="g933"
         transform="translate(36.947672,-20.4107)">
        <g
           id="g914"
           transform="translate(6.6991627,2.4311999)">
          <path
             inkscape:connector-curvature="0"
             id="path817"
             d="m 1216.9156,159.80306 -1.0391,-0.92805 -0.1591,-10.44684 -0.1591,-10.44682 h -4.1363 -4.1363 l -0.1591,5.40903 c -0.1035,3.53872 -0.2998,5.65543 -0.5662,6.12166 -0.9492,1.66127 -3.7869,2.18652 -5.3157,0.98393 -1.4989,-1.17893 -1.7544,-2.30671 -1.7544,-7.74174 0,-3.6886 -0.101,-4.98106 -0.3977,-5.06602 -4.7182,-1.3531 -7.0806,-2.66919 -9.9806,-5.56035 -2.2181,-2.21128 -4.6376,-6.48044 -5.0474,-8.90632 l -0.221,-1.30823 h -5.3015 c -6.0611,0 -6.9908,-0.29203 -7.9061,-2.47166 -0.6727,-1.60198 -0.081,-3.40329 1.4584,-4.43717 1.016,-0.68255 1.3944,-0.72628 6.2841,-0.72628 l 5.2029,8e-5 v -4.11613 -4.11609 l -10.159,-0.0997 c -9.7543,-0.0957 -10.1949,-0.12647 -11.0565,-0.77028 -1.3249,-0.98978 -1.8846,-2.68687 -1.4093,-4.2731 0.7012,-2.340453 0.7675,-2.354133 12.2692,-2.533573 l 10.1965,-0.15909 0.089,-4.21585 0.089,-4.21587 h -5.45 -5.4502 l -1.063,-1.06307 c -1.3247,-1.32466 -1.6252,-2.43959 -1.0588,-3.92784 0.8522,-2.23899 1.5427,-2.47349 7.6167,-2.58681 l 5.3869,-0.10054 v -4.11536 -4.11538 h -9.7147 c -10.7893,0 -11.4081,-0.0972 -12.5497,-1.96948 -0.7679,-1.25941 -0.8105,-2.19808 -0.1621,-3.56454 0.9786,-2.06232 1.2137,-2.10228 12.3734,-2.10228 h 10.0531 v -4.29543 -4.29538 h -5.2805 c -5.9368,0 -6.7067,-0.21844 -7.6302,-2.16466 -0.974,-2.05234 0.1581,-4.53316 2.3457,-5.14075 0.6483,-0.18004 3.3351,-0.32811 5.9707,-0.32911 l 4.7921,-0.003 0.4162,-1.62375 c 1.6543,-6.45481 7.2392,-11.92793 13.9165,-13.63785 l 1.3259,-0.33959 0.1058,-5.48336 c 0.089,-4.59764 0.1964,-5.61681 0.667,-6.30933 0.7177,-1.05609 1.8368,-1.56038 3.4628,-1.56038 1.0424,0 1.4969,0.2074 2.3713,1.08182 l 1.0818,1.08178 v 5.44089 5.44084 h 4.2955 4.2954 v -11.72959 c 0,-11.55073 0.012,-11.74308 0.6898,-12.6066002 1.3555,-1.72328 3.4492,-2.05528 5.3194,-0.84355 1.5406,0.9982 1.6271,1.7352202 1.6271,13.8743102 v 11.30554 h 4.1364 4.1362 v -4.94197 c 0,-5.40925 0.2737,-6.62945 1.6954,-7.56105 1.0356,-0.67853 3.3424,-0.70316 4.2811,-0.0457 1.4415,1.00971 1.6598,1.98867 1.6598,7.4421 v 5.10664 h 4.1181 4.1182 l 0.097,-11.53395 c 0.085,-10.03909 0.1664,-11.65919 0.6273,-12.49979 1.3712,-2.5000202 5.2059,-2.5000202 6.5771,0 0.4609,0.8406 0.5422,2.4607 0.6272,12.49979 l 0.097,11.53395 h 4.1182 4.1182 v -5.10664 c 0,-5.45343 0.2183,-6.43239 1.6598,-7.4421 0.9387,-0.65743 3.2455,-0.6328 4.2811,0.0457 1.4287,0.93617 1.6954,2.14434 1.6954,7.68233 v 5.06336 l 1.5113,0.37658 c 5.1008,1.27101 9.9952,5.25285 12.4032,10.09055 0.7108,1.42796 1.3914,3.1819 1.5122,3.89771 l 0.22,1.30143 4.8242,0.003 c 5.4163,0.003 6.8871,0.28202 7.8394,1.49267 0.9188,1.16829 1.1062,2.17858 0.6725,3.62652 -0.6322,2.10986 -1.2988,2.33375 -7.4901,2.51531 l -5.4248,0.15909 -0.089,4.21588 -0.089,4.21587 h 10.0476 c 11.093,0 11.4439,0.0556 12.432,1.96625 0.6304,1.21914 0.4387,3.2055 -0.4003,4.14776 -1.2667,1.42227 -2.0768,1.52215 -12.3461,1.52215 h -9.7147 v 4.13634 4.13631 h 5.1704 c 5.7524,0 6.706,0.27331 7.7004,2.1962 0.6197,1.19835 0.6222,2.04695 0.012,3.33663 -0.8918,1.87929 -1.6987,2.1022 -7.6099,2.1022 h -5.2898 l 0.089,4.21587 0.089,4.21587 10.372,0.15909 c 11.1969,0.17175 10.9841,0.13698 11.9215,1.949643 1.0199,1.97228 -0.012,4.55009 -2.1001,5.27095 -0.7544,0.25985 -4.1421,0.38544 -10.7275,0.39775 l -9.6249,0.018 v 4.11583 4.11578 l 5.5629,0.10006 5.5628,0.10004 1.0394,1.04021 c 0.8942,0.89501 1.0394,1.26056 1.0394,2.61888 0,1.35829 -0.1452,1.72384 -1.0395,2.61884 l -1.0394,1.04021 -5.7219,0.0997 c -5.1901,0.0903 -5.7219,0.15115 -5.7219,0.65413 0,1.27658 -1.4618,4.72567 -2.9388,6.93393 -2.5326,3.78658 -6.6967,6.81159 -10.8302,7.86757 l -1.6626,0.42479 -0.1591,5.53256 c -0.1707,5.93455 -0.3032,6.44237 -1.9321,7.40458 -1.767,1.0438 -4.3153,0.36819 -5.2216,-1.3843 -0.3744,-0.72401 -0.4826,-2.11466 -0.4826,-6.19914 v -5.26573 h -4.1364 -4.1363 l -0.012,9.30671 c 0,5.11871 -0.1398,9.87946 -0.3013,10.57947 -0.1755,0.76089 -0.6864,1.62457 -1.2701,2.14771 -2.1039,1.88528 -5.4057,0.71643 -6.0666,-2.14771 -0.1615,-0.70001 -0.2972,-5.46076 -0.3012,-10.57947 l -0.012,-9.30671 h -4.1363 -4.1364 v 5.26573 c 0,5.83025 -0.2298,6.75212 -1.8986,7.61513 -1.9747,1.02108 -4.3494,0.28925 -5.2553,-1.61962 -0.3689,-0.77763 -0.4823,-2.22062 -0.4823,-6.13894 v -5.1223 h -4.1364 -4.1363 v 9.71467 c 0,7.53602 -0.099,9.95016 -0.4387,10.76466 -1.0529,2.51986 -4.026,3.26398 -5.9994,1.50145 z m 56.4415,-30.68793 c 2.2252,-1.12755 4.0848,-2.99897 5.2592,-5.29272 l 0.8959,-1.75001 V 86.118217 50.163987 l -0.8212,-1.75069 c -1.0481,-2.23404 -3.296,-4.48196 -5.6258,-5.62565 l -1.8256,-0.8963 -34.9997,-0.09 -34.9997,-0.0899 -2.1859,0.69895 c -2.7525,0.88011 -5.4713,3.26125 -6.7902,5.94696 l -0.8874,1.8066 v 35.79511 35.795113 l 0.8277,1.76447 c 1.0402,2.21793 2.5135,3.90872 4.3368,4.97727 2.9926,1.75379 1.0025,1.67296 39.3805,1.5993 l 35.636,-0.0684 z m -63.9726,-14.92231 c -0.4207,-0.21622 -1.0649,-0.79725 -1.4318,-1.29125 -0.6625,-0.89204 -0.6676,-1.07225 -0.7522,-26.326173 -0.093,-27.74979 -0.1397,-26.97816 1.715,-28.19355 0.8412,-0.55124 2.235,-0.58153 26.7302,-0.58153 25.741,0 25.8462,0.003 26.741,0.66699 0.4941,0.36689 1.0753,1.01118 1.2914,1.43182 0.3022,0.58801 0.3941,6.66988 0.3977,26.31442 0,28.042793 0.084,26.875983 -1.8939,27.898993 -0.8117,0.41979 -4.2615,0.48207 -26.483,0.47797 -19.6445,-0.004 -25.7264,-0.0955 -26.3144,-0.39769 z m 46.7417,-28.076933 v -20.84302 l -20.6022,0.0819 -20.6021,0.0819 -0.082,20.76117 -0.082,20.761163 h 20.6839 20.684 z"
             style="fill:#006400;fill-opacity:1;stroke:none;stroke-width:11.11250019;stroke-miterlimit:4;stroke-dasharray:none;stroke-opacity:1" />
        </g>
      </g>
    </g>
  </g>
</svg>
