<?xml version="1.0" encoding="UTF-8" standalone="no"?>
<!-- Created with Inkscape (http://www.inkscape.org/) -->

<svg
   xmlns:dc="http://purl.org/dc/elements/1.1/"
   xmlns:cc="http://creativecommons.org/ns#"
   xmlns:rdf="http://www.w3.org/1999/02/22-rdf-syntax-ns#"
   xmlns:svg="http://www.w3.org/2000/svg"
   xmlns="http://www.w3.org/2000/svg"
   xmlns:sodipodi="http://sodipodi.sourceforge.net/DTD/sodipodi-0.dtd"
   xmlns:inkscape="http://www.inkscape.org/namespaces/inkscape"
   width="7680"
   height="5400"
   viewBox="0 0 2032 1428.75"
   version="1.1"
   id="svg8"
   inkscape:version="0.92.5 (2060ec1f9f, 2020-04-08)"
   sodipodi:docname="6.svg"
   inkscape:export-filename="/home/djl11/ivy_all/submodules/unifyai.github.io/img/any_code/pngs/6.png"
   inkscape:export-xdpi="24"
   inkscape:export-ydpi="24">
  <defs
     id="defs2">
    <inkscape:path-effect
       only_selected="false"
       apply_with_weight="true"
       apply_no_weight="true"
       helper_size="0"
       steps="2"
       weight="33.333333"
       is_visible="true"
       id="path-effect861"
       effect="bspline" />
    <inkscape:path-effect
       only_selected="false"
       apply_with_weight="true"
       apply_no_weight="true"
       helper_size="0"
       steps="2"
       weight="33.333333"
       is_visible="true"
       id="path-effect857"
       effect="bspline" />
  </defs>
  <sodipodi:namedview
     id="base"
     pagecolor="#ffffff"
     bordercolor="#666666"
     borderopacity="1.0"
     inkscape:pageopacity="0.0"
     inkscape:pageshadow="2"
     inkscape:zoom="0.12374369"
     inkscape:cx="1658.4466"
     inkscape:cy="2651.1166"
     inkscape:document-units="mm"
     inkscape:current-layer="layer1"
     showgrid="false"
     units="px"
     inkscape:snap-global="false"
     inkscape:window-width="1848"
     inkscape:window-height="1016"
     inkscape:window-x="72"
     inkscape:window-y="27"
     inkscape:window-maximized="1"
     inkscape:snap-object-midpoints="true"
     inkscape:snap-others="true"
     inkscape:snap-nodes="true"
     inkscape:object-nodes="false" />
  <metadata
     id="metadata5">
    <rdf:RDF>
      <cc:Work
         rdf:about="">
        <dc:format>image/svg+xml</dc:format>
        <dc:type
           rdf:resource="http://purl.org/dc/dcmitype/StillImage" />
        <dc:title />
      </cc:Work>
    </rdf:RDF>
  </metadata>
  <g
     inkscape:label="Layer 1"
     inkscape:groupmode="layer"
     id="layer1"
     transform="translate(0,1131.75)">
    <flowRoot
       xml:space="preserve"
       id="flowRoot1705"
       style="fill:black;fill-opacity:1;stroke:none;font-family:sans-serif;font-style:normal;font-weight:normal;font-size:40px;line-height:1.25;letter-spacing:0px;word-spacing:0px"><flowRegion
         id="flowRegion1707"><rect
           id="rect1709"
           width="1097.1428"
           height="605.71429"
           x="6045.7144"
           y="1251.4286" /></flowRegion><flowPara
         id="flowPara1711" /></flowRoot>    <path
       inkscape:connector-curvature="0"
       id="path817-8"
       d="m 1436.5454,-26.880542 c -1.0665,-0.33351 -1.8274,-0.98398 -2.382,-2.03597 l -0.2969,-0.56343 v -14.05077 -14.05078 l 0.2574,-0.48636 c 0.3971,-0.74975 0.8275,-1.24248 1.4141,-1.61893 1.0763,-0.69061 -0.5512,-0.64812 24.8877,-0.64952 h 23.2085 l 0.028,-4.9448 c 0.016,-2.71965 0.015,-5.394347 0,-5.943837 l -0.03,-0.99901 -23.477,-0.0278 -23.477,-0.0278 -0.6074,-0.28483 c -0.8223,-0.38557 -1.3957,-0.92919 -1.8352,-1.73977 l -0.3674,-0.67749 V -88.978279 -102.975 l 0.2937,-0.59804 c 0.5331,-1.08559 1.5357,-1.88508 2.7011,-2.15387 0.2982,-0.0688 8.7335,-0.10795 23.6181,-0.10964 l 23.1543,-0.003 0.029,-4.24223 c 0.016,-2.33322 0.015,-5.00784 0,-5.9436 l -0.031,-1.70135 -23.5298,-0.0281 -23.5297,-0.0282 -0.5405,-0.27022 c -0.7016,-0.35081 -1.5624,-1.20917 -1.8968,-1.89146 l -0.2649,-0.54043 v -13.99665 -13.9967 l 0.2986,-0.60791 c 0.3288,-0.66966 1.1131,-1.46886 1.7701,-1.80409 0.2333,-0.11901 0.7113,-0.26942 1.0622,-0.3343 0.8593,-0.15888 116.1793,-0.16571 117.0219,-0.007 1.2777,0.24083 2.3236,1.05651 2.8822,2.24801 l 0.2876,0.61338 0.029,13.61841 c 0.028,13.36283 0.025,13.63159 -0.1873,14.32094 -0.3575,1.16054 -1.2061,2.05698 -2.353,2.48608 -0.5711,0.21368 -0.8492,0.21603 -25.7027,0.21603 h -25.125 v 5.94455 5.94453 h 24.9401 c 27.0174,0 25.5052,-0.0315 26.5449,0.57782 0.6249,0.36621 1.2222,1.04598 1.569,1.78573 l 0.2849,0.60746 0.031,13.564391 c 0.029,12.33032 0.016,13.62551 -0.1461,14.23641 -0.29,1.0922 -1.1121,2.0557 -2.171,2.54431 l -0.5252,0.24233 -25.2644,0.0278 -25.2644,0.0281 v 5.942757 5.94275 l 25.2104,0.0281 25.2102,0.0281 0.5945,0.27995 c 1.2251,0.57695 2.0526,1.62939 2.2674,2.88364 0.091,0.52957 0.1151,4.34266 0.091,14.02157 l -0.033,13.29417 -0.2567,0.64852 c -0.3575,0.9035 -1.228,1.74887 -2.2026,2.139 l -0.7295,0.29205 -58.4997,-0.006 c -48.0905,-0.005 -58.5807,-0.0321 -58.9552,-0.14918 z m 117.0691,-3.47181 c 0.1525,-0.1525 0.1697,-1.50019 0.1697,-13.2185 0,-10.00487 -0.029,-13.07894 -0.1296,-13.17842 -0.1892,-0.1891 -116.0648,-0.1891 -116.2539,0 -0.1883,0.18838 -0.1883,26.24873 0,26.43709 0.1009,0.10062 13.1532,0.12969 58.0868,0.12969 52.5442,0 57.973,-0.0159 58.127,-0.16986 z m -110.1088,-2.68631 c -0.227,-0.0824 -0.5133,-0.23934 -0.6365,-0.34901 -0.5277,-0.47012 -0.5182,-0.28372 -0.5182,-10.15027 0,-10.3133 -0.042,-9.7338 0.743,-10.26726 l 0.3879,-0.26358 h 4.3793 c 4.1792,0 4.3954,0.0106 4.7315,0.21516 0.1939,0.11811 0.4489,0.37328 0.5671,0.56703 0.2099,0.34438 0.2149,0.56322 0.2152,9.76651 v 9.41422 l -0.2436,0.36142 c -0.134,0.19878 -0.4137,0.4613 -0.6215,0.58343 -0.3611,0.21215 -0.5605,0.2231 -4.485,0.24675 -3.2756,0.0201 -4.1907,-0.005 -4.5196,-0.12483 z m 6.4111,-10.46504 -10e-5,-7.10644 h -2.0535 -2.0537 l 10e-5,7.10644 v 7.10644 h 2.0536 2.0536 z m 9.5506,10.51618 c -0.537,-0.12811 -0.9809,-0.51027 -1.1688,-1.00626 -0.1553,-0.40984 -0.1704,-1.43037 -0.1436,-9.70703 l 0.029,-9.24902 0.2702,-0.39687 c 0.505,-0.74181 0.4864,-0.73922 5.2569,-0.72827 4.568,0.0106 4.5805,0.0116 5.0769,0.56335 0.1257,0.13936 0.2838,0.41879 0.3514,0.62085 0.1596,0.4768 0.1742,18.14229 0.016,18.714 -0.1404,0.50551 -0.7357,1.06897 -1.2572,1.18997 -0.4996,0.11594 -7.9449,0.1153 -8.4313,0 z m 6.2508,-3.45376 c 0.041,-0.005 0.08,-3.19577 0.084,-7.08943 l 0.01,-7.07943 h -2.1102 -2.1103 v 7.07588 7.07588 l 1.216,0.0315 c 1.037,0.0268 2.6619,0.0188 2.9126,-0.0143 z m 69.7406,1.24304 c -1.0127,-0.44112 -1.3314,-1.82042 -0.6167,-2.66965 0.5408,-0.64273 0.4827,-0.63699 6.4186,-0.63699 h 5.4251 l 0.4548,0.26655 c 0.5946,0.34845 0.8473,0.86989 0.7851,1.62033 -0.053,0.64783 -0.2964,1.02931 -0.8573,1.34832 -0.3832,0.21791 -0.5282,0.22333 -5.8365,0.21923 -4.281,-0.003 -5.5139,-0.0348 -5.7731,-0.14779 z m -47.1505,-2.82636 c -1.8463,-0.497 -3.3032,-1.8691 -3.9318,-3.70319 -0.3248,-0.94726 -0.3469,-2.58942 -0.046,-3.47821 0.5734,-1.6986 1.8642,-3.05681 3.4987,-3.6812 0.8658,-0.33073 2.4312,-0.40407 3.376,-0.15828 2.1553,0.56095 3.8456,2.40549 4.2157,4.60039 0.4775,2.83091 -1.2778,5.57713 -4.1004,6.41453 -0.724,0.21487 -2.2243,0.21783 -3.0114,0.006 z m 2.3321,-3.45803 c 1.372,-0.57226 1.8069,-2.30433 0.8654,-3.44664 -0.8785,-1.0658 -2.4804,-1.07826 -3.4038,-0.0262 -0.8152,0.9284 -0.7424,2.11035 0.1855,3.01048 0.2861,0.27755 0.6338,0.52626 0.7728,0.55269 0.5551,0.10565 1.1989,0.069 1.5801,-0.0901 z m 14.257,3.46406 c -3.4968,-0.96134 -5.1896,-4.87902 -3.5292,-8.16811 0.4206,-0.8333 1.5778,-2.00009 2.3737,-2.39347 1.6807,-0.83069 3.624,-0.83069 5.2913,0 0.7919,0.39446 2.0455,1.64467 2.4222,2.41556 0.8153,1.66823 0.8214,3.68959 0.016,5.27934 -0.3624,0.71496 -1.4056,1.80909 -2.1561,2.26089 -1.1844,0.71321 -3.0808,0.97324 -4.4176,0.60579 z m 2.7521,-3.67972 c 1.3665,-0.96255 1.2372,-3.02421 -0.2388,-3.80471 -0.7307,-0.38645 -1.6856,-0.29493 -2.4019,0.23019 -0.1652,0.1211 -0.4266,0.47802 -0.5808,0.79322 -0.5432,1.11059 -0.1492,2.34207 0.9351,2.92151 0.6925,0.36996 1.6448,0.31157 2.2864,-0.14021 z m 28.0756,-0.15041 c -0.7369,-0.22847 -1.2876,-0.93139 -1.2876,-1.64359 0,-0.52981 0.3915,-1.23405 0.8439,-1.51758 l 0.3991,-0.25016 h 5.5122 c 5.3657,0 5.5222,0.006 5.8902,0.22201 0.5764,0.33867 0.8649,0.84143 0.8649,1.50731 0,0.66587 -0.2885,1.16866 -0.8649,1.5073 -0.3663,0.21511 -0.5444,0.22262 -5.7282,0.2417 -2.9425,0.0108 -5.4759,-0.0196 -5.6296,-0.067 z m -0.3785,-6.91224 c -0.9573,-0.58373 -1.196,-1.79554 -0.5136,-2.60655 0.5476,-0.6509 0.5161,-0.64772 6.3927,-0.64772 5.1523,0 5.3737,0.008 5.7963,0.21772 0.6135,0.30398 0.8524,0.67837 0.906,1.41955 0.054,0.76319 -0.2223,1.28764 -0.8514,1.60858 -0.3988,0.20342 -0.659,0.21275 -5.9067,0.21238 -5.1856,0 -5.5079,-0.0116 -5.8233,-0.20396 z m -34.9552,-17.52119 v -5.944547 h -6.5818 -6.5816 l -0.037,5.469227 c -0.021,3.00805 -0.021,5.68312 0,5.94452 l 0.037,0.47533 h 6.5821 6.5822 v -5.94453 z m 53.2632,-9.532907 c 0.1,-0.0994 0.1296,-3.17354 0.1296,-13.17842 0,-11.718291 -0.017,-13.065941 -0.1697,-13.218481 -0.154,-0.15401 -5.5757,-0.16986 -58.0475,-0.16986 -39.69,0 -57.9436,0.0352 -58.0869,0.11189 -0.205,0.10967 -0.2091,0.371 -0.2091,13.218511 0,10.04996 0.03,13.1369 0.1297,13.23636 0.1891,0.18913 116.0647,0.18913 116.2539,0 z m -110.3287,-2.81556 c -0.2617,-0.13375 -0.5761,-0.3805 -0.6984,-0.5483 -0.22,-0.30173 -0.223,-0.40971 -0.2513,-9.71494 l -0.028,-9.409856 0.265,-0.45233 c 0.4854,-0.82809 0.4831,-0.82775 5.4129,-0.79248 l 4.3233,0.031 0.3529,0.25172 c 0.7196,0.51324 0.6805,-0.0753 0.678,10.223546 0,5.33432 -0.044,9.44711 -0.1009,9.59152 -0.1445,0.37206 -0.678,0.8364 -1.1001,0.95745 -0.2115,0.0608 -2.081,0.10596 -4.3733,0.10596 -3.9392,0 -4.0117,-0.004 -4.4799,-0.24318 z m 6.5908,-10.34891 v -7.133486 h -2.0535 -2.0537 v 7.133486 7.13343 h 2.0537 2.0535 z m 9.3752,10.4376 c -0.5444,-0.19423 -0.7262,-0.35955 -0.9595,-0.87228 -0.1852,-0.40706 -0.1968,-0.96914 -0.199,-9.61229 0,-8.961696 0,-9.190536 0.2137,-9.626466 0.1379,-0.28461 0.3687,-0.53218 0.6363,-0.68262 0.4123,-0.23175 0.4989,-0.23609 4.7396,-0.23609 4.3026,0 4.3211,0 4.6811,0.24358 0.1987,0.13396 0.4613,0.41359 0.5834,0.62145 0.2184,0.37179 0.2225,0.52366 0.2543,9.348786 0.018,4.934 0,9.18138 -0.034,9.43866 -0.085,0.59122 -0.6663,1.26601 -1.2241,1.42092 -0.6286,0.17463 -8.1858,0.13666 -8.691,-0.0437 z m 6.489,-10.46467 0.03,-7.106416 h -2.1107 -2.1107 v 7.061406 c 0,3.8838 0.033,7.09486 0.075,7.13576 0.041,0.0409 0.977,0.0612 2.0806,0.045 l 2.0062,-0.0294 z m 69.5657,8.25312 c -0.9573,-0.58372 -1.196,-1.79552 -0.5136,-2.60654 0.5474,-0.65059 0.5192,-0.6477 6.3597,-0.6477 5.8236,0 5.7538,-0.007 6.3699,0.63952 0.2606,0.27345 0.3256,0.44792 0.3638,0.97552 0.057,0.78708 -0.2135,1.3062 -0.8498,1.63079 -0.3988,0.20343 -0.659,0.2128 -5.9067,0.2124 -5.1856,0 -5.5079,-0.0119 -5.8233,-0.20399 z m -46.3579,-2.60906 c -1.7732,-0.23569 -3.4597,-1.43716 -4.2571,-3.03276 -1.3074,-2.6163 -0.5416,-5.675516 1.8252,-7.291596 1.737,-1.18602 3.8412,-1.3317 5.8048,-0.40192 0.8762,0.41486 1.9714,1.4851 2.4481,2.39223 0.6817,1.297086 0.8502,2.452946 0.5587,3.828856 -0.624,2.94471 -3.3955,4.90188 -6.3797,4.50519 z m 1.7771,-3.66839 c 1.4055,-0.71692 1.683,-2.6262 0.5259,-3.61654 -1.0196,-0.872776 -2.2773,-0.78925 -3.1767,0.21098 -0.3227,0.35859 -0.5861,0.9964 -0.5848,1.41544 0,0.73861 0.6719,1.7571 1.3503,2.0532 0.4927,0.21494 1.3998,0.18462 1.8853,-0.063 z m 14.857,3.66662 c -2.2505,-0.308 -4.1596,-2.00573 -4.7502,-4.22431 -0.4992,-1.87531 0.1103,-4.075506 1.508,-5.444036 2.3028,-2.25499 5.7873,-2.23967 8.0461,0.0354 1.1488,1.15718 1.63,2.324706 1.635,3.968006 0.01,1.85195 -0.7082,3.35008 -2.1345,4.47995 -1.2031,0.95311 -2.7956,1.3915 -4.3044,1.18502 z m 1.7713,-3.65924 c 0.7811,-0.40055 1.2116,-1.12069 1.2116,-2.0265 0,-1.55799 -1.6683,-2.639576 -3.0814,-1.99768 -2.1753,0.98827 -1.5309,4.22132 0.843,4.2281 0.4055,0 0.7669,-0.0706 1.0268,-0.20392 z m 28.2506,-0.30221 c -0.1384,-0.0274 -0.4389,-0.23698 -0.6677,-0.46572 -0.8682,-0.8682 -0.6239,-2.21503 0.5072,-2.79611 0.1653,-0.085 1.8761,-0.12129 5.712,-0.12129 6.1078,0 5.9727,-0.0153 6.4881,0.74308 0.5217,0.76785 0.292,1.82772 -0.5279,2.43544 -0.2995,0.22196 -0.4053,0.22635 -5.7823,0.24027 -3.0127,0.007 -5.5909,-0.008 -5.7294,-0.0356 z m -0.1864,-6.837326 c -0.3595,-0.14555 -0.8964,-0.83389 -0.9741,-1.24889 -0.1589,-0.84661 0.2742,-1.63907 1.0592,-1.93844 0.4079,-0.15563 1.0869,-0.1723 5.8847,-0.14478 5.3087,0.0306 5.4297,0.0359 5.7283,0.25725 1.1024,0.81717 1.0621,2.41774 -0.076,2.98919 -0.3439,0.17282 -0.8479,0.18841 -5.8883,0.18232 -3.0318,-0.003 -5.6122,-0.0471 -5.7344,-0.0966 z m -35.0669,-17.622765 v -5.94537 l -6.5946,0.0277 -6.5947,0.0278 -0.025,5.91751 -0.025,5.91759 6.6201,-5e-5 h 6.62 z m 53.3026,-9.53553 c 0.1261,-0.19868 0.1107,-26.14727 -0.016,-26.34714 -0.092,-0.14372 -6.6686,-0.1647 -57.9882,-0.18513 -35.9239,-0.0143 -57.9872,0.0154 -58.153,0.0785 l -0.2672,0.1016 0.027,13.21561 0.027,13.21564 7.9982,0.0541 c 4.3989,0.0298 30.5624,0.0428 58.1407,0.0289 40.3554,-0.0201 50.16,-0.0518 50.23,-0.16211 z m -110.2621,-2.68848 c -0.1487,-0.0603 -0.3843,-0.21612 -0.5237,-0.34629 -0.5815,-0.54287 -0.5572,-0.10128 -0.5572,-10.15894 v -9.33856 l 0.2457,-0.36468 c 0.1352,-0.20058 0.4098,-0.47529 0.6104,-0.61042 0.3641,-0.24532 0.3725,-0.24577 4.6287,-0.24577 4.7621,0 4.772,0 5.276,0.74306 l 0.2636,0.38796 v 9.41616 9.41615 l -0.2433,0.35734 c -0.1337,0.19654 -0.3804,0.45906 -0.5481,0.58341 -0.2962,0.21955 -0.4292,0.22675 -4.5935,0.24813 -2.701,0.0138 -4.3885,-0.0185 -4.5586,-0.0876 z m 6.5097,-5.6899 c 0.016,-1.29294 0.016,-4.50297 0,-7.13345 l -0.029,-4.78267 h -2.0513 -2.0514 v 7.13349 7.13343 h 2.0515 2.0514 z m 9.2531,5.66418 c -0.4476,-0.19889 -0.7169,-0.49059 -0.9006,-0.97581 -0.1494,-0.39428 -0.1656,-1.5204 -0.1391,-9.69563 l 0.029,-9.24953 0.3114,-0.40833 c 0.5496,-0.72054 0.5477,-0.7203 5.3601,-0.68617 4.8923,0.0346 4.6747,-0.005 5.1659,0.9556 l 0.2454,0.48006 -0.029,9.24106 c -0.028,9.05171 -0.033,9.24882 -0.2478,9.6194 -0.1295,0.22399 -0.4143,0.47744 -0.6985,0.62143 -0.4738,0.24018 -0.5311,0.24309 -4.645,0.23442 -2.9528,-0.006 -4.2491,-0.046 -4.4527,-0.1365 z m 6.5853,-10.47385 0.028,-7.10645 h -2.1093 -2.1098 v 7.13582 7.13576 l 2.0806,-0.0294 2.0805,-0.0293 z m 69.5231,8.25696 c -0.8523,-0.45715 -1.1094,-1.74959 -0.5056,-2.54138 0.5546,-0.72702 0.5701,-0.72864 6.6306,-0.69384 5.3087,0.0306 5.4297,0.0359 5.7283,0.25725 1.1024,0.81714 1.0621,2.41771 -0.076,2.98919 -0.3434,0.17253 -0.8562,0.18899 -5.8901,0.18915 -5.1644,1e-4 -5.5376,-0.0127 -5.8878,-0.20037 z m -46.3941,-2.61319 c -1.8821,-0.31691 -3.4729,-1.50884 -4.2511,-3.18489 -0.7616,-1.64097 -0.7557,-3.31573 0.017,-4.97218 0.4021,-0.86186 1.7074,-2.18023 2.5491,-2.57494 2.3183,-1.08709 4.8148,-0.66847 6.5818,1.10371 1.7891,1.7946 2.1813,4.22903 1.0597,6.57924 -0.4517,0.94637 -1.5206,2.01319 -2.4956,2.49074 -1.1709,0.57335 -2.2951,0.7547 -3.4612,0.55832 z m 1.996,-3.69826 c 0.4802,-0.26993 0.8867,-0.83027 1.0478,-1.44452 0.3497,-1.33311 -0.7828,-2.74709 -2.1967,-2.74265 -0.4974,0.003 -1.4029,0.46548 -1.7159,0.879 -1.4589,1.92794 0.7606,4.49083 2.8648,3.30817 z m 14.307,3.63241 c -1.107,-0.23736 -1.9519,-0.71274 -2.8329,-1.5939 -1.1698,-1.17012 -1.6634,-2.34442 -1.6634,-3.95698 0,-1.54093 0.5593,-2.92254 1.6212,-4.00451 1.0199,-1.03912 2.2197,-1.58189 3.7289,-1.68671 2.6686,-0.18542 5.1486,1.60829 5.8512,4.2321 0.194,0.72456 0.1852,2.13264 -0.018,2.91372 -0.5291,2.03136 -2.2699,3.67509 -4.3615,4.11845 -0.884,0.18735 -1.3697,0.18272 -2.3254,-0.0222 z m 2.0487,-3.50279 c 0.7367,-0.26972 1.345,-1.18801 1.345,-2.0306 0,-0.70321 -0.2185,-1.19388 -0.7428,-1.66751 -0.887,-0.80129 -2.0539,-0.80579 -2.9334,-0.0111 -1.8385,1.66086 -0.012,4.56723 2.3312,3.70935 z m 28.1558,-0.55949 c -0.6985,-0.35748 -0.925,-0.72194 -0.925,-1.4886 0,-0.68353 0.1769,-1.02889 0.7441,-1.45243 0.2911,-0.21751 0.4325,-0.22352 5.8837,-0.24969 l 5.5856,-0.0268 0.4324,0.24463 c 1.0803,0.61127 1.0903,2.13956 0.019,2.93349 -0.2989,0.22146 -0.4175,0.2267 -5.7824,0.25559 l -5.4775,0.0295 z m 0.48,-6.5685 c -0.8019,-0.13367 -1.4617,-0.87451 -1.4566,-1.63598 0,-0.57512 0.3538,-1.21748 0.8224,-1.50876 l 0.4182,-0.2599 h 5.5122 c 5.3657,0 5.5222,0.006 5.8902,0.22204 1.1472,0.67397 1.1745,2.32736 0.048,2.98461 -0.3008,0.17563 -0.7791,0.19452 -5.6199,0.22201 -2.9103,0.0164 -5.4372,0.005 -5.6156,-0.0241 z"
       style="fill:#006400;fill-opacity:1;stroke:none;stroke-width:11.11250019;stroke-miterlimit:4;stroke-dasharray:none;stroke-opacity:1" />
  </g>
</svg>
