<?xml version="1.0" encoding="UTF-8" standalone="no"?>
<!-- Created with Inkscape (http://www.inkscape.org/) -->

<svg
   xmlns:dc="http://purl.org/dc/elements/1.1/"
   xmlns:cc="http://creativecommons.org/ns#"
   xmlns:rdf="http://www.w3.org/1999/02/22-rdf-syntax-ns#"
   xmlns:svg="http://www.w3.org/2000/svg"
   xmlns="http://www.w3.org/2000/svg"
   xmlns:sodipodi="http://sodipodi.sourceforge.net/DTD/sodipodi-0.dtd"
   xmlns:inkscape="http://www.inkscape.org/namespaces/inkscape"
   width="7680"
   height="5400"
   viewBox="0 0 2032 1428.75"
   version="1.1"
   id="svg8"
   inkscape:version="0.92.5 (2060ec1f9f, 2020-04-08)"
   sodipodi:docname="8.svg"
   inkscape:export-filename="/home/djl11/ivy_all/submodules/unifyai.github.io/img/any_code/pngs/8.png"
   inkscape:export-xdpi="24"
   inkscape:export-ydpi="24">
  <defs
     id="defs2">
    <inkscape:path-effect
       only_selected="false"
       apply_with_weight="true"
       apply_no_weight="true"
       helper_size="0"
       steps="2"
       weight="33.333333"
       is_visible="true"
       id="path-effect861"
       effect="bspline" />
    <inkscape:path-effect
       only_selected="false"
       apply_with_weight="true"
       apply_no_weight="true"
       helper_size="0"
       steps="2"
       weight="33.333333"
       is_visible="true"
       id="path-effect857"
       effect="bspline" />
  </defs>
  <sodipodi:namedview
     id="base"
     pagecolor="#ffffff"
     bordercolor="#666666"
     borderopacity="1.0"
     inkscape:pageopacity="0.0"
     inkscape:pageshadow="2"
     inkscape:zoom="0.12374369"
     inkscape:cx="1658.4466"
     inkscape:cy="2651.1166"
     inkscape:document-units="mm"
     inkscape:current-layer="layer1"
     showgrid="false"
     units="px"
     inkscape:snap-global="false"
     inkscape:window-width="1848"
     inkscape:window-height="1016"
     inkscape:window-x="72"
     inkscape:window-y="27"
     inkscape:window-maximized="1"
     inkscape:snap-object-midpoints="true"
     inkscape:snap-others="true"
     inkscape:snap-nodes="true"
     inkscape:object-nodes="false" />
  <metadata
     id="metadata5">
    <rdf:RDF>
      <cc:Work
         rdf:about="">
        <dc:format>image/svg+xml</dc:format>
        <dc:type
           rdf:resource="http://purl.org/dc/dcmitype/StillImage" />
        <dc:title />
      </cc:Work>
    </rdf:RDF>
  </metadata>
  <g
     inkscape:label="Layer 1"
     inkscape:groupmode="layer"
     id="layer1"
     transform="translate(0,1131.75)">
    <flowRoot
       xml:space="preserve"
       id="flowRoot1705"
       style="fill:black;fill-opacity:1;stroke:none;font-family:sans-serif;font-style:normal;font-weight:normal;font-size:40px;line-height:1.25;letter-spacing:0px;word-spacing:0px"><flowRegion
         id="flowRegion1707"><rect
           id="rect1709"
           width="1097.1428"
           height="605.71429"
           x="6045.7144"
           y="1251.4286" /></flowRegion><flowPara
         id="flowPara1711" /></flowRoot>    <path
       inkscape:connector-curvature="0"
       id="path817-4"
       d="m 1456.2268,-496.78457 c -0.9073,-0.3284 -1.9697,-1.31516 -2.3835,-2.21403 -0.3422,-0.74353 -0.3775,-1.1775 -0.4337,-5.35337 l -0.062,-4.54419 h 4.1626 4.1625 v 4.54419 c 0,4.40521 -0.015,4.57123 -0.4178,5.42661 -0.4959,1.0515 -0.9838,1.53077 -2.0512,2.01464 -0.8859,0.40166 -2.0751,0.45207 -2.9758,0.12615 z m 14.6474,0 c -0.909,-0.32895 -1.9704,-1.31611 -2.3807,-2.21403 -0.338,-0.74001 -0.3753,-1.19743 -0.4358,-5.35337 l -0.066,-4.54419 h 4.1646 4.1645 v 4.4355 c 0,2.81308 -0.074,4.68143 -0.2015,5.10783 -0.6175,2.06145 -3.1793,3.31579 -5.245,2.56826 z m 14.6474,0 c -0.8792,-0.31819 -1.9629,-1.30384 -2.3355,-2.12423 -0.2928,-0.64463 -0.3285,-1.22127 -0.3319,-5.35493 l -0.01,-4.63243 h 4.0589 4.059 v 4.4355 c 0,2.81308 -0.074,4.68143 -0.2014,5.10783 -0.6177,2.06145 -3.1794,3.31579 -5.2451,2.56826 z m 14.6473,0 c -0.8791,-0.31819 -1.9629,-1.30384 -2.3354,-2.12423 -0.2928,-0.64463 -0.3286,-1.22127 -0.332,-5.35493 l -0.01,-4.63243 h 4.0589 4.0589 v 4.4355 c 0,2.81308 -0.074,4.68143 -0.2014,5.10783 -0.6176,2.06145 -3.1793,3.31579 -5.245,2.56826 z m 14.6475,0 c -0.8793,-0.31819 -1.963,-1.30384 -2.3356,-2.12423 -0.2927,-0.64463 -0.3285,-1.22127 -0.3319,-5.35493 l -0.01,-4.63243 h 4.0589 4.0589 v 4.59401 c 0,3.45567 -0.059,4.73472 -0.2379,5.16186 -0.8322,1.98554 -3.2321,3.071 -5.2086,2.35572 z m 14.6473,0 c -0.8792,-0.31819 -1.9629,-1.30384 -2.3355,-2.12423 -0.2927,-0.64463 -0.3285,-1.22127 -0.332,-5.35493 l -0.01,-4.63243 h 4.0589 4.0588 v 4.59401 c 0,3.45567 -0.059,4.73472 -0.2379,5.16186 -0.8321,1.98554 -3.2321,3.071 -5.2086,2.35572 z m -48.1134,-17.40437 -38.6479,-0.0897 -0.9706,-0.46109 c -1.1633,-0.55256 -2.1438,-1.50448 -2.6884,-2.60959 l -0.3999,-0.81174 -0.046,-51.15351 -0.045,-51.15348 0.4564,-1.01693 c 0.5646,-1.25809 1.4501,-2.14 2.7404,-2.72912 l 0.9891,-0.45159 51.2473,0.0453 51.2474,0.0453 0.9705,0.54687 c 0.5634,0.31739 1.2495,0.90977 1.6352,1.41179 1.291,1.68031 1.1885,-2.90322 1.1885,53.10132 0,55.76959 0.09,51.48064 -1.1135,53.06687 -0.7723,1.01817 -2.0427,1.84261 -3.1678,2.05584 -1.3216,0.25048 -18.869,0.30678 -63.3966,0.20346 z m -24.0422,-13.72232 c 0.081,-6.23348 0.1345,-6.64083 1.1229,-8.66826 0.6176,-1.26685 2.1712,-2.82373 3.4188,-3.42616 2.0018,-0.96647 2.4428,-1.00881 10.5159,-1.00881 h 7.4417 l 0.214,-0.51673 c 0.3554,-0.85786 1.7782,-2.15048 2.9951,-2.72116 2.1861,-1.02502 4.8643,-0.5996 6.7182,1.0672 2.3559,2.11817 2.7899,5.53381 1.0365,8.1594 -2.6944,4.03495 -8.8556,3.58553 -10.8598,-0.79213 l -0.4401,-0.96118 h -7.014 c -7.9774,0 -8.3627,0.0494 -9.5371,1.2238 -1.239,1.23897 -1.3351,1.81137 -1.3351,7.95285 v 5.38247 l 30.0223,0.0447 30.0223,0.0447 0.083,-4.63296 c 0.046,-2.54813 0.017,-5.18269 -0.064,-5.85457 -0.2753,-2.27592 -1.31,-3.57328 -3.1675,-3.97166 -0.5014,-0.10753 -2.8913,-0.18918 -5.536,-0.18918 h -4.6539 l -0.1165,0.53076 c -0.1649,0.75057 -1.3271,2.23202 -2.286,2.91375 -1.1196,0.79605 -2.7854,1.22658 -4.1813,1.08069 -2.1214,-0.22175 -3.8955,-1.41724 -4.9274,-3.3206 -0.5746,-1.05982 -0.6054,-1.20579 -0.6054,-2.88113 0,-1.53244 0.06,-1.89249 0.4578,-2.73534 0.8672,-1.83814 2.5999,-3.13989 4.6821,-3.51748 2.4531,-0.44484 5.0931,0.77142 6.3575,2.92918 l 0.4482,0.76477 h 5.0924 c 3.0358,0 5.4699,0.0788 6.0274,0.19503 2.5354,0.52869 4.625,2.15831 5.7174,4.4586 0.9707,2.04398 1.144,3.46861 1.1195,9.19961 l -0.021,4.94128 h 6.5895 c 5.972,0 6.6428,-0.0293 7.1611,-0.3125 1.2813,-0.70014 1.1876,0.71144 1.2404,-18.67204 l 0.048,-17.41196 -0.5549,-0.11097 c -0.3051,-0.061 -2.4309,-0.1089 -4.724,-0.10639 l -4.1691,0.005 -0.3147,0.6831 c -0.7509,1.63026 -2.4111,2.91944 -4.3365,3.36743 -2.7573,0.64154 -5.7766,-0.93218 -7.0523,-3.67578 -0.3881,-0.83484 -0.4656,-1.25116 -0.4656,-2.50155 0,-1.2504 0.077,-1.66672 0.4656,-2.50156 1.8787,-4.04064 6.9888,-5.06711 10.0902,-2.02689 0.5109,0.50091 1.0829,1.24619 1.2711,1.65618 l 0.3422,0.74547 4.7207,0.005 4.7206,0.005 v -6.26483 -6.26486 l -4.5442,0.005 -4.5442,0.005 -0.3444,0.74528 c -1.0538,2.2806 -4.0324,3.78269 -6.5707,3.31345 -2.1908,-0.40499 -4.0784,-1.89547 -4.8233,-3.80857 -0.6042,-1.55157 -0.5895,-3.52959 0.036,-4.87849 0.6484,-1.39814 1.7335,-2.50828 3.1178,-3.18976 1.0413,-0.51263 1.3247,-0.57312 2.6688,-0.56971 1.2456,0.004 1.674,0.083 2.4955,0.46504 1.2776,0.59417 2.3552,1.57548 3.0163,2.74679 l 0.5257,0.9315 h 4.4833 4.4832 v -17.41522 c 0,-17.18009 -0.01,-17.42533 -0.3608,-18.16047 -0.676,-1.39653 0.6149,-1.30744 -18.9456,-1.30744 h -17.4003 v 5.10537 5.10535 l 0.8231,0.40947 c 1.1166,0.55552 2.2272,1.70503 2.8267,2.92608 0.4399,0.89582 0.4974,1.20658 0.4962,2.68938 0,1.53638 -0.048,1.76551 -0.557,2.7418 -0.646,1.23788 -1.8681,2.43554 -2.9928,2.93304 -3.1712,1.40279 -6.8912,0.053 -8.3444,-3.02776 -0.3987,-0.8454 -0.4573,-1.19822 -0.454,-2.73532 0.01,-1.50548 0.067,-1.89441 0.4332,-2.64713 0.524,-1.07637 2.0621,-2.6271 2.9101,-2.93367 l 0.6236,-0.22553 v -5.17054 -5.17054 h -6.1766 -6.1767 l 0.01,5.07365 0.01,5.07362 0.7025,0.3239 c 0.9839,0.45369 2.1749,1.70376 2.7617,2.89862 0.4399,0.89585 0.4972,1.20658 0.4963,2.68938 0,1.53641 -0.048,1.76552 -0.557,2.7418 -1.3108,2.51148 -3.9167,3.84699 -6.653,3.40961 -1.4415,-0.23043 -2.5519,-0.84511 -3.6017,-1.99369 -1.2668,-1.38605 -1.6833,-2.56588 -1.5924,-4.5107 0.06,-1.29013 0.1536,-1.65621 0.6664,-2.61638 0.637,-1.19298 1.5971,-2.13704 2.6793,-2.63517 l 0.6679,-0.30737 0.01,-5.07362 0.01,-5.07365 h -17.568 c -19.3944,0 -18.2508,-0.067 -18.9694,1.11154 -0.3355,0.55033 -0.3445,1.02034 -0.3451,18.16828 v 17.60331 h 4.9856 4.9858 l 0.42,-0.79172 c 0.536,-1.01052 1.9126,-2.3002 2.9823,-2.79423 0.6702,-0.30951 1.1592,-0.38447 2.509,-0.38458 1.4482,-1.3e-4 1.8133,0.064 2.6818,0.47109 1.2839,0.60185 2.4182,1.73829 3.0632,3.06925 0.4422,0.91199 0.5088,1.25378 0.5139,2.63612 0.01,1.37774 -0.057,1.71765 -0.4733,2.56424 -0.6937,1.41213 -1.5461,2.31971 -2.8162,2.99802 -0.9602,0.51279 -1.3263,0.60603 -2.6165,0.66633 -1.2262,0.0573 -1.6851,2.3e-4 -2.5142,-0.31224 -1.2198,-0.45992 -2.7232,-1.77464 -3.3238,-2.90716 l -0.4262,-0.80325 h -4.9858 -4.9856 v 6.00012 6.00011 h 4.8205 4.8203 l 0.2988,-0.62685 c 0.8548,-1.79216 2.964,-3.20389 5.0479,-3.3786 1.5769,-0.13221 2.7822,0.17233 4.0605,1.02579 3.9553,2.64129 3.6576,8.4763 -0.5488,10.7569 -1.07,0.58008 -1.1936,0.60529 -2.9694,0.60529 -1.6696,0 -1.9418,-0.0468 -2.7505,-0.47358 -1.1061,-0.58364 -2.3879,-1.85843 -2.8099,-2.79466 l -0.3169,-0.70242 h -1.7821 c -0.9801,-2.3e-4 -3.1519,-0.0525 -4.8261,-0.11601 l -3.0443,-0.11547 v 17.59575 c 0,18.83275 -0.035,18.07196 0.8572,18.87886 0.5823,0.52697 1.2821,0.60338 5.7019,0.62249 l 4.1766,0.018 z m 22.9435,-21.49264 c -2.4102,-0.64915 -4.6382,-2.3986 -5.678,-4.45836 -1.0943,-2.16765 -1.0765,-1.91288 -1.0765,-15.4165 0,-8.30337 0.064,-12.61168 0.195,-13.24261 0.4899,-2.34894 2.4535,-4.98086 4.4827,-6.00847 2.2225,-1.12552 1.6659,-1.08252 14.8938,-1.15009 7.6347,-0.0391 12.629,0.006 13.5885,0.1212 3.6335,0.43802 6.6679,3.02832 7.6355,6.51785 0.299,1.07805 0.3231,2.0895 0.3231,13.55741 0,8.34078 -0.064,12.6982 -0.1945,13.32765 -0.488,2.34727 -2.4876,4.97385 -4.5703,6.00321 -2.0886,1.03224 -1.9174,1.02137 -15.8757,1.00869 -10.4224,-0.009 -12.9729,-0.0577 -13.7236,-0.25998 z m -56.3437,19.87148 c -2.5596,-0.51646 -4.0423,-3.32682 -2.9853,-5.6584 0.4839,-1.06728 0.9631,-1.55522 2.0147,-2.05111 0.8553,-0.40335 1.0214,-0.41613 5.4265,-0.41783 l 4.5442,-0.003 v 4.14714 4.14713 l -4.1912,-0.0204 c -2.3052,-0.0111 -4.4692,-0.0763 -4.8089,-0.14493 z m 130.238,-3.96674 v -4.16229 l 4.5441,0.003 c 4.4053,0 4.5713,0.0146 5.4266,0.41783 1.0515,0.49588 1.5308,0.98383 2.0147,2.05108 0.8813,1.94389 0.012,4.27709 -1.9895,5.34254 -0.6902,0.36738 -0.9896,0.39251 -5.3635,0.45027 l -4.6324,0.0612 v -4.16227 z m -130.238,-10.68059 c -2.5596,-0.51647 -4.0423,-3.32687 -2.9853,-5.65846 0.4839,-1.06728 0.9631,-1.55519 2.0147,-2.05108 0.8553,-0.40338 1.0214,-0.41616 5.4265,-0.4178 l 4.5442,-0.003 v 4.14713 4.14713 l -4.1912,-0.0204 c -2.3052,-0.0111 -4.4692,-0.0763 -4.8089,-0.14491 z m 130.238,-3.96679 v -4.1623 l 4.5441,0.003 c 4.4053,0 4.5713,0.0146 5.4266,0.41783 1.0515,0.49583 1.5308,0.98381 2.0147,2.05108 0.8813,1.94387 0.012,4.2771 -1.9895,5.34252 -0.6902,0.3674 -0.9896,0.39254 -5.3635,0.45024 l -4.6324,0.0612 v -4.1623 z m -130.238,-10.6806 c -2.5596,-0.51646 -4.0423,-3.32684 -2.9853,-5.65843 0.4839,-1.06728 0.9631,-1.55522 2.0147,-2.05108 0.8553,-0.40338 1.0214,-0.41616 5.4265,-0.41785 l 4.5442,-0.003 v 4.14713 4.14716 l -4.1912,-0.0204 c -2.3052,-0.0111 -4.4692,-0.0763 -4.8089,-0.14494 z m 130.238,-3.96676 v -4.1623 l 4.5441,0.003 c 4.4053,0 4.5713,0.0145 5.4266,0.41786 1.0515,0.49585 1.5308,0.9838 2.0147,2.05107 0.8813,1.94387 0.012,4.2771 -1.9895,5.34255 -0.6902,0.36737 -0.9896,0.39248 -5.3635,0.45024 l -4.6324,0.0612 v -4.16251 z m -130.238,-10.68062 c -2.5596,-0.51647 -4.0423,-3.32685 -2.9853,-5.65841 0.4839,-1.06728 0.9631,-1.55525 2.0147,-2.0511 0.8553,-0.40336 1.0214,-0.41614 5.4265,-0.41783 l 4.5442,-0.003 v 4.14716 4.14713 l -4.1912,-0.0204 c -2.3052,-0.0111 -4.4692,-0.0763 -4.8089,-0.14491 z m 130.238,-3.96677 v -4.16229 l 4.5441,0.003 c 4.4053,0 4.5713,0.0146 5.4266,0.41783 1.0515,0.49586 1.5308,0.9838 2.0147,2.05111 0.8813,1.94384 0.012,4.27707 -1.9895,5.34252 -0.6902,0.36737 -0.9896,0.39251 -5.3635,0.45024 l -4.6324,0.0612 v -4.16253 z m -130.238,-10.68059 c -2.5596,-0.51647 -4.0423,-3.32685 -2.9853,-5.65841 0.4839,-1.0673 0.9631,-1.55525 2.0147,-2.0511 0.8553,-0.40339 1.0214,-0.41616 5.4265,-0.41783 l 4.5442,-0.003 v 4.14713 4.14716 l -4.1912,-0.0204 c -2.3052,-0.0111 -4.4692,-0.0763 -4.8089,-0.14494 z m 130.238,-3.96677 v -4.16229 l 4.5441,0.003 c 4.4053,0 4.5713,0.0146 5.4266,0.41781 1.0515,0.49585 1.5308,0.98382 2.0147,2.0511 0.8813,1.94387 0.012,4.2771 -1.9895,5.34255 -0.6902,0.36734 -0.9896,0.39248 -5.3635,0.45024 l -4.6324,0.0612 v -4.16251 z m -130.238,-10.68059 c -2.5596,-0.51647 -4.0423,-3.32685 -2.9853,-5.65843 0.4839,-1.06728 0.9631,-1.55523 2.0147,-2.05108 0.8553,-0.40339 1.0214,-0.41616 5.4265,-0.41783 l 4.5442,-0.003 v 4.14716 4.14713 l -4.1912,-0.0204 c -2.3052,-0.0111 -4.4692,-0.0763 -4.8089,-0.14494 z m 130.238,-3.96677 v -4.16229 l 4.5441,0.003 c 4.4053,0 4.5713,0.0146 5.4266,0.41783 1.0515,0.49586 1.5308,0.9838 2.0147,2.05108 0.8813,1.94389 0.012,4.2771 -1.9895,5.34255 -0.6902,0.36737 -0.9896,0.39248 -5.3635,0.45024 l -4.6324,0.0612 v -4.16251 z m -100.7352,-26.61864 c 0.062,-4.3561 0.089,-4.67609 0.4523,-5.36353 1.0565,-1.99948 3.3954,-2.87094 5.3397,-1.98946 1.0673,0.48385 1.5552,0.96314 2.0511,2.01462 0.4034,0.85537 0.4161,1.02143 0.4178,5.42661 v 4.54419 h -4.1643 -4.1643 z m 14.6526,0.0882 c 0.082,-5.19088 0.165,-5.57056 1.473,-6.72195 1.7601,-1.54929 4.3868,-1.36948 5.8455,0.40016 0.858,1.04089 0.9389,1.59533 0.9389,6.43051 v 4.4355 h -4.1645 -4.1645 z m 14.7909,-0.0882 c 0.01,-5.26751 0.064,-5.55953 1.3825,-6.68756 1.745,-1.49362 4.3557,-1.289 5.7925,0.454 0.8579,1.04087 0.9389,1.59531 0.9389,6.43049 v 4.4355 h -4.059 -4.0589 l 0.01,-4.63243 z m 14.6473,0 c 0.01,-5.26751 0.064,-5.55953 1.3827,-6.68756 1.2858,-1.10072 2.8438,-1.31971 4.3613,-0.61306 1.0127,0.47154 1.9414,1.48791 2.1961,2.40344 0.094,0.3397 0.1724,2.62285 0.1728,5.07363 v 4.45598 h -4.0588 -4.0589 l 0.01,-4.63243 z m 14.6474,0 c 0.01,-5.26751 0.064,-5.55953 1.3826,-6.68756 1.7209,-1.47301 4.3253,-1.29299 5.7505,0.39749 0.943,1.11842 0.9808,1.36228 0.9808,6.32851 v 4.59399 h -4.0589 -4.0589 l 0.01,-4.63243 z m 14.6473,0 c 0.01,-5.26751 0.064,-5.55953 1.3827,-6.68756 1.7208,-1.47301 4.3252,-1.29299 5.7506,0.39749 0.9429,1.11842 0.9806,1.36228 0.9806,6.32851 v 4.59399 h -4.0588 -4.0589 l 0.01,-4.63243 z"
       style="fill:#006400;fill-opacity:1;stroke:none;stroke-width:11.11250019;stroke-miterlimit:4;stroke-dasharray:none;stroke-opacity:1" />
  </g>
</svg>
