<?xml version="1.0" encoding="UTF-8" standalone="no"?>
<!-- Created with Inkscape (http://www.inkscape.org/) -->

<svg
   xmlns:dc="http://purl.org/dc/elements/1.1/"
   xmlns:cc="http://creativecommons.org/ns#"
   xmlns:rdf="http://www.w3.org/1999/02/22-rdf-syntax-ns#"
   xmlns:svg="http://www.w3.org/2000/svg"
   xmlns="http://www.w3.org/2000/svg"
   xmlns:sodipodi="http://sodipodi.sourceforge.net/DTD/sodipodi-0.dtd"
   xmlns:inkscape="http://www.inkscape.org/namespaces/inkscape"
   width="7680"
   height="5400"
   viewBox="0 0 2032 1428.75"
   version="1.1"
   id="svg8"
   inkscape:version="0.92.5 (2060ec1f9f, 2020-04-08)"
   sodipodi:docname="9.svg"
   inkscape:export-filename="/home/djl11/ivy_all/submodules/unifyai.github.io/img/any_code/pngs/9.png"
   inkscape:export-xdpi="24"
   inkscape:export-ydpi="24">
  <defs
     id="defs2">
    <inkscape:path-effect
       only_selected="false"
       apply_with_weight="true"
       apply_no_weight="true"
       helper_size="0"
       steps="2"
       weight="33.333333"
       is_visible="true"
       id="path-effect861"
       effect="bspline" />
    <inkscape:path-effect
       only_selected="false"
       apply_with_weight="true"
       apply_no_weight="true"
       helper_size="0"
       steps="2"
       weight="33.333333"
       is_visible="true"
       id="path-effect857"
       effect="bspline" />
  </defs>
  <sodipodi:namedview
     id="base"
     pagecolor="#ffffff"
     bordercolor="#666666"
     borderopacity="1.0"
     inkscape:pageopacity="0.0"
     inkscape:pageshadow="2"
     inkscape:zoom="0.12374369"
     inkscape:cx="1658.4466"
     inkscape:cy="2651.1166"
     inkscape:document-units="mm"
     inkscape:current-layer="layer1"
     showgrid="false"
     units="px"
     inkscape:snap-global="false"
     inkscape:window-width="1848"
     inkscape:window-height="1016"
     inkscape:window-x="72"
     inkscape:window-y="27"
     inkscape:window-maximized="1"
     inkscape:snap-object-midpoints="true"
     inkscape:snap-others="true"
     inkscape:snap-nodes="true"
     inkscape:object-nodes="false" />
  <metadata
     id="metadata5">
    <rdf:RDF>
      <cc:Work
         rdf:about="">
        <dc:format>image/svg+xml</dc:format>
        <dc:type
           rdf:resource="http://purl.org/dc/dcmitype/StillImage" />
        <dc:title />
      </cc:Work>
    </rdf:RDF>
  </metadata>
  <g
     inkscape:label="Layer 1"
     inkscape:groupmode="layer"
     id="layer1"
     transform="translate(0,1131.75)">
    <flowRoot
       xml:space="preserve"
       id="flowRoot1705"
       style="fill:black;fill-opacity:1;stroke:none;font-family:sans-serif;font-style:normal;font-weight:normal;font-size:40px;line-height:1.25;letter-spacing:0px;word-spacing:0px"><flowRegion
         id="flowRegion1707"><rect
           id="rect1709"
           width="1097.1428"
           height="605.71429"
           x="6045.7144"
           y="1251.4286" /></flowRegion><flowPara
         id="flowPara1711" /></flowRoot>    <path
       inkscape:connector-curvature="0"
       id="path817-7"
       d="m 1432.3172,-758.24529 c -0.8598,-0.66019 -1.0354,-1.47444 -1.0354,-4.80282 v -3.3247 h -2.1166 -2.1167 v -2.11667 -2.11667 h 2.1167 2.1166 v -2.09325 -2.09327 l -2.8658,-0.0896 c -2.6336,-0.0823 -2.9415,-0.1473 -3.7992,-0.80225 -1.7325,-1.32275 -1.8016,-1.69658 -1.8016,-9.73836 0,-8.04177 0.069,-8.4156 1.8016,-9.73836 0.8577,-0.65494 1.1656,-0.71993 3.7992,-0.80224 l 2.8658,-0.0896 v -2.09327 -2.09325 h -2.1166 -2.1167 v -2.11667 -2.11667 h 2.1167 2.1166 v -2.11666 -2.11666 h -2.1166 -2.1167 v -2.11667 -2.11667 h 2.1167 2.1166 v -2.09325 -2.09326 l -2.8658,-0.0896 c -2.6336,-0.0823 -2.9415,-0.1473 -3.7992,-0.80223 -1.7325,-1.32278 -1.8016,-1.69661 -1.8016,-9.73837 0,-8.04177 0.069,-8.4156 1.8016,-9.73838 0.8577,-0.65492 1.1656,-0.71992 3.7992,-0.80222 l 2.8658,-0.0896 v -2.09326 -2.09326 h -2.1166 -2.1167 v -2.11667 -2.11666 h 2.1167 2.1166 v -4.23334 -4.23333 h -4.2333 -4.2333 v -2.11667 -2.11666 h 7.5659 c 6.4083,0 7.6734,0.0637 8.2683,0.4163 0.3862,0.22896 1.744,1.98954 3.0173,3.91238 l 2.3151,3.49607 v 7.469 7.46899 l 3.8782,-2.91471 c 2.133,-1.60308 4.0275,-2.9147 4.21,-2.9147 0.24,0 0.3565,-0.79253 0.4212,-2.86584 0.082,-2.63364 0.1473,-2.94146 0.8023,-3.79922 1.4949,-1.9579 -2.8389,-1.80161 49.955,-1.80161 52.7939,0 48.4601,-0.15629 49.955,1.80161 0.6539,0.85633 0.72,1.16761 0.8015,3.77068 l 0.089,2.83729 0.8152,0.16304 c 1.1199,0.22397 2.4182,1.26946 2.9387,2.3665 0.3947,0.83159 0.4341,3.68763 0.4341,31.39422 0,33.9266 0.1299,31.54729 -1.8019,33.0217 l -0.9338,0.71266 -7.0988,0.0783 -7.0988,0.0783 v 1.66664 c 0,2.47311 0.1286,2.54241 4.7172,2.54241 h 3.7495 v 2.11667 2.11666 h -4.6547 -4.6547 l -1.6953,-1.69529 -1.6953,-1.69529 v -2.53804 -2.53804 h -4.2099 -4.21 l -0.09,2.86583 c -0.082,2.63364 -0.1473,2.94148 -0.8022,3.79923 -1.4366,1.88151 -0.5352,1.8016 -20.3217,1.8016 -19.7865,0 -18.8851,0.0799 -20.3217,-1.8016 -0.6549,-0.85775 -0.7199,-1.16559 -0.8022,-3.79923 l -0.09,-2.86583 h -2.0698 -2.0699 l -0.09,2.86583 c -0.082,2.63364 -0.1473,2.94148 -0.8022,3.79923 -1.133,1.48376 -2.1041,1.8016 -5.5051,1.8016 -3.401,0 -4.3721,-0.31784 -5.505,-1.8016 -0.655,-0.85775 -0.72,-1.16559 -0.8023,-3.79923 l -0.09,-2.86583 h -4.2099 -4.2099 v 3.32467 c 0,5.01258 -0.1057,5.12191 -4.961,5.13358 l -3.5057,0.008 v -2.11667 -2.11667 h 2.1167 2.1166 v -2.11666 -2.11667 h -2.4796 -2.4797 l -3.8042,-3.04117 -3.8042,-3.04118 -0.07,7.60175 -0.07,7.60174 -2.3109,3.4898 c -1.271,1.91939 -2.627,3.67713 -3.0133,3.9061 -0.8781,0.52054 -5.6784,0.57904 -6.3321,0.0771 z m 5.8089,-6.35471 1.6224,-2.46052 v -41.64562 -41.64562 l -1.6224,-2.46053 c -1.0861,-1.64704 -1.7859,-2.46052 -2.1167,-2.46052 -0.4807,0 -0.4942,1.27442 -0.4942,46.56667 0,45.29224 0.014,46.56666 0.4942,46.56666 0.3308,0 1.0306,-0.81349 2.1167,-2.46052 z m 39.7224,-8.12281 v -2.11667 h -2.1167 -2.1166 v 2.11667 2.11666 h 2.1166 2.1167 z m 46.5667,0 v -2.11667 h -2.1167 -2.1167 v -2.11667 -2.11666 h 16.9334 16.9333 v -7.40834 -7.40833 h -16.4494 -16.4494 l -3.2382,3.175 -3.2382,3.175 h -7.8291 -7.829 v -2.11667 -2.11666 h 6.9244 6.9244 l 3.2382,-3.175 3.2382,-3.175 h 17.3541 17.354 v -2.11667 -2.11667 h -10.5833 -10.5834 v -2.11666 -2.11667 h 10.5834 10.5833 v -2.11666 -2.11667 h -10.5833 -10.5834 v -2.11667 -2.11666 h 10.5834 10.5833 v -2.11667 -2.11667 h -16.227 -16.227 l -4.2121,-3.16832 -4.212,-3.16832 -7.0776,-0.007 -7.0776,-0.007 v -2.11667 -2.11665 h 7.7603 7.7604 l 4.212,3.16832 4.2121,3.16833 15.5442,0.007 15.5443,0.007 v -7.40829 -7.40833 h -50.4465 -50.4466 l -4.5868,3.44229 -4.5868,3.4423 0.013,22.55302 0.013,22.55301 4.5865,3.63802 4.5865,3.63802 h 31.3836 31.3836 v 2.11667 2.11667 h -12.7 -12.7 v 2.11666 2.11667 h 16.9334 16.9333 z m -55.357,-11.01148 c -5.081,-0.9212 -9.4973,-3.27401 -13.3191,-7.09579 -3.9097,-3.90964 -6.1846,-8.24484 -7.1136,-13.55561 -1.0566,-6.04033 0.1476,-12.34927 3.3556,-17.58076 1.7908,-2.92023 5.4535,-6.58299 8.3738,-8.37373 8.0921,-4.9622 18.4285,-4.9622 26.5206,0 2.9202,1.79074 6.583,5.4535 8.3737,8.37373 4.9622,8.09209 4.9622,18.42852 0,26.52061 -1.7907,2.92024 -5.4535,6.58299 -8.3737,8.37372 -5.2322,3.20847 -11.7727,4.43373 -17.8173,3.33783 z m 2.4403,-9.21131 c 0,-5.38144 0,-5.40687 -0.5953,-5.56991 -0.3274,-0.0901 -1.1669,-0.41894 -1.8655,-0.7308 l -1.2703,-0.56706 -3.7496,3.7496 c -4.2781,4.2781 -4.1822,3.68363 -0.9091,5.63626 2.0266,1.20896 4.016,1.96244 6.5377,2.476 0.9459,0.19266 1.7496,0.36417 1.786,0.38115 0.036,0.0169 0.066,-2.40188 0.066,-5.37524 z m 9.3158,4.11477 c 1.4065,-0.48866 4.4272,-2.14022 5.6259,-3.07591 0.5008,-0.39095 0.3713,-0.55806 -3.2034,-4.1328 l -3.7254,-3.72536 -1.8898,0.73811 -1.8898,0.73814 v 5.33376 5.33379 l 1.786,-0.34245 c 0.9822,-0.18833 2.4657,-0.57862 3.2965,-0.86728 z m -19.8028,-10.31431 3.6611,-3.66813 -0.7374,-1.88812 -0.7375,-1.88809 h -5.3338 -5.3338 l 0.3425,1.78594 c 0.4715,2.45901 1.2228,4.52178 2.3433,6.43369 1.0642,1.81578 1.7962,2.87215 1.9987,2.88456 0.075,0.005 1.7833,-1.64235 3.7969,-3.65985 z m 29.4461,3.20514 c 0.7636,-0.97033 2.5128,-4.08273 2.8999,-5.15967 0.2223,-0.6183 0.6219,-2.10645 0.888,-3.307 l 0.484,-2.18281 h -5.3484 -5.3484 l -0.7375,1.88809 -0.7375,1.88812 3.6611,3.66813 c 2.0137,2.0175 3.7092,3.66816 3.7678,3.66816 0.059,0 0.2707,-0.20836 0.471,-0.46302 z m -14.4612,-6.96672 c 1.5989,-0.72376 2.5865,-1.6959 3.3382,-3.28588 1.0754,-2.27483 0.6212,-4.93088 -1.171,-6.84649 -1.0061,-1.07551 -3.1231,-2.01188 -4.5484,-2.01188 -0.7022,0 -1.7333,0.25656 -2.5136,0.62541 -5.0554,2.38996 -5.0554,9.04888 0,11.43883 1.6359,0.77338 3.3029,0.80061 4.8948,0.08 z m -12.0606,-9.80586 0.7381,-1.88978 -3.7155,-3.7155 -3.7155,-3.7155 -0.5478,0.64434 c -1.1477,1.34972 -3.195,5.91987 -3.6964,8.25111 l -0.4978,2.3151 h 5.3484 5.3484 z m 30.3097,-0.29304 c -0.6482,-2.92396 -1.0938,-4.09884 -2.3578,-6.21742 -1.9453,-3.26037 -1.3561,-3.35446 -5.6059,0.89531 l -3.7254,3.72537 0.7381,1.88978 0.7382,1.88977 h 5.3484 5.3484 z m -24.5669,-5.40718 1.8199,-0.71082 v -5.33378 -5.33378 l -1.7859,0.34243 c -2.5448,0.48794 -4.5384,1.23176 -6.6039,2.46397 -3.2683,1.9498 -3.3581,1.36331 0.8543,5.58372 2.0306,2.0345 3.7378,3.69908 3.7938,3.69908 0.056,0 0.9209,-0.31987 1.9218,-0.71082 z m 13.5888,-2.98826 c 4.2123,-4.22041 4.1226,-3.63392 0.8542,-5.58372 -2.0655,-1.23221 -4.0591,-1.97603 -6.6038,-2.46397 l -1.786,-0.34243 v 5.33659 5.33659 l 1.6537,0.6752 c 0.9095,0.37135 1.7743,0.68996 1.9218,0.70801 0.1474,0.018 1.9295,-1.63177 3.9601,-3.66627 z m 62.3144,35.97825 v -2.11667 h 2.1167 2.1167 v 2.11667 2.11666 h -2.1167 -2.1167 z m -46.5666,-12.7 v -2.11667 l 4.9609,-0.007 4.961,-0.007 4.212,-3.16833 4.212,-3.16833 h 5.6437 5.6437 v 2.11666 2.11667 l -4.9609,0.007 -4.961,0.007 -4.212,3.16834 -4.212,3.16833 h -5.6437 -5.6437 z m 4.2333,-10.58333 v -2.11667 h 4.2333 4.2334 v 2.11667 2.11666 h -4.2334 -4.2333 z m 9.9006,-5.28499 -4.212,-3.16833 -4.961,-0.007 -4.9609,-0.007 v -2.11667 -2.11667 h 5.6437 5.6437 l 4.212,3.16833 4.212,3.16832 4.961,0.007 4.9609,0.007 v 2.11667 2.11667 h -5.6437 -5.6437 z m 32.4327,-17.99835 v -2.11666 h 2.1167 2.1167 v 2.11666 2.11667 h -2.1167 -2.1167 z m -114.3,46.56667 v -6.35 h -2.1166 -2.1167 v 6.35 6.35 h 2.1167 2.1166 z m 0,-42.33333 v -6.35 h -2.1166 -2.1167 v 6.35 6.35 h 2.1167 2.1166 z m 118.5334,-16.93334 v -2.11666 h -46.5667 -46.5667 v 2.11666 2.11667 h 46.5667 46.5667 z"
       style="fill:#006400;fill-opacity:1;stroke:none;stroke-width:11.11250019;stroke-miterlimit:4;stroke-dasharray:none;stroke-opacity:1" />
  </g>
</svg>
