<?xml version="1.0" encoding="UTF-8" standalone="no"?>
<svg
   xmlns:dc="http://purl.org/dc/elements/1.1/"
   xmlns:cc="http://creativecommons.org/ns#"
   xmlns:rdf="http://www.w3.org/1999/02/22-rdf-syntax-ns#"
   xmlns:svg="http://www.w3.org/2000/svg"
   xmlns="http://www.w3.org/2000/svg"
   xmlns:sodipodi="http://sodipodi.sourceforge.net/DTD/sodipodi-0.dtd"
   xmlns:inkscape="http://www.inkscape.org/namespaces/inkscape"
   inkscape:version="0.92.5 (2060ec1f9f, 2020-04-08)"
   sodipodi:docname="Apache_Spark_logo.svg"
   version="1.1"
   viewBox="0 0 768 512"
   xml:space="preserve"
   id="svg36"
   width="768"
   height="512"
   inkscape:export-filename="/home/djl11/ivy_all/submodules/unifyai.github.io/img/coming_soon/Apache_Spark_logo.png"
   inkscape:export-xdpi="96"
   inkscape:export-ydpi="96"><defs
   id="defs38" />
<title
   id="title2">Apache Spark logo</title>
<metadata
   id="metadata4">
    <rdf:RDF>
        <cc:Work
   rdf:about="">
            <dc:format>image/svg+xml</dc:format>
            <dc:type
   rdf:resource="http://purl.org/dc/dcmitype/StillImage" />
            <dc:title>Apache Spark logo</dc:title>
        </cc:Work>
    </rdf:RDF>
</metadata>
<sodipodi:namedview
   bordercolor="#666666"
   borderopacity="1"
   gridtolerance="10"
   guidetolerance="10"
   inkscape:current-layer="g34"
   inkscape:cx="118.16774"
   inkscape:cy="214.14203"
   inkscape:pageopacity="0"
   inkscape:pageshadow="2"
   inkscape:window-height="1016"
   inkscape:window-maximized="1"
   inkscape:window-width="1848"
   inkscape:window-x="72"
   inkscape:window-y="27"
   inkscape:zoom="0.5431575"
   objecttolerance="10"
   pagecolor="#ffffff"
   showgrid="false"
   id="namedview6" /><g
   transform="matrix(1.33,0,0,1.33,0,297)"
   inkscape:groupmode="layer"
   inkscape:label="spark"
   id="g34"><g
     id="g858"
     transform="matrix(1.7669792,0,0,1.7669792,14.390599,-173.38854)"><path
       inkscape:connector-curvature="0"
       id="path8"
       style="fill:#e25a1c;fill-rule:evenodd"
       d="m 284,81.5 c -0.269,-0.575 -0.39,-0.864 -0.535,-1.14 -3.89,-7.4 -7.77,-14.8 -11.7,-22.2 -0.394,-0.742 -0.344,-1.18 0.195,-1.82 6.19,-7.23 12.3,-14.5 18.5,-21.7 0.219,-0.254 0.414,-0.523 0.496,-0.976 -1.8,0.469 -3.6,0.933 -5.41,1.41 -7.47,1.98 -15,3.95 -22.4,5.96 -0.695,0.187 -1.01,-0.016 -1.36,-0.594 -4.24,-7.09 -8.51,-14.2 -12.8,-21.2 -0.219,-0.367 -0.458,-0.723 -0.926,-1.03 -0.344,1.89 -0.692,3.77 -1.03,5.66 -1.19,6.67 -2.38,13.3 -3.56,20 -0.129,0.719 -0.305,1.44 -0.367,2.16 -0.059,0.688 -0.414,0.942 -1.04,1.14 -8.81,2.77 -17.6,5.56 -26.4,8.35 -0.386,0.121 -0.765,0.281 -1.18,0.656 7.2,2.86 14.4,5.72 21.7,8.63 -0.266,0.211 -0.442,0.375 -0.637,0.5 -4.5,2.91 -9.01,5.82 -13.5,8.74 -0.539,0.352 -0.965,0.402 -1.57,0.129 -5.38,-2.42 -10.8,-4.8 -16.2,-7.2 -2.42,-1.08 -4.59,-2.51 -6.28,-4.59 -3.83,-4.68 -3.07,-10 2.03,-13.3 1.67,-1.07 3.57,-1.86 5.46,-2.48 8.63,-2.81 17.3,-5.52 25.9,-8.24 0.726,-0.231 1.06,-0.555 1.2,-1.34 1.16,-6.68 2.35,-13.4 3.56,-20 0.644,-3.57 0.984,-7.22 2.72,-10.5 0.665,-1.26 1.46,-2.49 2.42,-3.54 3.44,-3.82 8.23,-3.96 11.9,-0.328 1.23,1.23 2.28,2.67 3.19,4.16 4,6.53 7.94,13.1 11.9,19.7 0.465,0.777 0.883,0.933 1.74,0.707 9.65,-2.59 19.3,-5.14 29,-7.69 2,-0.527 4.01,-0.718 6.06,-0.335 4.45,0.832 6.4,4.22 4.89,8.53 -0.683,1.96 -1.87,3.61 -3.2,5.18 -6.74,7.93 -13.5,15.9 -20.2,23.8 -0.551,0.648 -0.562,1.11 -0.18,1.84 4.04,7.61 8.04,15.2 12.1,22.9 0.961,1.82 1.7,3.72 1.72,5.81 0.047,4.76 -3.44,8.66 -8.17,9.36 -2.65,0.387 -5.11,-0.179 -7.6,-0.945 -6.05,-1.87 -12.1,-3.71 -18.2,-5.54 -0.563,-0.168 -0.778,-0.391 -0.879,-0.996 -0.696,-4.27 -1.46,-8.53 -2.2,-12.8 -0.019,-0.117 0.016,-0.242 0.036,-0.504 6.91,1.91 13.8,3.79 20.9,5.76" /><path
       inkscape:connector-curvature="0"
       id="path10"
       style="fill:#3c3a3e;fill-rule:evenodd"
       d="m 272,144 c -5.46,-0.008 -10.9,-0.035 -16.4,-0.011 -0.723,0 -1.13,-0.207 -1.53,-0.821 -6.46,-9.84 -13,-19.7 -19.4,-29.5 -0.207,-0.312 -0.426,-0.613 -0.793,-1.14 -1.39,10.6 -2.76,21 -4.13,31.4 h -14.3 c 0.168,-1.39 0.317,-2.74 0.493,-4.08 1.39,-10.7 2.8,-21.3 4.2,-32 1.34,-10.2 2.67,-20.4 4.03,-30.6 0.039,-0.301 0.242,-0.688 0.488,-0.848 4.92,-3.21 9.86,-6.39 14.8,-9.57 0.071,-0.047 0.172,-0.051 0.426,-0.125 -1.49,11.4 -2.97,22.7 -4.46,34 0.059,0.039 0.117,0.082 0.176,0.121 7.75,-8.58 15.5,-17.2 23.4,-25.9 0.227,1.32 0.426,2.45 0.621,3.58 0.555,3.23 1.09,6.48 1.68,9.71 0.121,0.652 -0.055,1.05 -0.488,1.51 -5.01,5.24 -10,10.5 -15,15.8 -0.219,0.231 -0.426,0.469 -0.676,0.743 0.16,0.253 0.297,0.5 0.457,0.726 8.61,12.1 17.2,24.2 25.8,36.3 0.156,0.219 0.382,0.391 0.574,0.586 v 0.191" /><path
       inkscape:connector-curvature="0"
       id="path12"
       style="fill:#3c3a3e;fill-rule:evenodd"
       d="m 103,112 c -0.219,-1.11 -0.375,-2.75 -0.871,-4.28 -2.4,-7.39 -9.97,-11.4 -17.8,-9.61 -8.61,2 -14.8,8.77 -15.6,17.6 -0.66,6.5 2.84,12.8 9.34,15.1 5.24,1.89 10.3,1.1 15,-1.71 6.21,-3.72 9.57,-9.25 10,-17.1 z m -37.8,27.5 c -0.422,3.18 -0.828,6.17 -1.22,9.17 -0.523,3.98 -1.05,7.97 -1.55,12 -0.058,0.465 -0.199,0.672 -0.699,0.668 -3.93,-0.015 -7.86,-0.011 -11.8,-0.019 -0.09,0 -0.18,-0.047 -0.391,-0.109 0.238,-1.88 0.469,-3.77 0.715,-5.65 0.867,-6.6 1.73,-13.2 2.61,-19.8 1.01,-7.56 1.8,-15.1 3.09,-22.6 2.28,-13.3 13.6,-24.7 26.8,-27.6 7.67,-1.66 15,-0.891 21.7,3.43 6.68,4.3 10.5,10.6 11.4,18.4 1.24,11.1 -2.85,20.3 -10.7,28 -5.18,5.01 -11.4,8.19 -18.5,9.27 -7.37,1.11 -14.3,-0.117 -20.5,-4.46 -0.227,-0.16 -0.473,-0.3 -0.863,-0.546" /><path
       inkscape:connector-curvature="0"
       id="path14"
       style="fill:#3c3a3e;fill-rule:evenodd"
       d="m 58.6,76.5 c -4.4,3.28 -8.65,6.44 -12.9,9.61 -0.687,-1.08 -1.3,-2.16 -2.02,-3.17 -1.85,-2.59 -4.15,-4.52 -7.49,-4.75 -2.78,-0.196 -5.16,0.718 -7.05,2.77 -1.69,1.83 -1.91,4.44 -0.332,6.51 1.74,2.28 3.64,4.44 5.59,6.55 3.23,3.5 6.6,6.86 9.8,10.4 2.91,3.2 5.24,6.78 5.96,11.2 0.856,5.2 -0.183,10.1 -2.64,14.7 -4.55,8.45 -11.7,13.4 -21.2,14.9 -4.18,0.675 -8.34,0.543 -12.4,-0.657 -5.41,-1.59 -9.18,-5.14 -11.6,-10.1 -0.855,-1.77 -1.51,-3.64 -2.28,-5.54 4.73,-2.53 9.34,-5 14,-7.49 0.16,0.387 0.277,0.711 0.426,1.02 0.797,1.59 1.45,3.28 2.43,4.75 2.93,4.35 7.65,5.67 12.4,3.52 1.23,-0.555 2.42,-1.33 3.43,-2.23 3.08,-2.74 3.66,-6.56 1.38,-10 -1.31,-1.98 -2.95,-3.76 -4.55,-5.53 -3.82,-4.24 -7.8,-8.35 -11.5,-12.7 -2.57,-2.98 -4.32,-6.44 -4.88,-10.4 -0.605,-4.36 0.266,-8.46 2.53,-12.1 5.63,-9.11 13.8,-13.8 24.6,-13.5 6.17,0.223 11.1,3.11 14.9,7.91 1.13,1.42 2.19,2.89 3.34,4.43" /><path
       inkscape:connector-curvature="0"
       id="path16"
       style="fill:#3c3a3e;fill-rule:evenodd"
       d="m 163,125 c -0.719,5.49 -1.4,10.7 -2.1,15.9 -0.039,0.266 -0.246,0.625 -0.469,0.727 -10.7,4.94 -24.7,4.25 -33.4,-5.69 -4.7,-5.34 -6.67,-11.7 -6.38,-18.7 0.683,-16.3 14.2,-30.6 30.4,-32.6 9.45,-1.16 17.7,1.39 24.1,8.74 4.36,5 6.38,11 6.08,17.6 -0.195,4.36 -0.879,8.69 -1.42,13 -0.77,6.14 -1.61,12.3 -2.42,18.4 -0.031,0.214 -0.074,0.433 -0.125,0.711 h -12.7 c 0.168,-1.41 0.324,-2.79 0.504,-4.17 0.922,-7.09 1.94,-14.2 2.75,-21.3 0.504,-4.42 0.187,-8.81 -1.84,-12.9 -2.15,-4.35 -5.75,-6.66 -10.5,-7.16 -9.82,-1.04 -19.2,5.78 -21.2,15.4 -1.38,6.38 0.797,12.5 5.88,15.9 4.95,3.29 10.2,3.3 15.6,1.17 2.74,-1.08 5.06,-2.8 7.28,-5.11" /><path
       inkscape:connector-curvature="0"
       id="path18"
       style="fill:#3c3a3e;fill-rule:evenodd"
       d="m 217,86.3 c -0.582,4.42 -1.16,8.77 -1.74,13.2 -2.7,0 -5.34,-0.015 -7.98,0.004 -2.14,0.016 -4.09,1.4 -4.74,3.4 -0.25,0.781 -0.343,1.62 -0.453,2.44 -1.34,10.2 -2.67,20.3 -4,30.4 -0.336,2.56 -0.66,5.12 -0.996,7.72 h -13.3 c 0.246,-1.95 0.48,-3.84 0.726,-5.73 0.863,-6.58 1.73,-13.2 2.6,-19.7 0.754,-5.69 1.43,-11.4 2.32,-17.1 1.19,-7.6 8.75,-14.4 16.4,-14.7 3.66,-0.16 7.33,-0.027 11.1,-0.027" /><path
       inkscape:connector-curvature="0"
       id="path20"
       style="fill:#3c3a3e"
       d="m 288,144 v -5.6 h -0.031 l -2.2,5.6 h -0.699 l -2.2,-5.6 h -0.035 v 5.6 h -1.1 v -6.71 h 1.71 l 2,5.1 1.97,-5.1 h 1.7 V 144 Z m -9.74,-5.81 V 144 h -1.1 v -5.81 h -2.1 v -0.899 h 5.31 v 0.899 h -2.1" /><path
       inkscape:connector-curvature="0"
       id="path22"
       style="fill:#3c3a3e"
       d="m 76.3,67.1 h 3.29 l -0.778,-4.98 z m 3.81,3.22 h -5.47 l -1.74,3.41 h -3.88 l 8.55,-16 h 3.74 l 2.91,16 h -3.59 l -0.516,-3.41" /><path
       inkscape:connector-curvature="0"
       id="path24"
       style="fill:#3c3a3e"
       d="m 99.7,61 h -1.95 l -0.656,3.69 h 1.95 c 1.18,0 2.11,-0.773 2.11,-2.23 0,-0.965 -0.586,-1.46 -1.46,-1.46 z m -4.72,-3.22 h 5.12 c 2.68,0 4.55,1.6 4.55,4.34 0,3.46 -2.44,5.78 -5.92,5.78 h -2.21 l -1.04,5.85 h -3.34 l 2.82,-16" /><path
       inkscape:connector-curvature="0"
       id="path26"
       style="fill:#3c3a3e"
       d="m 116,67.1 h 3.29 l -0.777,-4.98 z m 3.8,3.22 h -5.47 l -1.74,3.41 h -3.88 l 8.55,-16 H 121 l 2.91,16 h -3.59 l -0.516,-3.41" /><path
       inkscape:connector-curvature="0"
       id="path28"
       style="fill:#3c3a3e"
       d="m 141,73.2 c -1.13,0.516 -2.37,0.824 -3.62,0.824 -4.23,0 -6.88,-3.17 -6.88,-7.14 0,-5.08 4.27,-9.35 9.35,-9.35 1.27,0 2.42,0.305 3.36,0.82 l -0.469,3.83 c -0.703,-0.777 -1.84,-1.32 -3.24,-1.32 -2.91,0 -5.5,2.63 -5.5,5.68 0,2.32 1.46,4.14 3.76,4.14 1.41,0 2.77,-0.543 3.69,-1.29 l -0.445,3.8" /><path
       inkscape:connector-curvature="0"
       id="path30"
       style="fill:#3c3a3e"
       d="m 162,67.3 h -6.95 l -1.13,6.43 h -3.33 l 2.82,-16 h 3.34 l -1.12,6.32 h 6.95 l 1.13,-6.32 h 3.34 l -2.82,16 h -3.34 l 1.12,-6.43" /><path
       inkscape:connector-curvature="0"
       id="path32"
       style="fill:#3c3a3e"
       d="m 174,73.7 2.82,-16 h 8.86 l -0.563,3.22 h -5.52 l -0.563,3.1 h 5.07 l -0.563,3.22 h -5.07 l -0.563,3.22 h 5.52 l -0.563,3.22 h -8.86" /></g></g></svg>